%TF.GenerationSoftware,KiCad,Pcbnew,6.0.4-6f826c9f35~116~ubuntu21.10.1*%
%TF.CreationDate,2022-05-06T18:09:40-07:00*%
%TF.ProjectId,HV_Amplifier,48565f41-6d70-46c6-9966-6965722e6b69,rev?*%
%TF.SameCoordinates,Original*%
%TF.FileFunction,Soldermask,Top*%
%TF.FilePolarity,Negative*%
%FSLAX46Y46*%
G04 Gerber Fmt 4.6, Leading zero omitted, Abs format (unit mm)*
G04 Created by KiCad (PCBNEW 6.0.4-6f826c9f35~116~ubuntu21.10.1) date 2022-05-06 18:09:40*
%MOMM*%
%LPD*%
G01*
G04 APERTURE LIST*
G04 Aperture macros list*
%AMRoundRect*
0 Rectangle with rounded corners*
0 $1 Rounding radius*
0 $2 $3 $4 $5 $6 $7 $8 $9 X,Y pos of 4 corners*
0 Add a 4 corners polygon primitive as box body*
4,1,4,$2,$3,$4,$5,$6,$7,$8,$9,$2,$3,0*
0 Add four circle primitives for the rounded corners*
1,1,$1+$1,$2,$3*
1,1,$1+$1,$4,$5*
1,1,$1+$1,$6,$7*
1,1,$1+$1,$8,$9*
0 Add four rect primitives between the rounded corners*
20,1,$1+$1,$2,$3,$4,$5,0*
20,1,$1+$1,$4,$5,$6,$7,0*
20,1,$1+$1,$6,$7,$8,$9,0*
20,1,$1+$1,$8,$9,$2,$3,0*%
G04 Aperture macros list end*
%ADD10C,2.600000*%
%ADD11C,6.350000*%
%ADD12R,1.100000X4.600000*%
%ADD13R,10.800000X9.400000*%
%ADD14RoundRect,0.250001X0.799999X-1.999999X0.799999X1.999999X-0.799999X1.999999X-0.799999X-1.999999X0*%
%ADD15RoundRect,0.250001X-0.799999X1.999999X-0.799999X-1.999999X0.799999X-1.999999X0.799999X1.999999X0*%
%ADD16RoundRect,0.250000X0.412500X0.650000X-0.412500X0.650000X-0.412500X-0.650000X0.412500X-0.650000X0*%
%ADD17R,1.800000X3.500000*%
%ADD18C,5.600000*%
%ADD19R,1.100000X1.100000*%
%ADD20RoundRect,0.250000X-0.650000X0.412500X-0.650000X-0.412500X0.650000X-0.412500X0.650000X0.412500X0*%
%ADD21RoundRect,0.250000X0.625000X-0.400000X0.625000X0.400000X-0.625000X0.400000X-0.625000X-0.400000X0*%
%ADD22RoundRect,0.250000X0.650000X-0.412500X0.650000X0.412500X-0.650000X0.412500X-0.650000X-0.412500X0*%
%ADD23R,3.500000X1.800000*%
%ADD24O,1.600000X2.500000*%
%ADD25O,3.500000X7.000000*%
%ADD26RoundRect,0.250000X-0.625000X0.400000X-0.625000X-0.400000X0.625000X-0.400000X0.625000X0.400000X0*%
%ADD27RoundRect,0.250000X-0.400000X-0.625000X0.400000X-0.625000X0.400000X0.625000X-0.400000X0.625000X0*%
%ADD28R,2.500000X2.500000*%
%ADD29RoundRect,0.250000X-0.412500X-0.650000X0.412500X-0.650000X0.412500X0.650000X-0.412500X0.650000X0*%
%ADD30RoundRect,0.250000X0.400000X0.625000X-0.400000X0.625000X-0.400000X-0.625000X0.400000X-0.625000X0*%
%ADD31O,4.000000X1.600000*%
%ADD32O,1.600000X4.000000*%
%ADD33C,2.500000*%
%ADD34C,1.800000*%
%ADD35RoundRect,0.575000X1.075000X-0.575000X1.075000X0.575000X-1.075000X0.575000X-1.075000X-0.575000X0*%
%ADD36R,1.700000X1.700000*%
%ADD37O,1.700000X1.700000*%
G04 APERTURE END LIST*
D10*
%TO.C,U1*%
X212778000Y-77342000D03*
X216538000Y-79512000D03*
X220818000Y-78762000D03*
X223608000Y-75432000D03*
X223608000Y-71092000D03*
X220818000Y-67762000D03*
X216538000Y-67012000D03*
X212778000Y-69182000D03*
D11*
X232738000Y-73262000D03*
X202538000Y-73262000D03*
%TD*%
D12*
%TO.C,U2*%
X145570000Y-81735000D03*
X147270000Y-81735000D03*
D13*
X148970000Y-72585000D03*
D12*
X148970000Y-81735000D03*
X150670000Y-81735000D03*
X152370000Y-81735000D03*
%TD*%
D14*
%TO.C,C20*%
X188000000Y-76600000D03*
X188000000Y-69400000D03*
%TD*%
D15*
%TO.C,C19*%
X188000000Y-82740000D03*
X188000000Y-89940000D03*
%TD*%
D16*
%TO.C,C12*%
X180108500Y-68778000D03*
X176983500Y-68778000D03*
%TD*%
D17*
%TO.C,D16*%
X173440000Y-103400000D03*
X173440000Y-98400000D03*
%TD*%
D18*
%TO.C,H2*%
X160000000Y-101500000D03*
%TD*%
D19*
%TO.C,D1*%
X233677500Y-84560000D03*
X236477500Y-84560000D03*
%TD*%
D20*
%TO.C,C7*%
X157464000Y-76867500D03*
X157464000Y-79992500D03*
%TD*%
D21*
%TO.C,R12*%
X177276000Y-75154000D03*
X177276000Y-72054000D03*
%TD*%
D22*
%TO.C,C14*%
X170418000Y-75166500D03*
X170418000Y-72041500D03*
%TD*%
D23*
%TO.C,D4*%
X235520000Y-61060000D03*
X230520000Y-61060000D03*
%TD*%
D21*
%TO.C,R11*%
X136758000Y-80270000D03*
X136758000Y-77170000D03*
%TD*%
D24*
%TO.C,J4*%
X209600000Y-97350000D03*
D25*
X214680000Y-102430000D03*
X204520000Y-102430000D03*
D24*
X212140000Y-97350000D03*
%TD*%
D26*
%TO.C,R13*%
X160258000Y-71800000D03*
X160258000Y-74900000D03*
%TD*%
%TO.C,R5*%
X203756000Y-86636000D03*
X203756000Y-89736000D03*
%TD*%
D27*
%TO.C,R3*%
X144098000Y-87610000D03*
X147198000Y-87610000D03*
%TD*%
D19*
%TO.C,D13*%
X157334000Y-63444000D03*
X160134000Y-63444000D03*
%TD*%
D28*
%TO.C,TP3*%
X244180000Y-68000000D03*
%TD*%
D29*
%TO.C,C17*%
X149673500Y-88372000D03*
X152798500Y-88372000D03*
%TD*%
D30*
%TO.C,R14*%
X165364000Y-69286000D03*
X162264000Y-69286000D03*
%TD*%
D31*
%TO.C,J3*%
X135450000Y-100250000D03*
X135450000Y-106250000D03*
D32*
X140150000Y-103250000D03*
%TD*%
D19*
%TO.C,D6*%
X160512000Y-77284000D03*
X160512000Y-80084000D03*
%TD*%
D26*
%TO.C,R6*%
X208910000Y-86670000D03*
X208910000Y-89770000D03*
%TD*%
D21*
%TO.C,R4*%
X206360000Y-89760000D03*
X206360000Y-86660000D03*
%TD*%
D28*
%TO.C,J5*%
X229255000Y-115000000D03*
D33*
X234335000Y-115000000D03*
%TD*%
D19*
%TO.C,D8*%
X173212000Y-77538000D03*
X173212000Y-80338000D03*
%TD*%
%TO.C,D14*%
X170418000Y-68654000D03*
X170418000Y-65854000D03*
%TD*%
D27*
%TO.C,R2*%
X233470000Y-87370000D03*
X236570000Y-87370000D03*
%TD*%
D34*
%TO.C,RV1*%
X245852000Y-92214000D03*
X243312000Y-99834000D03*
X245852000Y-104914000D03*
%TD*%
D16*
%TO.C,C15*%
X165376500Y-63444000D03*
X162251500Y-63444000D03*
%TD*%
D21*
%TO.C,R8*%
X140568000Y-80270000D03*
X140568000Y-77170000D03*
%TD*%
D19*
%TO.C,D10*%
X160134000Y-69286000D03*
X157334000Y-69286000D03*
%TD*%
%TO.C,D5*%
X165208000Y-85796000D03*
X168008000Y-85796000D03*
%TD*%
D16*
%TO.C,C2*%
X147210500Y-90404000D03*
X144085500Y-90404000D03*
%TD*%
D22*
%TO.C,C5*%
X136758000Y-71392500D03*
X136758000Y-68267500D03*
%TD*%
%TO.C,C8*%
X164830000Y-80246500D03*
X164830000Y-77121500D03*
%TD*%
D27*
%TO.C,R1*%
X212370000Y-56980000D03*
X215470000Y-56980000D03*
%TD*%
D28*
%TO.C,J1*%
X151980000Y-115000000D03*
D33*
X157060000Y-115000000D03*
X162140000Y-115000000D03*
X167220000Y-115000000D03*
%TD*%
D18*
%TO.C,H3*%
X135000000Y-59500000D03*
%TD*%
D16*
%TO.C,C13*%
X160296500Y-66238000D03*
X157171500Y-66238000D03*
%TD*%
D29*
%TO.C,C16*%
X176983500Y-65984000D03*
X180108500Y-65984000D03*
%TD*%
D19*
%TO.C,D15*%
X170542000Y-63444000D03*
X173342000Y-63444000D03*
%TD*%
D28*
%TO.C,TP4*%
X195810000Y-88530000D03*
%TD*%
D17*
%TO.C,D3*%
X222340000Y-89490000D03*
X222340000Y-94490000D03*
%TD*%
D24*
%TO.C,J2*%
X185300000Y-97250000D03*
D25*
X190380000Y-102330000D03*
X180220000Y-102330000D03*
D24*
X187840000Y-97250000D03*
%TD*%
D18*
%TO.C,H4*%
X244000000Y-59500000D03*
%TD*%
D28*
%TO.C,TP1*%
X164322000Y-60142000D03*
%TD*%
D18*
%TO.C,H1*%
X232000000Y-101500000D03*
%TD*%
D20*
%TO.C,C3*%
X226760000Y-89937500D03*
X226760000Y-93062500D03*
%TD*%
D21*
%TO.C,R10*%
X140568000Y-74428000D03*
X140568000Y-71328000D03*
%TD*%
D19*
%TO.C,D12*%
X162414000Y-66238000D03*
X165214000Y-66238000D03*
%TD*%
%TO.C,D2*%
X236477500Y-81766000D03*
X233677500Y-81766000D03*
%TD*%
D21*
%TO.C,R15*%
X173212000Y-68804000D03*
X173212000Y-65704000D03*
%TD*%
D29*
%TO.C,C18*%
X148237500Y-98580000D03*
X151362500Y-98580000D03*
%TD*%
D22*
%TO.C,C10*%
X170418000Y-80500500D03*
X170418000Y-77375500D03*
%TD*%
D29*
%TO.C,C6*%
X165045500Y-83002000D03*
X168170500Y-83002000D03*
%TD*%
%TO.C,C4*%
X233467500Y-64450000D03*
X236592500Y-64450000D03*
%TD*%
D19*
%TO.C,D9*%
X157464000Y-74750000D03*
X157464000Y-71950000D03*
%TD*%
D28*
%TO.C,TP2*%
X177300000Y-60200000D03*
%TD*%
D22*
%TO.C,C11*%
X164830000Y-74912500D03*
X164830000Y-71787500D03*
%TD*%
D35*
%TO.C,L1*%
X159750000Y-89000000D03*
X159750000Y-83100000D03*
%TD*%
D22*
%TO.C,C9*%
X180070000Y-75166500D03*
X180070000Y-72041500D03*
%TD*%
D27*
%TO.C,R16*%
X176996000Y-63444000D03*
X180096000Y-63444000D03*
%TD*%
D36*
%TO.C,JP1*%
X139552000Y-84308000D03*
D37*
X137012000Y-84308000D03*
%TD*%
D21*
%TO.C,R9*%
X140568000Y-68840000D03*
X140568000Y-65740000D03*
%TD*%
D19*
%TO.C,D7*%
X177146000Y-79446000D03*
X179946000Y-79446000D03*
%TD*%
D20*
%TO.C,C1*%
X208990000Y-56957500D03*
X208990000Y-60082500D03*
%TD*%
D19*
%TO.C,D11*%
X173212000Y-75004000D03*
X173212000Y-72204000D03*
%TD*%
D21*
%TO.C,R7*%
X201110000Y-89730000D03*
X201110000Y-86630000D03*
%TD*%
G36*
X176319968Y-81382405D02*
G01*
X176340083Y-81405701D01*
X181304546Y-88823754D01*
X181325810Y-88891492D01*
X181307078Y-88959972D01*
X181254295Y-89007454D01*
X181199832Y-89019833D01*
X171232719Y-89019833D01*
X171164598Y-88999831D01*
X171118105Y-88946175D01*
X171108001Y-88875901D01*
X171128254Y-88823383D01*
X176130904Y-81405330D01*
X176185576Y-81360036D01*
X176256056Y-81351490D01*
X176319968Y-81382405D01*
G37*
M02*
