%TF.GenerationSoftware,KiCad,Pcbnew,6.0.4-6f826c9f35~116~ubuntu21.10.1*%
%TF.CreationDate,2022-05-06T18:09:40-07:00*%
%TF.ProjectId,HV_Amplifier,48565f41-6d70-46c6-9966-6965722e6b69,rev?*%
%TF.SameCoordinates,Original*%
%TF.FileFunction,Copper,L2,Bot*%
%TF.FilePolarity,Positive*%
%FSLAX46Y46*%
G04 Gerber Fmt 4.6, Leading zero omitted, Abs format (unit mm)*
G04 Created by KiCad (PCBNEW 6.0.4-6f826c9f35~116~ubuntu21.10.1) date 2022-05-06 18:09:40*
%MOMM*%
%LPD*%
G01*
G04 APERTURE LIST*
%TA.AperFunction,ComponentPad*%
%ADD10C,2.600000*%
%TD*%
%TA.AperFunction,ComponentPad*%
%ADD11C,6.350000*%
%TD*%
%TA.AperFunction,ComponentPad*%
%ADD12C,5.600000*%
%TD*%
%TA.AperFunction,ComponentPad*%
%ADD13O,1.600000X2.500000*%
%TD*%
%TA.AperFunction,ComponentPad*%
%ADD14O,3.500000X7.000000*%
%TD*%
%TA.AperFunction,ComponentPad*%
%ADD15R,2.500000X2.500000*%
%TD*%
%TA.AperFunction,ComponentPad*%
%ADD16O,4.000000X1.600000*%
%TD*%
%TA.AperFunction,ComponentPad*%
%ADD17O,1.600000X4.000000*%
%TD*%
%TA.AperFunction,ComponentPad*%
%ADD18C,2.500000*%
%TD*%
%TA.AperFunction,ComponentPad*%
%ADD19C,1.800000*%
%TD*%
%TA.AperFunction,ComponentPad*%
%ADD20R,1.700000X1.700000*%
%TD*%
%TA.AperFunction,ComponentPad*%
%ADD21O,1.700000X1.700000*%
%TD*%
%TA.AperFunction,ViaPad*%
%ADD22C,0.800000*%
%TD*%
%TA.AperFunction,Conductor*%
%ADD23C,0.500000*%
%TD*%
G04 APERTURE END LIST*
D10*
%TO.P,U1,1,OUT*%
%TO.N,Net-(R5-Pad1)*%
X212778000Y-77342000D03*
%TO.P,U1,2,CL*%
%TO.N,Net-(R6-Pad2)*%
X216538000Y-79512000D03*
%TO.P,U1,3,+VS*%
%TO.N,+VHV*%
X220818000Y-78762000D03*
%TO.P,U1,4,+IN*%
%TO.N,/CTRL*%
X223608000Y-75432000D03*
%TO.P,U1,5,-IN*%
%TO.N,Net-(D1-Pad2)*%
X223608000Y-71092000D03*
%TO.P,U1,6,-VS*%
%TO.N,-VHV*%
X220818000Y-67762000D03*
%TO.P,U1,7,RC*%
%TO.N,Net-(R1-Pad2)*%
X216538000Y-67012000D03*
%TO.P,U1,8,CC*%
%TO.N,Net-(C1-Pad2)*%
X212778000Y-69182000D03*
D11*
%TO.P,U1,C*%
%TO.N,N/C*%
X232738000Y-73262000D03*
X202538000Y-73262000D03*
%TD*%
D12*
%TO.P,H2,1,1*%
%TO.N,GND*%
X160000000Y-101500000D03*
%TD*%
D13*
%TO.P,J4,1,In*%
%TO.N,/HVOUT*%
X209600000Y-97350000D03*
D14*
%TO.P,J4,2,Ext*%
%TO.N,GND*%
X214680000Y-102430000D03*
X204520000Y-102430000D03*
D13*
X212140000Y-97350000D03*
%TD*%
D15*
%TO.P,TP3,1,1*%
%TO.N,GND*%
X244180000Y-68000000D03*
%TD*%
D16*
%TO.P,J3,1*%
%TO.N,/VIN*%
X135450000Y-100250000D03*
%TO.P,J3,2*%
%TO.N,GND*%
X135450000Y-106250000D03*
D17*
%TO.P,J3,3*%
X140150000Y-103250000D03*
%TD*%
D15*
%TO.P,J5,1,Pin_1*%
%TO.N,/HVOUT*%
X229255000Y-115000000D03*
D18*
%TO.P,J5,2,Pin_2*%
%TO.N,GND*%
X234335000Y-115000000D03*
%TD*%
D19*
%TO.P,RV1,1,1*%
%TO.N,Net-(R2-Pad2)*%
X245852000Y-92214000D03*
%TO.P,RV1,2,2*%
%TO.N,GND*%
X243312000Y-99834000D03*
%TO.P,RV1,3,3*%
%TO.N,unconnected-(RV1-Pad3)*%
X245852000Y-104914000D03*
%TD*%
D15*
%TO.P,J1,1,Pin_1*%
%TO.N,/VIN*%
X151980000Y-115000000D03*
D18*
%TO.P,J1,2,Pin_2*%
%TO.N,GND*%
X157060000Y-115000000D03*
%TO.P,J1,3,Pin_3*%
%TO.N,/CTRL*%
X162140000Y-115000000D03*
%TO.P,J1,4,Pin_4*%
%TO.N,GND*%
X167220000Y-115000000D03*
%TD*%
D12*
%TO.P,H3,1,1*%
%TO.N,GND*%
X135000000Y-59500000D03*
%TD*%
D15*
%TO.P,TP4,1,1*%
%TO.N,GND*%
X195810000Y-88530000D03*
%TD*%
D13*
%TO.P,J2,1,In*%
%TO.N,/CTRL*%
X185300000Y-97250000D03*
D14*
%TO.P,J2,2,Ext*%
%TO.N,GND*%
X190380000Y-102330000D03*
X180220000Y-102330000D03*
D13*
X187840000Y-97250000D03*
%TD*%
D12*
%TO.P,H4,1,1*%
%TO.N,GND*%
X244000000Y-59500000D03*
%TD*%
D15*
%TO.P,TP1,1*%
%TO.N,+VHV*%
X164322000Y-60142000D03*
%TD*%
D12*
%TO.P,H1,1,1*%
%TO.N,GND*%
X232000000Y-101500000D03*
%TD*%
D15*
%TO.P,TP2,1*%
%TO.N,-VHV*%
X177300000Y-60200000D03*
%TD*%
D20*
%TO.P,JP1,1,A*%
%TO.N,GND*%
X139552000Y-84308000D03*
D21*
%TO.P,JP1,2,B*%
%TO.N,Net-(JP1-Pad2)*%
X137012000Y-84308000D03*
%TD*%
D22*
%TO.N,GND*%
X149000000Y-73840000D03*
X149000000Y-70270000D03*
X151920000Y-73840000D03*
X146160000Y-73840000D03*
X151920000Y-70270000D03*
X146160000Y-70270000D03*
%TO.N,+VHV*%
X215850000Y-72530000D03*
%TO.N,Net-(D1-Pad2)*%
X222390000Y-83660000D03*
X213920000Y-83700000D03*
%TO.N,GND*%
X185130000Y-89890000D03*
X162970000Y-80260000D03*
X149000000Y-90500000D03*
X236590000Y-62700000D03*
X181860000Y-75150000D03*
X165210000Y-87420000D03*
X224420000Y-93080000D03*
X146500000Y-98500000D03*
X185490000Y-76740000D03*
X170570000Y-103500000D03*
%TD*%
D23*
%TO.N,+VHV*%
X220818000Y-78762000D02*
X220818000Y-78398000D01*
X220818000Y-78398000D02*
X215850000Y-73430000D01*
X215850000Y-73430000D02*
X215850000Y-72530000D01*
%TO.N,Net-(D1-Pad2)*%
X222350000Y-83700000D02*
X222390000Y-83660000D01*
X213920000Y-83700000D02*
X222350000Y-83700000D01*
%TO.N,-VHV*%
X177300000Y-60200000D02*
X177300000Y-58990000D01*
X177300000Y-58990000D02*
X179590000Y-56700000D01*
X179590000Y-56700000D02*
X191280000Y-56700000D01*
X220840000Y-58570000D02*
X220840000Y-67740000D01*
X220840000Y-67740000D02*
X220818000Y-67762000D01*
X191280000Y-56700000D02*
X191350000Y-56630000D01*
X191350000Y-56630000D02*
X218900000Y-56630000D01*
X218900000Y-56630000D02*
X220840000Y-58570000D01*
%TD*%
%TA.AperFunction,Conductor*%
%TO.N,GND*%
G36*
X179455858Y-55728502D02*
G01*
X179502351Y-55782158D01*
X179512455Y-55852432D01*
X179482961Y-55917012D01*
X179417915Y-55956399D01*
X179414319Y-55956818D01*
X179345673Y-55981735D01*
X179341545Y-55983152D01*
X179279064Y-56003393D01*
X179279062Y-56003394D01*
X179272101Y-56005649D01*
X179265846Y-56009445D01*
X179260372Y-56011951D01*
X179254942Y-56014670D01*
X179248063Y-56017167D01*
X179241943Y-56021180D01*
X179241942Y-56021180D01*
X179187024Y-56057186D01*
X179183320Y-56059523D01*
X179120893Y-56097405D01*
X179112516Y-56104803D01*
X179112492Y-56104776D01*
X179109500Y-56107429D01*
X179106267Y-56110132D01*
X179100148Y-56114144D01*
X179095116Y-56119456D01*
X179046872Y-56170383D01*
X179044494Y-56172825D01*
X176812724Y-58404595D01*
X176750412Y-58438621D01*
X176723629Y-58441500D01*
X176001866Y-58441500D01*
X175939684Y-58448255D01*
X175803295Y-58499385D01*
X175686739Y-58586739D01*
X175599385Y-58703295D01*
X175548255Y-58839684D01*
X175541500Y-58901866D01*
X175541500Y-61498134D01*
X175548255Y-61560316D01*
X175599385Y-61696705D01*
X175686739Y-61813261D01*
X175803295Y-61900615D01*
X175939684Y-61951745D01*
X176001866Y-61958500D01*
X178598134Y-61958500D01*
X178660316Y-61951745D01*
X178796705Y-61900615D01*
X178913261Y-61813261D01*
X179000615Y-61696705D01*
X179051745Y-61560316D01*
X179058500Y-61498134D01*
X179058500Y-58901866D01*
X179051745Y-58839684D01*
X179000615Y-58703295D01*
X178919948Y-58595661D01*
X178895100Y-58529156D01*
X178910153Y-58459773D01*
X178931679Y-58431002D01*
X179867276Y-57495405D01*
X179929588Y-57461379D01*
X179956371Y-57458500D01*
X191212930Y-57458500D01*
X191231880Y-57459933D01*
X191246115Y-57462099D01*
X191246119Y-57462099D01*
X191253349Y-57463199D01*
X191260641Y-57462606D01*
X191260644Y-57462606D01*
X191306018Y-57458915D01*
X191316233Y-57458500D01*
X191324293Y-57458500D01*
X191337583Y-57456951D01*
X191352507Y-57455211D01*
X191356882Y-57454778D01*
X191422339Y-57449454D01*
X191422342Y-57449453D01*
X191429637Y-57448860D01*
X191436601Y-57446604D01*
X191442560Y-57445413D01*
X191448415Y-57444029D01*
X191455681Y-57443182D01*
X191524327Y-57418265D01*
X191528455Y-57416848D01*
X191597030Y-57394633D01*
X191635861Y-57388500D01*
X218533629Y-57388500D01*
X218601750Y-57408502D01*
X218622724Y-57425405D01*
X220044595Y-58847276D01*
X220078621Y-58909588D01*
X220081500Y-58936371D01*
X220081500Y-66029354D01*
X220061498Y-66097475D01*
X220008252Y-66143780D01*
X219938763Y-66175815D01*
X219934854Y-66178378D01*
X219717881Y-66320631D01*
X219717876Y-66320635D01*
X219713968Y-66323197D01*
X219513426Y-66502188D01*
X219341544Y-66708854D01*
X219202096Y-66938656D01*
X219098148Y-67186545D01*
X219031981Y-67447077D01*
X219005050Y-67714526D01*
X219005274Y-67719192D01*
X219005274Y-67719197D01*
X219006525Y-67745242D01*
X219017947Y-67983019D01*
X219070388Y-68246656D01*
X219161220Y-68499646D01*
X219288450Y-68736431D01*
X219291241Y-68740168D01*
X219291245Y-68740175D01*
X219372887Y-68849506D01*
X219449281Y-68951810D01*
X219452590Y-68955090D01*
X219452595Y-68955096D01*
X219628904Y-69129872D01*
X219640180Y-69141050D01*
X219643942Y-69143808D01*
X219643945Y-69143811D01*
X219756299Y-69226192D01*
X219856954Y-69299995D01*
X219861089Y-69302171D01*
X219861093Y-69302173D01*
X220090698Y-69422975D01*
X220094840Y-69425154D01*
X220348613Y-69513775D01*
X220353206Y-69514647D01*
X220608109Y-69563042D01*
X220608112Y-69563042D01*
X220612698Y-69563913D01*
X220740370Y-69568929D01*
X220876625Y-69574283D01*
X220876630Y-69574283D01*
X220881293Y-69574466D01*
X220985607Y-69563042D01*
X221143844Y-69545713D01*
X221143850Y-69545712D01*
X221148497Y-69545203D01*
X221154707Y-69543568D01*
X221403918Y-69477956D01*
X221403920Y-69477955D01*
X221408441Y-69476765D01*
X221412738Y-69474919D01*
X221651120Y-69372502D01*
X221651122Y-69372501D01*
X221655414Y-69370657D01*
X221774071Y-69297230D01*
X221880017Y-69231669D01*
X221880021Y-69231666D01*
X221883990Y-69229210D01*
X222089149Y-69055530D01*
X222266382Y-68853434D01*
X222285343Y-68823957D01*
X222380063Y-68676697D01*
X222411797Y-68627361D01*
X222522199Y-68382278D01*
X222559209Y-68251051D01*
X222593893Y-68128072D01*
X222593894Y-68128069D01*
X222595163Y-68123568D01*
X222613133Y-67982316D01*
X222628688Y-67860045D01*
X222628688Y-67860041D01*
X222629086Y-67856915D01*
X222631571Y-67762000D01*
X222629036Y-67727885D01*
X242422000Y-67727885D01*
X242426475Y-67743124D01*
X242427865Y-67744329D01*
X242435548Y-67746000D01*
X243907885Y-67746000D01*
X243923124Y-67741525D01*
X243924329Y-67740135D01*
X243926000Y-67732452D01*
X243926000Y-67727885D01*
X244434000Y-67727885D01*
X244438475Y-67743124D01*
X244439865Y-67744329D01*
X244447548Y-67746000D01*
X245919884Y-67746000D01*
X245935123Y-67741525D01*
X245936328Y-67740135D01*
X245937999Y-67732452D01*
X245937999Y-66705331D01*
X245937629Y-66698510D01*
X245932105Y-66647648D01*
X245928479Y-66632396D01*
X245883324Y-66511946D01*
X245874786Y-66496351D01*
X245798285Y-66394276D01*
X245785724Y-66381715D01*
X245683649Y-66305214D01*
X245668054Y-66296676D01*
X245547606Y-66251522D01*
X245532351Y-66247895D01*
X245481486Y-66242369D01*
X245474672Y-66242000D01*
X244452115Y-66242000D01*
X244436876Y-66246475D01*
X244435671Y-66247865D01*
X244434000Y-66255548D01*
X244434000Y-67727885D01*
X243926000Y-67727885D01*
X243926000Y-66260116D01*
X243921525Y-66244877D01*
X243920135Y-66243672D01*
X243912452Y-66242001D01*
X242885331Y-66242001D01*
X242878510Y-66242371D01*
X242827648Y-66247895D01*
X242812396Y-66251521D01*
X242691946Y-66296676D01*
X242676351Y-66305214D01*
X242574276Y-66381715D01*
X242561715Y-66394276D01*
X242485214Y-66496351D01*
X242476676Y-66511946D01*
X242431522Y-66632394D01*
X242427895Y-66647649D01*
X242422369Y-66698514D01*
X242422000Y-66705328D01*
X242422000Y-67727885D01*
X222629036Y-67727885D01*
X222620818Y-67617306D01*
X222611996Y-67498592D01*
X222611996Y-67498591D01*
X222611650Y-67493937D01*
X222609682Y-67485239D01*
X222553361Y-67236331D01*
X222553360Y-67236326D01*
X222552327Y-67231763D01*
X222454902Y-66981238D01*
X222321518Y-66747864D01*
X222318423Y-66743937D01*
X222230489Y-66632394D01*
X222155105Y-66536769D01*
X221959317Y-66352591D01*
X221790665Y-66235592D01*
X221742299Y-66202039D01*
X221742296Y-66202037D01*
X221738457Y-66199374D01*
X221668770Y-66165008D01*
X221616523Y-66116940D01*
X221598500Y-66052003D01*
X221598500Y-62016381D01*
X241849160Y-62016381D01*
X241849237Y-62017470D01*
X241851698Y-62021206D01*
X242125632Y-62231404D01*
X242131262Y-62235259D01*
X242431591Y-62417862D01*
X242437593Y-62421080D01*
X242755897Y-62570184D01*
X242762202Y-62572732D01*
X243094743Y-62686587D01*
X243101313Y-62688446D01*
X243444183Y-62765714D01*
X243450912Y-62766853D01*
X243800143Y-62806643D01*
X243806933Y-62807046D01*
X244158419Y-62808886D01*
X244165220Y-62808554D01*
X244514853Y-62772423D01*
X244521581Y-62771357D01*
X244865274Y-62697676D01*
X244871822Y-62695897D01*
X245205549Y-62585527D01*
X245211891Y-62583041D01*
X245531718Y-62437288D01*
X245537777Y-62434121D01*
X245839995Y-62254676D01*
X245845659Y-62250884D01*
X246126732Y-62039849D01*
X246131958Y-62035464D01*
X246141613Y-62026428D01*
X246149682Y-62012750D01*
X246149654Y-62012024D01*
X246144512Y-62003723D01*
X244012810Y-59872020D01*
X243998869Y-59864408D01*
X243997034Y-59864539D01*
X243990420Y-59868790D01*
X241856774Y-62002437D01*
X241849160Y-62016381D01*
X221598500Y-62016381D01*
X221598500Y-59491832D01*
X240687333Y-59491832D01*
X240705117Y-59842893D01*
X240705827Y-59849649D01*
X240761420Y-60196723D01*
X240762859Y-60203378D01*
X240855608Y-60542410D01*
X240857757Y-60548871D01*
X240986581Y-60875912D01*
X240989412Y-60882095D01*
X241152803Y-61193310D01*
X241156286Y-61199152D01*
X241352330Y-61490896D01*
X241356433Y-61496340D01*
X241476425Y-61638836D01*
X241489164Y-61647279D01*
X241499608Y-61641181D01*
X243627980Y-59512810D01*
X243634357Y-59501131D01*
X244364408Y-59501131D01*
X244364539Y-59502966D01*
X244368790Y-59509580D01*
X246499009Y-61639798D01*
X246512605Y-61647223D01*
X246522218Y-61640522D01*
X246622518Y-61523912D01*
X246626676Y-61518514D01*
X246825762Y-61228840D01*
X246829310Y-61223029D01*
X246995942Y-60913559D01*
X246998849Y-60907381D01*
X247131090Y-60581713D01*
X247133304Y-60575283D01*
X247229598Y-60237237D01*
X247231105Y-60230607D01*
X247290332Y-59884118D01*
X247291112Y-59877378D01*
X247312668Y-59524925D01*
X247312784Y-59521323D01*
X247312853Y-59501819D01*
X247312761Y-59498194D01*
X247293666Y-59145615D01*
X247292931Y-59138849D01*
X247236130Y-58791985D01*
X247234663Y-58785313D01*
X247140736Y-58446627D01*
X247138562Y-58440163D01*
X247008598Y-58113578D01*
X247005742Y-58107398D01*
X246841269Y-57796763D01*
X246837769Y-57790937D01*
X246640697Y-57499862D01*
X246636590Y-57494453D01*
X246523565Y-57361179D01*
X246510740Y-57352743D01*
X246500416Y-57358795D01*
X244372020Y-59487190D01*
X244364408Y-59501131D01*
X243634357Y-59501131D01*
X243635592Y-59498869D01*
X243635461Y-59497034D01*
X243631210Y-59490420D01*
X241500992Y-57360203D01*
X241487455Y-57352811D01*
X241477753Y-57359599D01*
X241370430Y-57485257D01*
X241366296Y-57490664D01*
X241168215Y-57781041D01*
X241164697Y-57786851D01*
X240999134Y-58096922D01*
X240996259Y-58103087D01*
X240865155Y-58429218D01*
X240862962Y-58435658D01*
X240767846Y-58774044D01*
X240766363Y-58780679D01*
X240708350Y-59127354D01*
X240707591Y-59134126D01*
X240687357Y-59485037D01*
X240687333Y-59491832D01*
X221598500Y-59491832D01*
X221598500Y-58637069D01*
X221599933Y-58618118D01*
X221602099Y-58603883D01*
X221602099Y-58603881D01*
X221603199Y-58596651D01*
X221598915Y-58543982D01*
X221598500Y-58533767D01*
X221598500Y-58525707D01*
X221596059Y-58504771D01*
X221595211Y-58497493D01*
X221594778Y-58493118D01*
X221589454Y-58427661D01*
X221589453Y-58427658D01*
X221588860Y-58420363D01*
X221586604Y-58413399D01*
X221585413Y-58407440D01*
X221584029Y-58401585D01*
X221583182Y-58394319D01*
X221558265Y-58325673D01*
X221556848Y-58321545D01*
X221536607Y-58259064D01*
X221536606Y-58259062D01*
X221534351Y-58252101D01*
X221530555Y-58245846D01*
X221528049Y-58240372D01*
X221525330Y-58234942D01*
X221522833Y-58228063D01*
X221482809Y-58167016D01*
X221480472Y-58163312D01*
X221445509Y-58105693D01*
X221445505Y-58105688D01*
X221442595Y-58100892D01*
X221435197Y-58092516D01*
X221435223Y-58092493D01*
X221432574Y-58089503D01*
X221429866Y-58086264D01*
X221425856Y-58080148D01*
X221420549Y-58075121D01*
X221420546Y-58075117D01*
X221369617Y-58026872D01*
X221367175Y-58024494D01*
X220329543Y-56986862D01*
X241849950Y-56986862D01*
X241849986Y-56987704D01*
X241855037Y-56995826D01*
X243987190Y-59127980D01*
X244001131Y-59135592D01*
X244002966Y-59135461D01*
X244009580Y-59131210D01*
X246142798Y-56997991D01*
X246150412Y-56984047D01*
X246150344Y-56983089D01*
X246145836Y-56976272D01*
X246144418Y-56975065D01*
X245864813Y-56762064D01*
X245859187Y-56758240D01*
X245558214Y-56576681D01*
X245552202Y-56573484D01*
X245233370Y-56425487D01*
X245227070Y-56422967D01*
X244894129Y-56310273D01*
X244887551Y-56308437D01*
X244544417Y-56232367D01*
X244537678Y-56231251D01*
X244188310Y-56192680D01*
X244181529Y-56192301D01*
X243830015Y-56191687D01*
X243823242Y-56192042D01*
X243473720Y-56229395D01*
X243467010Y-56230482D01*
X243123586Y-56305361D01*
X243117011Y-56307172D01*
X242783683Y-56418702D01*
X242777361Y-56421205D01*
X242458034Y-56568079D01*
X242451991Y-56571265D01*
X242150401Y-56751763D01*
X242144755Y-56755571D01*
X241864408Y-56967596D01*
X241859211Y-56971987D01*
X241857972Y-56973155D01*
X241849950Y-56986862D01*
X220329543Y-56986862D01*
X219483770Y-56141089D01*
X219471384Y-56126677D01*
X219462851Y-56115082D01*
X219462846Y-56115077D01*
X219458508Y-56109182D01*
X219452930Y-56104443D01*
X219452927Y-56104440D01*
X219418232Y-56074965D01*
X219410716Y-56068035D01*
X219405021Y-56062340D01*
X219398506Y-56057186D01*
X219382749Y-56044719D01*
X219379345Y-56041928D01*
X219329297Y-55999409D01*
X219329295Y-55999408D01*
X219323715Y-55994667D01*
X219317199Y-55991339D01*
X219312150Y-55987972D01*
X219307021Y-55984805D01*
X219301284Y-55980266D01*
X219235125Y-55949345D01*
X219231227Y-55947440D01*
X219229813Y-55946718D01*
X219178239Y-55897925D01*
X219161232Y-55828996D01*
X219184191Y-55761814D01*
X219239827Y-55717709D01*
X219287112Y-55708500D01*
X247865500Y-55708500D01*
X247933621Y-55728502D01*
X247980114Y-55782158D01*
X247991500Y-55834500D01*
X247991500Y-109365500D01*
X247971498Y-109433621D01*
X247917842Y-109480114D01*
X247865500Y-109491500D01*
X237008623Y-109491500D01*
X237007853Y-109491498D01*
X237007037Y-109491493D01*
X236930279Y-109491024D01*
X236907918Y-109497415D01*
X236901847Y-109499150D01*
X236885085Y-109502728D01*
X236855813Y-109506920D01*
X236847645Y-109510634D01*
X236847644Y-109510634D01*
X236832438Y-109517548D01*
X236814914Y-109523996D01*
X236790229Y-109531051D01*
X236782635Y-109535843D01*
X236782632Y-109535844D01*
X236765220Y-109546830D01*
X236750137Y-109554969D01*
X236723218Y-109567208D01*
X236716416Y-109573069D01*
X236703765Y-109583970D01*
X236688761Y-109595073D01*
X236667042Y-109608776D01*
X236661103Y-109615501D01*
X236661099Y-109615504D01*
X236647468Y-109630938D01*
X236635276Y-109642982D01*
X236619673Y-109656427D01*
X236619671Y-109656430D01*
X236612873Y-109662287D01*
X236607993Y-109669816D01*
X236607992Y-109669817D01*
X236598906Y-109683835D01*
X236587615Y-109698709D01*
X236576569Y-109711217D01*
X236570622Y-109717951D01*
X236564312Y-109731391D01*
X236558058Y-109744711D01*
X236549737Y-109759691D01*
X236538529Y-109776983D01*
X236538527Y-109776988D01*
X236533648Y-109784515D01*
X236531078Y-109793108D01*
X236531076Y-109793113D01*
X236526289Y-109809120D01*
X236519628Y-109826564D01*
X236512533Y-109841676D01*
X236508719Y-109849800D01*
X236507338Y-109858667D01*
X236507338Y-109858668D01*
X236504170Y-109879015D01*
X236500387Y-109895732D01*
X236494485Y-109915466D01*
X236494484Y-109915472D01*
X236491914Y-109924066D01*
X236491859Y-109933037D01*
X236491859Y-109933038D01*
X236491704Y-109958497D01*
X236491671Y-109959289D01*
X236491500Y-109960386D01*
X236491500Y-109991377D01*
X236491498Y-109992147D01*
X236491024Y-110069721D01*
X236491408Y-110071065D01*
X236491500Y-110072410D01*
X236491500Y-120865500D01*
X236471498Y-120933621D01*
X236417842Y-120980114D01*
X236365500Y-120991500D01*
X227134500Y-120991500D01*
X227066379Y-120971498D01*
X227019886Y-120917842D01*
X227008500Y-120865500D01*
X227008500Y-116298134D01*
X227496500Y-116298134D01*
X227503255Y-116360316D01*
X227554385Y-116496705D01*
X227641739Y-116613261D01*
X227758295Y-116700615D01*
X227894684Y-116751745D01*
X227956866Y-116758500D01*
X230553134Y-116758500D01*
X230615316Y-116751745D01*
X230751705Y-116700615D01*
X230868261Y-116613261D01*
X230955615Y-116496705D01*
X230988444Y-116409133D01*
X233290612Y-116409133D01*
X233299325Y-116420653D01*
X233397018Y-116492284D01*
X233404928Y-116497227D01*
X233627890Y-116614533D01*
X233636453Y-116618256D01*
X233874304Y-116701318D01*
X233883313Y-116703732D01*
X234130842Y-116750727D01*
X234140098Y-116751781D01*
X234391857Y-116761673D01*
X234401171Y-116761347D01*
X234651615Y-116733920D01*
X234660792Y-116732219D01*
X234904431Y-116668074D01*
X234913251Y-116665037D01*
X235144736Y-116565583D01*
X235153008Y-116561276D01*
X235367249Y-116428700D01*
X235374188Y-116423658D01*
X235382518Y-116411019D01*
X235376456Y-116400666D01*
X234347812Y-115372022D01*
X234333868Y-115364408D01*
X234332035Y-115364539D01*
X234325420Y-115368790D01*
X233297270Y-116396940D01*
X233290612Y-116409133D01*
X230988444Y-116409133D01*
X231006745Y-116360316D01*
X231013500Y-116298134D01*
X231013500Y-114958523D01*
X232572898Y-114958523D01*
X232584987Y-115210175D01*
X232586124Y-115219435D01*
X232635274Y-115466535D01*
X232637768Y-115475528D01*
X232722900Y-115712639D01*
X232726700Y-115721174D01*
X232845946Y-115943101D01*
X232850957Y-115950968D01*
X232914446Y-116035990D01*
X232925704Y-116044439D01*
X232938123Y-116037667D01*
X233962978Y-115012812D01*
X233969356Y-115001132D01*
X234699408Y-115001132D01*
X234699539Y-115002965D01*
X234703790Y-115009580D01*
X235734913Y-116040703D01*
X235747293Y-116047463D01*
X235755634Y-116041219D01*
X235881765Y-115845127D01*
X235886212Y-115836936D01*
X235989691Y-115607222D01*
X235992882Y-115598455D01*
X236061269Y-115355976D01*
X236063129Y-115346834D01*
X236095116Y-115095396D01*
X236095597Y-115089108D01*
X236097847Y-115003160D01*
X236097696Y-114996851D01*
X236078912Y-114744074D01*
X236077536Y-114734868D01*
X236021929Y-114489126D01*
X236019205Y-114480215D01*
X235927888Y-114245392D01*
X235923877Y-114236983D01*
X235798854Y-114018240D01*
X235793643Y-114010514D01*
X235756391Y-113963261D01*
X235744466Y-113954790D01*
X235732934Y-113961276D01*
X234707022Y-114987188D01*
X234699408Y-115001132D01*
X233969356Y-115001132D01*
X233970592Y-114998868D01*
X233970461Y-114997035D01*
X233966210Y-114990420D01*
X232936321Y-113960531D01*
X232923013Y-113953264D01*
X232912974Y-113960386D01*
X232902761Y-113972666D01*
X232897346Y-113980258D01*
X232766646Y-114195646D01*
X232762408Y-114203963D01*
X232664981Y-114436299D01*
X232662020Y-114445149D01*
X232600006Y-114689331D01*
X232598384Y-114698528D01*
X232573143Y-114949198D01*
X232572898Y-114958523D01*
X231013500Y-114958523D01*
X231013500Y-113701866D01*
X231006745Y-113639684D01*
X230987671Y-113588803D01*
X233288216Y-113588803D01*
X233292789Y-113598579D01*
X234322188Y-114627978D01*
X234336132Y-114635592D01*
X234337965Y-114635461D01*
X234344580Y-114631210D01*
X235373419Y-113602371D01*
X235379803Y-113590681D01*
X235370391Y-113578570D01*
X235233593Y-113483670D01*
X235225565Y-113478942D01*
X234999593Y-113367505D01*
X234990960Y-113364017D01*
X234750998Y-113287205D01*
X234741938Y-113285029D01*
X234493260Y-113244529D01*
X234483973Y-113243717D01*
X234232053Y-113240419D01*
X234222742Y-113240989D01*
X233973097Y-113274964D01*
X233963978Y-113276902D01*
X233722098Y-113347404D01*
X233713367Y-113350667D01*
X233484558Y-113456151D01*
X233476406Y-113460670D01*
X233297353Y-113578062D01*
X233288216Y-113588803D01*
X230987671Y-113588803D01*
X230955615Y-113503295D01*
X230868261Y-113386739D01*
X230751705Y-113299385D01*
X230615316Y-113248255D01*
X230553134Y-113241500D01*
X227956866Y-113241500D01*
X227894684Y-113248255D01*
X227758295Y-113299385D01*
X227641739Y-113386739D01*
X227554385Y-113503295D01*
X227503255Y-113639684D01*
X227496500Y-113701866D01*
X227496500Y-116298134D01*
X227008500Y-116298134D01*
X227008500Y-110008623D01*
X227008502Y-110007853D01*
X227008800Y-109959102D01*
X227008976Y-109930279D01*
X227000850Y-109901847D01*
X226997272Y-109885085D01*
X226994352Y-109864698D01*
X226993080Y-109855813D01*
X226982451Y-109832436D01*
X226976004Y-109814913D01*
X226971416Y-109798862D01*
X226968949Y-109790229D01*
X226964156Y-109782632D01*
X226953170Y-109765220D01*
X226945030Y-109750135D01*
X226942564Y-109744711D01*
X226932792Y-109723218D01*
X226916030Y-109703765D01*
X226904927Y-109688761D01*
X226891224Y-109667042D01*
X226884499Y-109661103D01*
X226884496Y-109661099D01*
X226869062Y-109647468D01*
X226857018Y-109635276D01*
X226843573Y-109619673D01*
X226843570Y-109619671D01*
X226837713Y-109612873D01*
X226824009Y-109603990D01*
X226816165Y-109598906D01*
X226801291Y-109587615D01*
X226788783Y-109576569D01*
X226788782Y-109576568D01*
X226782049Y-109570622D01*
X226755287Y-109558057D01*
X226740309Y-109549737D01*
X226723017Y-109538529D01*
X226723012Y-109538527D01*
X226715485Y-109533648D01*
X226706892Y-109531078D01*
X226706887Y-109531076D01*
X226690880Y-109526289D01*
X226673436Y-109519628D01*
X226658324Y-109512533D01*
X226658322Y-109512532D01*
X226650200Y-109508719D01*
X226641333Y-109507338D01*
X226641332Y-109507338D01*
X226630478Y-109505648D01*
X226620983Y-109504170D01*
X226604268Y-109500387D01*
X226584534Y-109494485D01*
X226584528Y-109494484D01*
X226575934Y-109491914D01*
X226566963Y-109491859D01*
X226566962Y-109491859D01*
X226556903Y-109491798D01*
X226541494Y-109491704D01*
X226540711Y-109491671D01*
X226539614Y-109491500D01*
X226508623Y-109491500D01*
X226507853Y-109491498D01*
X226434215Y-109491048D01*
X226434214Y-109491048D01*
X226430279Y-109491024D01*
X226428935Y-109491408D01*
X226427590Y-109491500D01*
X170008623Y-109491500D01*
X170007853Y-109491498D01*
X170007037Y-109491493D01*
X169930279Y-109491024D01*
X169907918Y-109497415D01*
X169901847Y-109499150D01*
X169885085Y-109502728D01*
X169855813Y-109506920D01*
X169847645Y-109510634D01*
X169847644Y-109510634D01*
X169832438Y-109517548D01*
X169814914Y-109523996D01*
X169790229Y-109531051D01*
X169782635Y-109535843D01*
X169782632Y-109535844D01*
X169765220Y-109546830D01*
X169750137Y-109554969D01*
X169723218Y-109567208D01*
X169716416Y-109573069D01*
X169703765Y-109583970D01*
X169688761Y-109595073D01*
X169667042Y-109608776D01*
X169661103Y-109615501D01*
X169661099Y-109615504D01*
X169647468Y-109630938D01*
X169635276Y-109642982D01*
X169619673Y-109656427D01*
X169619671Y-109656430D01*
X169612873Y-109662287D01*
X169607993Y-109669816D01*
X169607992Y-109669817D01*
X169598906Y-109683835D01*
X169587615Y-109698709D01*
X169576569Y-109711217D01*
X169570622Y-109717951D01*
X169564312Y-109731391D01*
X169558058Y-109744711D01*
X169549737Y-109759691D01*
X169538529Y-109776983D01*
X169538527Y-109776988D01*
X169533648Y-109784515D01*
X169531078Y-109793108D01*
X169531076Y-109793113D01*
X169526289Y-109809120D01*
X169519628Y-109826564D01*
X169512533Y-109841676D01*
X169508719Y-109849800D01*
X169507338Y-109858667D01*
X169507338Y-109858668D01*
X169504170Y-109879015D01*
X169500387Y-109895732D01*
X169494485Y-109915466D01*
X169494484Y-109915472D01*
X169491914Y-109924066D01*
X169491859Y-109933037D01*
X169491859Y-109933038D01*
X169491704Y-109958497D01*
X169491671Y-109959289D01*
X169491500Y-109960386D01*
X169491500Y-109991377D01*
X169491498Y-109992147D01*
X169491024Y-110069721D01*
X169491408Y-110071065D01*
X169491500Y-110072410D01*
X169491500Y-120865500D01*
X169471498Y-120933621D01*
X169417842Y-120980114D01*
X169365500Y-120991500D01*
X149634500Y-120991500D01*
X149566379Y-120971498D01*
X149519886Y-120917842D01*
X149508500Y-120865500D01*
X149508500Y-116298134D01*
X150221500Y-116298134D01*
X150228255Y-116360316D01*
X150279385Y-116496705D01*
X150366739Y-116613261D01*
X150483295Y-116700615D01*
X150619684Y-116751745D01*
X150681866Y-116758500D01*
X153278134Y-116758500D01*
X153340316Y-116751745D01*
X153476705Y-116700615D01*
X153593261Y-116613261D01*
X153680615Y-116496705D01*
X153713444Y-116409133D01*
X156015612Y-116409133D01*
X156024325Y-116420653D01*
X156122018Y-116492284D01*
X156129928Y-116497227D01*
X156352890Y-116614533D01*
X156361453Y-116618256D01*
X156599304Y-116701318D01*
X156608313Y-116703732D01*
X156855842Y-116750727D01*
X156865098Y-116751781D01*
X157116857Y-116761673D01*
X157126171Y-116761347D01*
X157376615Y-116733920D01*
X157385792Y-116732219D01*
X157629431Y-116668074D01*
X157638251Y-116665037D01*
X157869736Y-116565583D01*
X157878008Y-116561276D01*
X158092249Y-116428700D01*
X158099188Y-116423658D01*
X158107518Y-116411019D01*
X158101456Y-116400666D01*
X157072812Y-115372022D01*
X157058868Y-115364408D01*
X157057035Y-115364539D01*
X157050420Y-115368790D01*
X156022270Y-116396940D01*
X156015612Y-116409133D01*
X153713444Y-116409133D01*
X153731745Y-116360316D01*
X153738500Y-116298134D01*
X153738500Y-114958523D01*
X155297898Y-114958523D01*
X155309987Y-115210175D01*
X155311124Y-115219435D01*
X155360274Y-115466535D01*
X155362768Y-115475528D01*
X155447900Y-115712639D01*
X155451700Y-115721174D01*
X155570946Y-115943101D01*
X155575957Y-115950968D01*
X155639446Y-116035990D01*
X155650704Y-116044439D01*
X155663123Y-116037667D01*
X156687978Y-115012812D01*
X156694356Y-115001132D01*
X157424408Y-115001132D01*
X157424539Y-115002965D01*
X157428790Y-115009580D01*
X158459913Y-116040703D01*
X158472293Y-116047463D01*
X158480634Y-116041219D01*
X158606765Y-115845127D01*
X158611212Y-115836936D01*
X158714691Y-115607222D01*
X158717882Y-115598455D01*
X158786269Y-115355976D01*
X158788129Y-115346834D01*
X158820116Y-115095396D01*
X158820597Y-115089108D01*
X158822847Y-115003160D01*
X158822696Y-114996851D01*
X158819500Y-114953839D01*
X160377173Y-114953839D01*
X160377397Y-114958505D01*
X160377397Y-114958511D01*
X160383443Y-115084374D01*
X160389713Y-115214908D01*
X160440704Y-115471256D01*
X160529026Y-115717252D01*
X160531242Y-115721376D01*
X160595753Y-115841437D01*
X160652737Y-115947491D01*
X160655532Y-115951234D01*
X160655534Y-115951237D01*
X160806330Y-116153177D01*
X160806335Y-116153183D01*
X160809122Y-116156915D01*
X160812431Y-116160195D01*
X160812436Y-116160201D01*
X160991426Y-116337635D01*
X160994743Y-116340923D01*
X160998505Y-116343681D01*
X160998508Y-116343684D01*
X161195736Y-116488297D01*
X161205524Y-116495474D01*
X161209667Y-116497654D01*
X161209669Y-116497655D01*
X161432684Y-116614989D01*
X161432689Y-116614991D01*
X161436834Y-116617172D01*
X161683590Y-116703344D01*
X161688183Y-116704216D01*
X161935785Y-116751224D01*
X161935788Y-116751224D01*
X161940374Y-116752095D01*
X162070958Y-116757226D01*
X162196875Y-116762174D01*
X162196881Y-116762174D01*
X162201543Y-116762357D01*
X162290651Y-116752598D01*
X162456707Y-116734412D01*
X162456712Y-116734411D01*
X162461360Y-116733902D01*
X162574116Y-116704216D01*
X162709594Y-116668548D01*
X162709596Y-116668547D01*
X162714117Y-116667357D01*
X162954262Y-116564182D01*
X163176519Y-116426646D01*
X163180082Y-116423629D01*
X163180087Y-116423626D01*
X163197207Y-116409133D01*
X166175612Y-116409133D01*
X166184325Y-116420653D01*
X166282018Y-116492284D01*
X166289928Y-116497227D01*
X166512890Y-116614533D01*
X166521453Y-116618256D01*
X166759304Y-116701318D01*
X166768313Y-116703732D01*
X167015842Y-116750727D01*
X167025098Y-116751781D01*
X167276857Y-116761673D01*
X167286171Y-116761347D01*
X167536615Y-116733920D01*
X167545792Y-116732219D01*
X167789431Y-116668074D01*
X167798251Y-116665037D01*
X168029736Y-116565583D01*
X168038008Y-116561276D01*
X168252249Y-116428700D01*
X168259188Y-116423658D01*
X168267518Y-116411019D01*
X168261456Y-116400666D01*
X167232812Y-115372022D01*
X167218868Y-115364408D01*
X167217035Y-115364539D01*
X167210420Y-115368790D01*
X166182270Y-116396940D01*
X166175612Y-116409133D01*
X163197207Y-116409133D01*
X163372439Y-116260787D01*
X163372440Y-116260786D01*
X163376005Y-116257768D01*
X163467729Y-116153177D01*
X163545257Y-116064774D01*
X163545261Y-116064769D01*
X163548339Y-116061259D01*
X163689733Y-115841437D01*
X163797083Y-115603129D01*
X163835607Y-115466535D01*
X163866760Y-115356076D01*
X163866761Y-115356073D01*
X163868030Y-115351572D01*
X163884840Y-115219435D01*
X163900616Y-115095421D01*
X163900616Y-115095417D01*
X163901014Y-115092291D01*
X163901098Y-115089108D01*
X163903348Y-115003160D01*
X163903431Y-115000000D01*
X163900349Y-114958523D01*
X165457898Y-114958523D01*
X165469987Y-115210175D01*
X165471124Y-115219435D01*
X165520274Y-115466535D01*
X165522768Y-115475528D01*
X165607900Y-115712639D01*
X165611700Y-115721174D01*
X165730946Y-115943101D01*
X165735957Y-115950968D01*
X165799446Y-116035990D01*
X165810704Y-116044439D01*
X165823123Y-116037667D01*
X166847978Y-115012812D01*
X166854356Y-115001132D01*
X167584408Y-115001132D01*
X167584539Y-115002965D01*
X167588790Y-115009580D01*
X168619913Y-116040703D01*
X168632293Y-116047463D01*
X168640634Y-116041219D01*
X168766765Y-115845127D01*
X168771212Y-115836936D01*
X168874691Y-115607222D01*
X168877882Y-115598455D01*
X168946269Y-115355976D01*
X168948129Y-115346834D01*
X168980116Y-115095396D01*
X168980597Y-115089108D01*
X168982847Y-115003160D01*
X168982696Y-114996851D01*
X168963912Y-114744074D01*
X168962536Y-114734868D01*
X168906929Y-114489126D01*
X168904205Y-114480215D01*
X168812888Y-114245392D01*
X168808877Y-114236983D01*
X168683854Y-114018240D01*
X168678643Y-114010514D01*
X168641391Y-113963261D01*
X168629466Y-113954790D01*
X168617934Y-113961276D01*
X167592022Y-114987188D01*
X167584408Y-115001132D01*
X166854356Y-115001132D01*
X166855592Y-114998868D01*
X166855461Y-114997035D01*
X166851210Y-114990420D01*
X165821321Y-113960531D01*
X165808013Y-113953264D01*
X165797974Y-113960386D01*
X165787761Y-113972666D01*
X165782346Y-113980258D01*
X165651646Y-114195646D01*
X165647408Y-114203963D01*
X165549981Y-114436299D01*
X165547020Y-114445149D01*
X165485006Y-114689331D01*
X165483384Y-114698528D01*
X165458143Y-114949198D01*
X165457898Y-114958523D01*
X163900349Y-114958523D01*
X163884061Y-114739348D01*
X163874825Y-114698528D01*
X163827408Y-114488980D01*
X163826377Y-114484423D01*
X163731647Y-114240823D01*
X163601951Y-114013902D01*
X163440138Y-113808643D01*
X163249763Y-113629557D01*
X163191017Y-113588803D01*
X166173216Y-113588803D01*
X166177789Y-113598579D01*
X167207188Y-114627978D01*
X167221132Y-114635592D01*
X167222965Y-114635461D01*
X167229580Y-114631210D01*
X168258419Y-113602371D01*
X168264803Y-113590681D01*
X168255391Y-113578570D01*
X168118593Y-113483670D01*
X168110565Y-113478942D01*
X167884593Y-113367505D01*
X167875960Y-113364017D01*
X167635998Y-113287205D01*
X167626938Y-113285029D01*
X167378260Y-113244529D01*
X167368973Y-113243717D01*
X167117053Y-113240419D01*
X167107742Y-113240989D01*
X166858097Y-113274964D01*
X166848978Y-113276902D01*
X166607098Y-113347404D01*
X166598367Y-113350667D01*
X166369558Y-113456151D01*
X166361406Y-113460670D01*
X166182353Y-113578062D01*
X166173216Y-113588803D01*
X163191017Y-113588803D01*
X163035009Y-113480576D01*
X162994644Y-113460670D01*
X162804781Y-113367040D01*
X162804778Y-113367039D01*
X162800593Y-113364975D01*
X162754449Y-113350204D01*
X162556123Y-113286720D01*
X162551665Y-113285293D01*
X162293693Y-113243279D01*
X162179942Y-113241790D01*
X162037022Y-113239919D01*
X162037019Y-113239919D01*
X162032345Y-113239858D01*
X161773362Y-113275104D01*
X161522433Y-113348243D01*
X161518180Y-113350203D01*
X161518179Y-113350204D01*
X161467888Y-113373389D01*
X161285072Y-113457668D01*
X161246067Y-113483241D01*
X161070404Y-113598410D01*
X161070399Y-113598414D01*
X161066491Y-113600976D01*
X160871494Y-113775018D01*
X160704363Y-113975970D01*
X160568771Y-114199419D01*
X160467697Y-114440455D01*
X160403359Y-114693783D01*
X160377173Y-114953839D01*
X158819500Y-114953839D01*
X158803912Y-114744074D01*
X158802536Y-114734868D01*
X158746929Y-114489126D01*
X158744205Y-114480215D01*
X158652888Y-114245392D01*
X158648877Y-114236983D01*
X158523854Y-114018240D01*
X158518643Y-114010514D01*
X158481391Y-113963261D01*
X158469466Y-113954790D01*
X158457934Y-113961276D01*
X157432022Y-114987188D01*
X157424408Y-115001132D01*
X156694356Y-115001132D01*
X156695592Y-114998868D01*
X156695461Y-114997035D01*
X156691210Y-114990420D01*
X155661321Y-113960531D01*
X155648013Y-113953264D01*
X155637974Y-113960386D01*
X155627761Y-113972666D01*
X155622346Y-113980258D01*
X155491646Y-114195646D01*
X155487408Y-114203963D01*
X155389981Y-114436299D01*
X155387020Y-114445149D01*
X155325006Y-114689331D01*
X155323384Y-114698528D01*
X155298143Y-114949198D01*
X155297898Y-114958523D01*
X153738500Y-114958523D01*
X153738500Y-113701866D01*
X153731745Y-113639684D01*
X153712671Y-113588803D01*
X156013216Y-113588803D01*
X156017789Y-113598579D01*
X157047188Y-114627978D01*
X157061132Y-114635592D01*
X157062965Y-114635461D01*
X157069580Y-114631210D01*
X158098419Y-113602371D01*
X158104803Y-113590681D01*
X158095391Y-113578570D01*
X157958593Y-113483670D01*
X157950565Y-113478942D01*
X157724593Y-113367505D01*
X157715960Y-113364017D01*
X157475998Y-113287205D01*
X157466938Y-113285029D01*
X157218260Y-113244529D01*
X157208973Y-113243717D01*
X156957053Y-113240419D01*
X156947742Y-113240989D01*
X156698097Y-113274964D01*
X156688978Y-113276902D01*
X156447098Y-113347404D01*
X156438367Y-113350667D01*
X156209558Y-113456151D01*
X156201406Y-113460670D01*
X156022353Y-113578062D01*
X156013216Y-113588803D01*
X153712671Y-113588803D01*
X153680615Y-113503295D01*
X153593261Y-113386739D01*
X153476705Y-113299385D01*
X153340316Y-113248255D01*
X153278134Y-113241500D01*
X150681866Y-113241500D01*
X150619684Y-113248255D01*
X150483295Y-113299385D01*
X150366739Y-113386739D01*
X150279385Y-113503295D01*
X150228255Y-113639684D01*
X150221500Y-113701866D01*
X150221500Y-116298134D01*
X149508500Y-116298134D01*
X149508500Y-110008623D01*
X149508502Y-110007853D01*
X149508800Y-109959102D01*
X149508976Y-109930279D01*
X149500850Y-109901847D01*
X149497272Y-109885085D01*
X149494352Y-109864698D01*
X149493080Y-109855813D01*
X149482451Y-109832436D01*
X149476004Y-109814913D01*
X149471416Y-109798862D01*
X149468949Y-109790229D01*
X149464156Y-109782632D01*
X149453170Y-109765220D01*
X149445030Y-109750135D01*
X149442564Y-109744711D01*
X149432792Y-109723218D01*
X149416030Y-109703765D01*
X149404927Y-109688761D01*
X149391224Y-109667042D01*
X149384499Y-109661103D01*
X149384496Y-109661099D01*
X149369062Y-109647468D01*
X149357018Y-109635276D01*
X149343573Y-109619673D01*
X149343570Y-109619671D01*
X149337713Y-109612873D01*
X149324009Y-109603990D01*
X149316165Y-109598906D01*
X149301291Y-109587615D01*
X149288783Y-109576569D01*
X149288782Y-109576568D01*
X149282049Y-109570622D01*
X149255287Y-109558057D01*
X149240309Y-109549737D01*
X149223017Y-109538529D01*
X149223012Y-109538527D01*
X149215485Y-109533648D01*
X149206892Y-109531078D01*
X149206887Y-109531076D01*
X149190880Y-109526289D01*
X149173436Y-109519628D01*
X149158324Y-109512533D01*
X149158322Y-109512532D01*
X149150200Y-109508719D01*
X149141333Y-109507338D01*
X149141332Y-109507338D01*
X149130478Y-109505648D01*
X149120983Y-109504170D01*
X149104268Y-109500387D01*
X149084534Y-109494485D01*
X149084528Y-109494484D01*
X149075934Y-109491914D01*
X149066963Y-109491859D01*
X149066962Y-109491859D01*
X149056903Y-109491798D01*
X149041494Y-109491704D01*
X149040711Y-109491671D01*
X149039614Y-109491500D01*
X149008623Y-109491500D01*
X149007853Y-109491498D01*
X148934215Y-109491048D01*
X148934214Y-109491048D01*
X148930279Y-109491024D01*
X148928935Y-109491408D01*
X148927590Y-109491500D01*
X130634500Y-109491500D01*
X130566379Y-109471498D01*
X130519886Y-109417842D01*
X130508500Y-109365500D01*
X130508500Y-106516522D01*
X132967273Y-106516522D01*
X133014764Y-106693761D01*
X133018510Y-106704053D01*
X133110586Y-106901511D01*
X133116069Y-106911007D01*
X133241028Y-107089467D01*
X133248084Y-107097875D01*
X133402125Y-107251916D01*
X133410533Y-107258972D01*
X133588993Y-107383931D01*
X133598489Y-107389414D01*
X133795947Y-107481490D01*
X133806239Y-107485236D01*
X134016688Y-107541625D01*
X134027481Y-107543528D01*
X134190170Y-107557762D01*
X134195635Y-107558000D01*
X135177885Y-107558000D01*
X135193124Y-107553525D01*
X135194329Y-107552135D01*
X135196000Y-107544452D01*
X135196000Y-107539885D01*
X135704000Y-107539885D01*
X135708475Y-107555124D01*
X135709865Y-107556329D01*
X135717548Y-107558000D01*
X136704365Y-107558000D01*
X136709830Y-107557762D01*
X136872519Y-107543528D01*
X136883312Y-107541625D01*
X137093761Y-107485236D01*
X137104053Y-107481490D01*
X137301511Y-107389414D01*
X137311007Y-107383931D01*
X137489467Y-107258972D01*
X137497875Y-107251916D01*
X137651916Y-107097875D01*
X137658972Y-107089467D01*
X137783931Y-106911007D01*
X137789414Y-106901511D01*
X137881490Y-106704053D01*
X137885236Y-106693761D01*
X137931394Y-106521497D01*
X137931058Y-106507401D01*
X137923116Y-106504000D01*
X135722115Y-106504000D01*
X135706876Y-106508475D01*
X135705671Y-106509865D01*
X135704000Y-106517548D01*
X135704000Y-107539885D01*
X135196000Y-107539885D01*
X135196000Y-106522115D01*
X135191525Y-106506876D01*
X135190135Y-106505671D01*
X135182452Y-106504000D01*
X132982033Y-106504000D01*
X132968502Y-106507973D01*
X132967273Y-106516522D01*
X130508500Y-106516522D01*
X130508500Y-105978503D01*
X132968606Y-105978503D01*
X132968942Y-105992599D01*
X132976884Y-105996000D01*
X135177885Y-105996000D01*
X135193124Y-105991525D01*
X135194329Y-105990135D01*
X135196000Y-105982452D01*
X135196000Y-105977885D01*
X135704000Y-105977885D01*
X135708475Y-105993124D01*
X135709865Y-105994329D01*
X135717548Y-105996000D01*
X137917967Y-105996000D01*
X137931498Y-105992027D01*
X137932727Y-105983478D01*
X137885236Y-105806239D01*
X137881490Y-105795947D01*
X137789414Y-105598489D01*
X137783931Y-105588993D01*
X137658972Y-105410533D01*
X137651916Y-105402125D01*
X137497875Y-105248084D01*
X137489467Y-105241028D01*
X137311007Y-105116069D01*
X137301511Y-105110586D01*
X137104053Y-105018510D01*
X137093761Y-105014764D01*
X136883312Y-104958375D01*
X136872519Y-104956472D01*
X136709830Y-104942238D01*
X136704365Y-104942000D01*
X135722115Y-104942000D01*
X135706876Y-104946475D01*
X135705671Y-104947865D01*
X135704000Y-104955548D01*
X135704000Y-105977885D01*
X135196000Y-105977885D01*
X135196000Y-104960115D01*
X135191525Y-104944876D01*
X135190135Y-104943671D01*
X135182452Y-104942000D01*
X134195635Y-104942000D01*
X134190170Y-104942238D01*
X134027481Y-104956472D01*
X134016688Y-104958375D01*
X133806239Y-105014764D01*
X133795947Y-105018510D01*
X133598489Y-105110586D01*
X133588993Y-105116069D01*
X133410533Y-105241028D01*
X133402125Y-105248084D01*
X133248084Y-105402125D01*
X133241028Y-105410533D01*
X133116069Y-105588993D01*
X133110586Y-105598489D01*
X133018510Y-105795947D01*
X133014764Y-105806239D01*
X132968606Y-105978503D01*
X130508500Y-105978503D01*
X130508500Y-104504365D01*
X138842000Y-104504365D01*
X138842238Y-104509830D01*
X138856472Y-104672519D01*
X138858375Y-104683312D01*
X138914764Y-104893761D01*
X138918510Y-104904053D01*
X139010586Y-105101511D01*
X139016069Y-105111007D01*
X139141028Y-105289467D01*
X139148084Y-105297875D01*
X139302125Y-105451916D01*
X139310533Y-105458972D01*
X139488993Y-105583931D01*
X139498489Y-105589414D01*
X139695947Y-105681490D01*
X139706239Y-105685236D01*
X139878503Y-105731394D01*
X139892599Y-105731058D01*
X139896000Y-105723116D01*
X139896000Y-105717967D01*
X140404000Y-105717967D01*
X140407973Y-105731498D01*
X140416522Y-105732727D01*
X140593761Y-105685236D01*
X140604053Y-105681490D01*
X140801511Y-105589414D01*
X140811007Y-105583931D01*
X140989467Y-105458972D01*
X140997875Y-105451916D01*
X141151916Y-105297875D01*
X141158972Y-105289467D01*
X141283931Y-105111007D01*
X141289414Y-105101511D01*
X141381490Y-104904053D01*
X141385236Y-104893761D01*
X141441625Y-104683312D01*
X141443528Y-104672519D01*
X141457762Y-104509830D01*
X141458000Y-104504365D01*
X141458000Y-104016381D01*
X157849160Y-104016381D01*
X157849237Y-104017470D01*
X157851698Y-104021206D01*
X158125632Y-104231404D01*
X158131262Y-104235259D01*
X158431591Y-104417862D01*
X158437593Y-104421080D01*
X158755897Y-104570184D01*
X158762202Y-104572732D01*
X159094743Y-104686587D01*
X159101313Y-104688446D01*
X159444183Y-104765714D01*
X159450912Y-104766853D01*
X159800143Y-104806643D01*
X159806933Y-104807046D01*
X160158419Y-104808886D01*
X160165220Y-104808554D01*
X160514853Y-104772423D01*
X160521581Y-104771357D01*
X160865274Y-104697676D01*
X160871822Y-104695897D01*
X161205549Y-104585527D01*
X161211891Y-104583041D01*
X161531718Y-104437288D01*
X161537777Y-104434121D01*
X161839995Y-104254676D01*
X161845659Y-104250884D01*
X161974706Y-104153993D01*
X177962000Y-104153993D01*
X177962139Y-104158182D01*
X177976549Y-104375132D01*
X177977653Y-104383403D01*
X178035290Y-104669251D01*
X178037478Y-104677303D01*
X178132409Y-104953005D01*
X178135650Y-104960716D01*
X178266213Y-105221444D01*
X178270434Y-105228638D01*
X178434341Y-105469820D01*
X178439474Y-105476390D01*
X178633839Y-105693775D01*
X178639795Y-105699608D01*
X178861203Y-105889378D01*
X178867884Y-105894376D01*
X179112437Y-106053191D01*
X179119727Y-106057265D01*
X179383132Y-106182338D01*
X179390900Y-106185414D01*
X179668531Y-106274552D01*
X179676637Y-106276573D01*
X179948170Y-106325429D01*
X179961429Y-106323997D01*
X179966000Y-106309387D01*
X179966000Y-106306367D01*
X180474000Y-106306367D01*
X180478295Y-106320996D01*
X180490272Y-106323058D01*
X180562053Y-106316778D01*
X180570292Y-106315503D01*
X180854880Y-106251890D01*
X180862877Y-106249536D01*
X181136534Y-106148850D01*
X181144172Y-106145450D01*
X181402115Y-106009451D01*
X181409213Y-106005084D01*
X181646905Y-105836165D01*
X181653372Y-105830892D01*
X181866639Y-105632017D01*
X181872351Y-105625933D01*
X182057437Y-105400607D01*
X182062292Y-105393826D01*
X182215958Y-105145987D01*
X182219871Y-105138627D01*
X182339404Y-104872654D01*
X182342314Y-104864831D01*
X182425624Y-104585375D01*
X182427469Y-104577254D01*
X182473191Y-104288571D01*
X182473899Y-104281597D01*
X182477936Y-104192714D01*
X182478000Y-104189881D01*
X182478000Y-104153993D01*
X188122000Y-104153993D01*
X188122139Y-104158182D01*
X188136549Y-104375132D01*
X188137653Y-104383403D01*
X188195290Y-104669251D01*
X188197478Y-104677303D01*
X188292409Y-104953005D01*
X188295650Y-104960716D01*
X188426213Y-105221444D01*
X188430434Y-105228638D01*
X188594341Y-105469820D01*
X188599474Y-105476390D01*
X188793839Y-105693775D01*
X188799795Y-105699608D01*
X189021203Y-105889378D01*
X189027884Y-105894376D01*
X189272437Y-106053191D01*
X189279727Y-106057265D01*
X189543132Y-106182338D01*
X189550900Y-106185414D01*
X189828531Y-106274552D01*
X189836637Y-106276573D01*
X190108170Y-106325429D01*
X190121429Y-106323997D01*
X190126000Y-106309387D01*
X190126000Y-106306367D01*
X190634000Y-106306367D01*
X190638295Y-106320996D01*
X190650272Y-106323058D01*
X190722053Y-106316778D01*
X190730292Y-106315503D01*
X191014880Y-106251890D01*
X191022877Y-106249536D01*
X191296534Y-106148850D01*
X191304172Y-106145450D01*
X191562115Y-106009451D01*
X191569213Y-106005084D01*
X191806905Y-105836165D01*
X191813372Y-105830892D01*
X192026639Y-105632017D01*
X192032351Y-105625933D01*
X192217437Y-105400607D01*
X192222292Y-105393826D01*
X192375958Y-105145987D01*
X192379871Y-105138627D01*
X192499404Y-104872654D01*
X192502314Y-104864831D01*
X192585624Y-104585375D01*
X192587469Y-104577254D01*
X192633191Y-104288571D01*
X192633899Y-104281597D01*
X192635153Y-104253993D01*
X202262000Y-104253993D01*
X202262139Y-104258182D01*
X202276549Y-104475132D01*
X202277653Y-104483403D01*
X202335290Y-104769251D01*
X202337478Y-104777303D01*
X202432409Y-105053005D01*
X202435650Y-105060716D01*
X202566213Y-105321444D01*
X202570434Y-105328638D01*
X202734341Y-105569820D01*
X202739474Y-105576390D01*
X202933839Y-105793775D01*
X202939795Y-105799608D01*
X203161203Y-105989378D01*
X203167884Y-105994376D01*
X203412437Y-106153191D01*
X203419727Y-106157265D01*
X203683132Y-106282338D01*
X203690900Y-106285414D01*
X203968531Y-106374552D01*
X203976637Y-106376573D01*
X204248170Y-106425429D01*
X204261429Y-106423997D01*
X204266000Y-106409387D01*
X204266000Y-106406367D01*
X204774000Y-106406367D01*
X204778295Y-106420996D01*
X204790272Y-106423058D01*
X204862053Y-106416778D01*
X204870292Y-106415503D01*
X205154880Y-106351890D01*
X205162877Y-106349536D01*
X205436534Y-106248850D01*
X205444172Y-106245450D01*
X205702115Y-106109451D01*
X205709213Y-106105084D01*
X205946905Y-105936165D01*
X205953372Y-105930892D01*
X206166639Y-105732017D01*
X206172351Y-105725933D01*
X206357437Y-105500607D01*
X206362292Y-105493826D01*
X206515958Y-105245987D01*
X206519871Y-105238627D01*
X206639404Y-104972654D01*
X206642314Y-104964831D01*
X206725624Y-104685375D01*
X206727469Y-104677254D01*
X206773191Y-104388571D01*
X206773899Y-104381597D01*
X206777936Y-104292714D01*
X206778000Y-104289881D01*
X206778000Y-104253993D01*
X212422000Y-104253993D01*
X212422139Y-104258182D01*
X212436549Y-104475132D01*
X212437653Y-104483403D01*
X212495290Y-104769251D01*
X212497478Y-104777303D01*
X212592409Y-105053005D01*
X212595650Y-105060716D01*
X212726213Y-105321444D01*
X212730434Y-105328638D01*
X212894341Y-105569820D01*
X212899474Y-105576390D01*
X213093839Y-105793775D01*
X213099795Y-105799608D01*
X213321203Y-105989378D01*
X213327884Y-105994376D01*
X213572437Y-106153191D01*
X213579727Y-106157265D01*
X213843132Y-106282338D01*
X213850900Y-106285414D01*
X214128531Y-106374552D01*
X214136637Y-106376573D01*
X214408170Y-106425429D01*
X214421429Y-106423997D01*
X214426000Y-106409387D01*
X214426000Y-106406367D01*
X214934000Y-106406367D01*
X214938295Y-106420996D01*
X214950272Y-106423058D01*
X215022053Y-106416778D01*
X215030292Y-106415503D01*
X215314880Y-106351890D01*
X215322877Y-106349536D01*
X215596534Y-106248850D01*
X215604172Y-106245450D01*
X215862115Y-106109451D01*
X215869213Y-106105084D01*
X216106905Y-105936165D01*
X216113372Y-105930892D01*
X216326639Y-105732017D01*
X216332351Y-105725933D01*
X216517437Y-105500607D01*
X216522292Y-105493826D01*
X216675958Y-105245987D01*
X216679871Y-105238627D01*
X216799404Y-104972654D01*
X216802314Y-104964831D01*
X216827762Y-104879469D01*
X244439095Y-104879469D01*
X244439392Y-104884622D01*
X244439392Y-104884625D01*
X244445067Y-104983041D01*
X244452427Y-105110697D01*
X244453564Y-105115743D01*
X244453565Y-105115749D01*
X244477385Y-105221444D01*
X244503346Y-105336642D01*
X244505288Y-105341424D01*
X244505289Y-105341428D01*
X244550154Y-105451916D01*
X244590484Y-105551237D01*
X244711501Y-105748719D01*
X244863147Y-105923784D01*
X245041349Y-106071730D01*
X245241322Y-106188584D01*
X245457694Y-106271209D01*
X245462760Y-106272240D01*
X245462761Y-106272240D01*
X245474125Y-106274552D01*
X245684656Y-106317385D01*
X245815324Y-106322176D01*
X245910949Y-106325683D01*
X245910953Y-106325683D01*
X245916113Y-106325872D01*
X245921233Y-106325216D01*
X245921235Y-106325216D01*
X245997055Y-106315503D01*
X246145847Y-106296442D01*
X246150795Y-106294957D01*
X246150802Y-106294956D01*
X246362747Y-106231369D01*
X246367690Y-106229886D01*
X246448236Y-106190427D01*
X246571049Y-106130262D01*
X246571052Y-106130260D01*
X246575684Y-106127991D01*
X246764243Y-105993494D01*
X246928303Y-105830005D01*
X247063458Y-105641917D01*
X247084922Y-105598489D01*
X247163784Y-105438922D01*
X247163785Y-105438920D01*
X247166078Y-105434280D01*
X247233408Y-105212671D01*
X247263640Y-104983041D01*
X247264500Y-104947865D01*
X247265245Y-104917365D01*
X247265245Y-104917361D01*
X247265327Y-104914000D01*
X247256501Y-104806643D01*
X247246773Y-104688318D01*
X247246772Y-104688312D01*
X247246349Y-104683167D01*
X247196172Y-104483403D01*
X247191184Y-104463544D01*
X247191183Y-104463540D01*
X247189925Y-104458533D01*
X247187866Y-104453797D01*
X247099630Y-104250868D01*
X247099628Y-104250865D01*
X247097570Y-104246131D01*
X246971764Y-104051665D01*
X246961013Y-104039849D01*
X246922134Y-103997122D01*
X246815887Y-103880358D01*
X246811836Y-103877159D01*
X246811832Y-103877155D01*
X246638177Y-103740011D01*
X246638172Y-103740008D01*
X246634123Y-103736810D01*
X246629607Y-103734317D01*
X246629604Y-103734315D01*
X246435879Y-103627373D01*
X246435875Y-103627371D01*
X246431355Y-103624876D01*
X246426486Y-103623152D01*
X246426482Y-103623150D01*
X246217903Y-103549288D01*
X246217899Y-103549287D01*
X246213028Y-103547562D01*
X246207935Y-103546655D01*
X246207932Y-103546654D01*
X245990095Y-103507851D01*
X245990089Y-103507850D01*
X245985006Y-103506945D01*
X245912096Y-103506054D01*
X245758581Y-103504179D01*
X245758579Y-103504179D01*
X245753411Y-103504116D01*
X245524464Y-103539150D01*
X245304314Y-103611106D01*
X245299726Y-103613494D01*
X245299722Y-103613496D01*
X245103461Y-103715663D01*
X245098872Y-103718052D01*
X245094739Y-103721155D01*
X245094736Y-103721157D01*
X245069625Y-103740011D01*
X244913655Y-103857117D01*
X244753639Y-104024564D01*
X244750725Y-104028836D01*
X244750724Y-104028837D01*
X244735152Y-104051665D01*
X244623119Y-104215899D01*
X244525602Y-104425981D01*
X244463707Y-104649169D01*
X244439095Y-104879469D01*
X216827762Y-104879469D01*
X216885624Y-104685375D01*
X216887469Y-104677254D01*
X216933191Y-104388571D01*
X216933899Y-104381597D01*
X216937936Y-104292714D01*
X216938000Y-104289881D01*
X216938000Y-104016381D01*
X229849160Y-104016381D01*
X229849237Y-104017470D01*
X229851698Y-104021206D01*
X230125632Y-104231404D01*
X230131262Y-104235259D01*
X230431591Y-104417862D01*
X230437593Y-104421080D01*
X230755897Y-104570184D01*
X230762202Y-104572732D01*
X231094743Y-104686587D01*
X231101313Y-104688446D01*
X231444183Y-104765714D01*
X231450912Y-104766853D01*
X231800143Y-104806643D01*
X231806933Y-104807046D01*
X232158419Y-104808886D01*
X232165220Y-104808554D01*
X232514853Y-104772423D01*
X232521581Y-104771357D01*
X232865274Y-104697676D01*
X232871822Y-104695897D01*
X233205549Y-104585527D01*
X233211891Y-104583041D01*
X233531718Y-104437288D01*
X233537777Y-104434121D01*
X233839995Y-104254676D01*
X233845659Y-104250884D01*
X234126732Y-104039849D01*
X234131958Y-104035464D01*
X234141613Y-104026428D01*
X234149682Y-104012750D01*
X234149654Y-104012024D01*
X234144512Y-104003723D01*
X232012810Y-101872020D01*
X231998869Y-101864408D01*
X231997034Y-101864539D01*
X231990420Y-101868790D01*
X229856774Y-104002437D01*
X229849160Y-104016381D01*
X216938000Y-104016381D01*
X216938000Y-102702115D01*
X216933525Y-102686876D01*
X216932135Y-102685671D01*
X216924452Y-102684000D01*
X214952115Y-102684000D01*
X214936876Y-102688475D01*
X214935671Y-102689865D01*
X214934000Y-102697548D01*
X214934000Y-106406367D01*
X214426000Y-106406367D01*
X214426000Y-102702115D01*
X214421525Y-102686876D01*
X214420135Y-102685671D01*
X214412452Y-102684000D01*
X212440115Y-102684000D01*
X212424876Y-102688475D01*
X212423671Y-102689865D01*
X212422000Y-102697548D01*
X212422000Y-104253993D01*
X206778000Y-104253993D01*
X206778000Y-102702115D01*
X206773525Y-102686876D01*
X206772135Y-102685671D01*
X206764452Y-102684000D01*
X204792115Y-102684000D01*
X204776876Y-102688475D01*
X204775671Y-102689865D01*
X204774000Y-102697548D01*
X204774000Y-106406367D01*
X204266000Y-106406367D01*
X204266000Y-102702115D01*
X204261525Y-102686876D01*
X204260135Y-102685671D01*
X204252452Y-102684000D01*
X202280115Y-102684000D01*
X202264876Y-102688475D01*
X202263671Y-102689865D01*
X202262000Y-102697548D01*
X202262000Y-104253993D01*
X192635153Y-104253993D01*
X192637936Y-104192714D01*
X192638000Y-104189881D01*
X192638000Y-102602115D01*
X192633525Y-102586876D01*
X192632135Y-102585671D01*
X192624452Y-102584000D01*
X190652115Y-102584000D01*
X190636876Y-102588475D01*
X190635671Y-102589865D01*
X190634000Y-102597548D01*
X190634000Y-106306367D01*
X190126000Y-106306367D01*
X190126000Y-102602115D01*
X190121525Y-102586876D01*
X190120135Y-102585671D01*
X190112452Y-102584000D01*
X188140115Y-102584000D01*
X188124876Y-102588475D01*
X188123671Y-102589865D01*
X188122000Y-102597548D01*
X188122000Y-104153993D01*
X182478000Y-104153993D01*
X182478000Y-102602115D01*
X182473525Y-102586876D01*
X182472135Y-102585671D01*
X182464452Y-102584000D01*
X180492115Y-102584000D01*
X180476876Y-102588475D01*
X180475671Y-102589865D01*
X180474000Y-102597548D01*
X180474000Y-106306367D01*
X179966000Y-106306367D01*
X179966000Y-102602115D01*
X179961525Y-102586876D01*
X179960135Y-102585671D01*
X179952452Y-102584000D01*
X177980115Y-102584000D01*
X177964876Y-102588475D01*
X177963671Y-102589865D01*
X177962000Y-102597548D01*
X177962000Y-104153993D01*
X161974706Y-104153993D01*
X162126732Y-104039849D01*
X162131958Y-104035464D01*
X162141613Y-104026428D01*
X162149682Y-104012750D01*
X162149654Y-104012024D01*
X162144512Y-104003723D01*
X160012810Y-101872020D01*
X159998869Y-101864408D01*
X159997034Y-101864539D01*
X159990420Y-101868790D01*
X157856774Y-104002437D01*
X157849160Y-104016381D01*
X141458000Y-104016381D01*
X141458000Y-103522115D01*
X141453525Y-103506876D01*
X141452135Y-103505671D01*
X141444452Y-103504000D01*
X140422115Y-103504000D01*
X140406876Y-103508475D01*
X140405671Y-103509865D01*
X140404000Y-103517548D01*
X140404000Y-105717967D01*
X139896000Y-105717967D01*
X139896000Y-103522115D01*
X139891525Y-103506876D01*
X139890135Y-103505671D01*
X139882452Y-103504000D01*
X138860115Y-103504000D01*
X138844876Y-103508475D01*
X138843671Y-103509865D01*
X138842000Y-103517548D01*
X138842000Y-104504365D01*
X130508500Y-104504365D01*
X130508500Y-102977885D01*
X138842000Y-102977885D01*
X138846475Y-102993124D01*
X138847865Y-102994329D01*
X138855548Y-102996000D01*
X139877885Y-102996000D01*
X139893124Y-102991525D01*
X139894329Y-102990135D01*
X139896000Y-102982452D01*
X139896000Y-102977885D01*
X140404000Y-102977885D01*
X140408475Y-102993124D01*
X140409865Y-102994329D01*
X140417548Y-102996000D01*
X141439885Y-102996000D01*
X141455124Y-102991525D01*
X141456329Y-102990135D01*
X141458000Y-102982452D01*
X141458000Y-101995635D01*
X141457762Y-101990170D01*
X141443528Y-101827481D01*
X141441625Y-101816688D01*
X141385236Y-101606239D01*
X141381490Y-101595947D01*
X141332940Y-101491832D01*
X156687333Y-101491832D01*
X156705117Y-101842893D01*
X156705827Y-101849649D01*
X156761420Y-102196723D01*
X156762859Y-102203378D01*
X156855608Y-102542410D01*
X156857757Y-102548871D01*
X156986581Y-102875912D01*
X156989412Y-102882095D01*
X157152803Y-103193310D01*
X157156286Y-103199152D01*
X157352330Y-103490896D01*
X157356433Y-103496340D01*
X157476425Y-103638836D01*
X157489164Y-103647279D01*
X157499608Y-103641181D01*
X159627980Y-101512810D01*
X159634357Y-101501131D01*
X160364408Y-101501131D01*
X160364539Y-101502966D01*
X160368790Y-101509580D01*
X162499009Y-103639798D01*
X162512605Y-103647223D01*
X162522218Y-103640522D01*
X162622518Y-103523912D01*
X162626676Y-103518514D01*
X162825762Y-103228840D01*
X162829310Y-103223029D01*
X162995942Y-102913559D01*
X162998849Y-102907381D01*
X163131090Y-102581713D01*
X163133304Y-102575283D01*
X163229598Y-102237237D01*
X163231105Y-102230607D01*
X163243536Y-102157885D01*
X202262000Y-102157885D01*
X202266475Y-102173124D01*
X202267865Y-102174329D01*
X202275548Y-102176000D01*
X204247885Y-102176000D01*
X204263124Y-102171525D01*
X204264329Y-102170135D01*
X204266000Y-102162452D01*
X204266000Y-102157885D01*
X204774000Y-102157885D01*
X204778475Y-102173124D01*
X204779865Y-102174329D01*
X204787548Y-102176000D01*
X206759885Y-102176000D01*
X206775124Y-102171525D01*
X206776329Y-102170135D01*
X206778000Y-102162452D01*
X206778000Y-102157885D01*
X212422000Y-102157885D01*
X212426475Y-102173124D01*
X212427865Y-102174329D01*
X212435548Y-102176000D01*
X214407885Y-102176000D01*
X214423124Y-102171525D01*
X214424329Y-102170135D01*
X214426000Y-102162452D01*
X214426000Y-102157885D01*
X214934000Y-102157885D01*
X214938475Y-102173124D01*
X214939865Y-102174329D01*
X214947548Y-102176000D01*
X216919885Y-102176000D01*
X216935124Y-102171525D01*
X216936329Y-102170135D01*
X216938000Y-102162452D01*
X216938000Y-101491832D01*
X228687333Y-101491832D01*
X228705117Y-101842893D01*
X228705827Y-101849649D01*
X228761420Y-102196723D01*
X228762859Y-102203378D01*
X228855608Y-102542410D01*
X228857757Y-102548871D01*
X228986581Y-102875912D01*
X228989412Y-102882095D01*
X229152803Y-103193310D01*
X229156286Y-103199152D01*
X229352330Y-103490896D01*
X229356433Y-103496340D01*
X229476425Y-103638836D01*
X229489164Y-103647279D01*
X229499608Y-103641181D01*
X231627980Y-101512810D01*
X231634357Y-101501131D01*
X232364408Y-101501131D01*
X232364539Y-101502966D01*
X232368790Y-101509580D01*
X234499009Y-103639798D01*
X234512605Y-103647223D01*
X234522218Y-103640522D01*
X234622518Y-103523912D01*
X234626676Y-103518514D01*
X234825762Y-103228840D01*
X234829310Y-103223029D01*
X234995942Y-102913559D01*
X234998849Y-102907381D01*
X235131090Y-102581713D01*
X235133304Y-102575283D01*
X235229598Y-102237237D01*
X235231105Y-102230607D01*
X235290332Y-101884118D01*
X235291112Y-101877378D01*
X235312668Y-101524925D01*
X235312784Y-101521323D01*
X235312853Y-101501819D01*
X235312761Y-101498194D01*
X235293666Y-101145615D01*
X235292931Y-101138849D01*
X235269441Y-100995406D01*
X242515423Y-100995406D01*
X242520704Y-101002461D01*
X242697080Y-101105527D01*
X242706363Y-101109974D01*
X242913003Y-101188883D01*
X242922901Y-101191759D01*
X243139653Y-101235857D01*
X243149883Y-101237076D01*
X243370914Y-101245182D01*
X243381223Y-101244714D01*
X243600623Y-101216608D01*
X243610688Y-101214468D01*
X243822557Y-101150905D01*
X243832152Y-101147144D01*
X244030778Y-101049838D01*
X244039636Y-101044559D01*
X244097097Y-101003572D01*
X244105497Y-100992874D01*
X244098510Y-100979721D01*
X243324811Y-100206021D01*
X243310868Y-100198408D01*
X243309034Y-100198539D01*
X243302420Y-100202790D01*
X242522180Y-100983031D01*
X242515423Y-100995406D01*
X235269441Y-100995406D01*
X235236130Y-100791985D01*
X235234663Y-100785313D01*
X235140736Y-100446627D01*
X235138562Y-100440163D01*
X235008598Y-100113578D01*
X235005742Y-100107398D01*
X234845439Y-99804638D01*
X241899893Y-99804638D01*
X241912627Y-100025468D01*
X241914061Y-100035670D01*
X241962685Y-100251439D01*
X241965773Y-100261292D01*
X242048986Y-100466220D01*
X242053634Y-100475421D01*
X242142097Y-100619781D01*
X242152553Y-100629242D01*
X242161331Y-100625458D01*
X242939979Y-99846811D01*
X242946356Y-99835132D01*
X243676408Y-99835132D01*
X243676539Y-99836966D01*
X243680790Y-99843580D01*
X244458307Y-100621096D01*
X244470313Y-100627652D01*
X244482052Y-100618684D01*
X244520010Y-100565859D01*
X244525321Y-100557020D01*
X244623318Y-100358737D01*
X244627117Y-100349142D01*
X244691415Y-100137517D01*
X244693594Y-100127436D01*
X244722702Y-99906338D01*
X244723221Y-99899663D01*
X244724744Y-99837364D01*
X244724550Y-99830646D01*
X244706279Y-99608400D01*
X244704596Y-99598238D01*
X244650710Y-99383708D01*
X244647389Y-99373953D01*
X244559193Y-99171118D01*
X244554315Y-99162020D01*
X244481224Y-99049038D01*
X244470538Y-99039835D01*
X244460973Y-99044238D01*
X243684021Y-99821189D01*
X243676408Y-99835132D01*
X242946356Y-99835132D01*
X242947592Y-99832868D01*
X242947461Y-99831034D01*
X242943210Y-99824420D01*
X242165862Y-99047073D01*
X242154330Y-99040776D01*
X242142048Y-99050399D01*
X242086467Y-99131877D01*
X242081379Y-99140833D01*
X241988252Y-99341459D01*
X241984689Y-99351146D01*
X241925581Y-99564280D01*
X241923650Y-99574400D01*
X241900145Y-99794349D01*
X241899893Y-99804638D01*
X234845439Y-99804638D01*
X234841269Y-99796763D01*
X234837769Y-99790937D01*
X234640697Y-99499862D01*
X234636590Y-99494453D01*
X234523565Y-99361179D01*
X234510740Y-99352743D01*
X234500416Y-99358795D01*
X232372020Y-101487190D01*
X232364408Y-101501131D01*
X231634357Y-101501131D01*
X231635592Y-101498869D01*
X231635461Y-101497034D01*
X231631210Y-101490420D01*
X229500992Y-99360203D01*
X229487455Y-99352811D01*
X229477753Y-99359599D01*
X229370430Y-99485257D01*
X229366296Y-99490664D01*
X229168215Y-99781041D01*
X229164697Y-99786851D01*
X228999134Y-100096922D01*
X228996259Y-100103087D01*
X228865155Y-100429218D01*
X228862962Y-100435658D01*
X228767846Y-100774044D01*
X228766363Y-100780679D01*
X228708350Y-101127354D01*
X228707591Y-101134126D01*
X228687357Y-101485037D01*
X228687333Y-101491832D01*
X216938000Y-101491832D01*
X216938000Y-100606007D01*
X216937861Y-100601818D01*
X216923451Y-100384868D01*
X216922347Y-100376597D01*
X216864710Y-100090749D01*
X216862522Y-100082697D01*
X216767591Y-99806995D01*
X216764350Y-99799284D01*
X216633787Y-99538556D01*
X216629566Y-99531362D01*
X216465659Y-99290180D01*
X216460526Y-99283610D01*
X216266161Y-99066225D01*
X216260205Y-99060392D01*
X216174416Y-98986862D01*
X229849950Y-98986862D01*
X229849986Y-98987704D01*
X229855037Y-98995826D01*
X231987190Y-101127980D01*
X232001131Y-101135592D01*
X232002966Y-101135461D01*
X232009580Y-101131210D01*
X234142798Y-98997991D01*
X234150412Y-98984047D01*
X234150344Y-98983089D01*
X234145836Y-98976272D01*
X234144418Y-98975065D01*
X233864813Y-98762064D01*
X233859187Y-98758240D01*
X233720720Y-98674711D01*
X242517508Y-98674711D01*
X242524251Y-98687040D01*
X243299189Y-99461979D01*
X243313132Y-99469592D01*
X243314966Y-99469461D01*
X243321580Y-99465210D01*
X244100994Y-98685795D01*
X244108011Y-98672944D01*
X244100237Y-98662274D01*
X244097902Y-98660430D01*
X244089320Y-98654729D01*
X243895678Y-98547833D01*
X243886272Y-98543606D01*
X243677772Y-98469772D01*
X243667809Y-98467140D01*
X243450047Y-98428350D01*
X243439796Y-98427381D01*
X243218616Y-98424679D01*
X243208332Y-98425399D01*
X242989693Y-98458855D01*
X242979666Y-98461244D01*
X242769426Y-98529961D01*
X242759916Y-98533958D01*
X242563725Y-98636089D01*
X242555007Y-98641578D01*
X242525961Y-98663386D01*
X242517508Y-98674711D01*
X233720720Y-98674711D01*
X233558214Y-98576681D01*
X233552202Y-98573484D01*
X233233370Y-98425487D01*
X233227070Y-98422967D01*
X232894129Y-98310273D01*
X232887551Y-98308437D01*
X232544417Y-98232367D01*
X232537678Y-98231251D01*
X232188310Y-98192680D01*
X232181529Y-98192301D01*
X231830015Y-98191687D01*
X231823242Y-98192042D01*
X231473720Y-98229395D01*
X231467010Y-98230482D01*
X231123586Y-98305361D01*
X231117011Y-98307172D01*
X230783683Y-98418702D01*
X230777361Y-98421205D01*
X230458034Y-98568079D01*
X230451991Y-98571265D01*
X230150401Y-98751763D01*
X230144755Y-98755571D01*
X229864408Y-98967596D01*
X229859211Y-98971987D01*
X229857972Y-98973155D01*
X229849950Y-98986862D01*
X216174416Y-98986862D01*
X216038797Y-98870622D01*
X216032116Y-98865624D01*
X215787563Y-98706809D01*
X215780273Y-98702735D01*
X215516868Y-98577662D01*
X215509100Y-98574586D01*
X215231469Y-98485448D01*
X215223363Y-98483427D01*
X214951830Y-98434571D01*
X214938571Y-98436003D01*
X214934000Y-98450613D01*
X214934000Y-102157885D01*
X214426000Y-102157885D01*
X214426000Y-98453633D01*
X214421705Y-98439004D01*
X214409728Y-98436942D01*
X214337947Y-98443222D01*
X214329708Y-98444497D01*
X214045120Y-98508110D01*
X214037123Y-98510464D01*
X213763466Y-98611150D01*
X213755828Y-98614550D01*
X213497885Y-98750549D01*
X213490787Y-98754916D01*
X213253095Y-98923835D01*
X213246628Y-98929108D01*
X213033361Y-99127983D01*
X213027649Y-99134067D01*
X212842563Y-99359393D01*
X212837708Y-99366174D01*
X212684042Y-99614013D01*
X212680129Y-99621373D01*
X212560596Y-99887346D01*
X212557686Y-99895169D01*
X212474376Y-100174625D01*
X212472531Y-100182746D01*
X212426809Y-100471429D01*
X212426101Y-100478403D01*
X212422064Y-100567286D01*
X212422000Y-100570119D01*
X212422000Y-102157885D01*
X206778000Y-102157885D01*
X206778000Y-100606007D01*
X206777861Y-100601818D01*
X206763451Y-100384868D01*
X206762347Y-100376597D01*
X206704710Y-100090749D01*
X206702522Y-100082697D01*
X206607591Y-99806995D01*
X206604350Y-99799284D01*
X206473787Y-99538556D01*
X206469566Y-99531362D01*
X206305659Y-99290180D01*
X206300526Y-99283610D01*
X206106161Y-99066225D01*
X206100205Y-99060392D01*
X205878797Y-98870622D01*
X205872116Y-98865624D01*
X205627563Y-98706809D01*
X205620273Y-98702735D01*
X205356868Y-98577662D01*
X205349100Y-98574586D01*
X205071469Y-98485448D01*
X205063363Y-98483427D01*
X204791830Y-98434571D01*
X204778571Y-98436003D01*
X204774000Y-98450613D01*
X204774000Y-102157885D01*
X204266000Y-102157885D01*
X204266000Y-98453633D01*
X204261705Y-98439004D01*
X204249728Y-98436942D01*
X204177947Y-98443222D01*
X204169708Y-98444497D01*
X203885120Y-98508110D01*
X203877123Y-98510464D01*
X203603466Y-98611150D01*
X203595828Y-98614550D01*
X203337885Y-98750549D01*
X203330787Y-98754916D01*
X203093095Y-98923835D01*
X203086628Y-98929108D01*
X202873361Y-99127983D01*
X202867649Y-99134067D01*
X202682563Y-99359393D01*
X202677708Y-99366174D01*
X202524042Y-99614013D01*
X202520129Y-99621373D01*
X202400596Y-99887346D01*
X202397686Y-99895169D01*
X202314376Y-100174625D01*
X202312531Y-100182746D01*
X202266809Y-100471429D01*
X202266101Y-100478403D01*
X202262064Y-100567286D01*
X202262000Y-100570119D01*
X202262000Y-102157885D01*
X163243536Y-102157885D01*
X163260629Y-102057885D01*
X177962000Y-102057885D01*
X177966475Y-102073124D01*
X177967865Y-102074329D01*
X177975548Y-102076000D01*
X179947885Y-102076000D01*
X179963124Y-102071525D01*
X179964329Y-102070135D01*
X179966000Y-102062452D01*
X179966000Y-102057885D01*
X180474000Y-102057885D01*
X180478475Y-102073124D01*
X180479865Y-102074329D01*
X180487548Y-102076000D01*
X182459885Y-102076000D01*
X182475124Y-102071525D01*
X182476329Y-102070135D01*
X182478000Y-102062452D01*
X182478000Y-102057885D01*
X188122000Y-102057885D01*
X188126475Y-102073124D01*
X188127865Y-102074329D01*
X188135548Y-102076000D01*
X190107885Y-102076000D01*
X190123124Y-102071525D01*
X190124329Y-102070135D01*
X190126000Y-102062452D01*
X190126000Y-102057885D01*
X190634000Y-102057885D01*
X190638475Y-102073124D01*
X190639865Y-102074329D01*
X190647548Y-102076000D01*
X192619885Y-102076000D01*
X192635124Y-102071525D01*
X192636329Y-102070135D01*
X192638000Y-102062452D01*
X192638000Y-100506007D01*
X192637861Y-100501818D01*
X192623451Y-100284868D01*
X192622347Y-100276597D01*
X192564710Y-99990749D01*
X192562522Y-99982697D01*
X192467591Y-99706995D01*
X192464350Y-99699284D01*
X192333787Y-99438556D01*
X192329566Y-99431362D01*
X192165659Y-99190180D01*
X192160526Y-99183610D01*
X191966161Y-98966225D01*
X191960205Y-98960392D01*
X191738797Y-98770622D01*
X191732116Y-98765624D01*
X191487563Y-98606809D01*
X191480273Y-98602735D01*
X191216868Y-98477662D01*
X191209100Y-98474586D01*
X190931469Y-98385448D01*
X190923363Y-98383427D01*
X190651830Y-98334571D01*
X190638571Y-98336003D01*
X190634000Y-98350613D01*
X190634000Y-102057885D01*
X190126000Y-102057885D01*
X190126000Y-98353633D01*
X190121705Y-98339004D01*
X190109728Y-98336942D01*
X190037947Y-98343222D01*
X190029708Y-98344497D01*
X189745120Y-98408110D01*
X189737123Y-98410464D01*
X189463466Y-98511150D01*
X189455828Y-98514550D01*
X189197885Y-98650549D01*
X189190787Y-98654916D01*
X188953095Y-98823835D01*
X188946628Y-98829108D01*
X188733361Y-99027983D01*
X188727649Y-99034067D01*
X188542563Y-99259393D01*
X188537708Y-99266174D01*
X188384042Y-99514013D01*
X188380129Y-99521373D01*
X188260596Y-99787346D01*
X188257686Y-99795169D01*
X188174376Y-100074625D01*
X188172531Y-100082746D01*
X188126809Y-100371429D01*
X188126101Y-100378403D01*
X188122064Y-100467286D01*
X188122000Y-100470119D01*
X188122000Y-102057885D01*
X182478000Y-102057885D01*
X182478000Y-100506007D01*
X182477861Y-100501818D01*
X182463451Y-100284868D01*
X182462347Y-100276597D01*
X182404710Y-99990749D01*
X182402522Y-99982697D01*
X182307591Y-99706995D01*
X182304350Y-99699284D01*
X182173787Y-99438556D01*
X182169566Y-99431362D01*
X182005659Y-99190180D01*
X182000526Y-99183610D01*
X181806161Y-98966225D01*
X181800205Y-98960392D01*
X181578797Y-98770622D01*
X181572116Y-98765624D01*
X181327563Y-98606809D01*
X181320273Y-98602735D01*
X181056868Y-98477662D01*
X181049100Y-98474586D01*
X180771469Y-98385448D01*
X180763363Y-98383427D01*
X180491830Y-98334571D01*
X180478571Y-98336003D01*
X180474000Y-98350613D01*
X180474000Y-102057885D01*
X179966000Y-102057885D01*
X179966000Y-98353633D01*
X179961705Y-98339004D01*
X179949728Y-98336942D01*
X179877947Y-98343222D01*
X179869708Y-98344497D01*
X179585120Y-98408110D01*
X179577123Y-98410464D01*
X179303466Y-98511150D01*
X179295828Y-98514550D01*
X179037885Y-98650549D01*
X179030787Y-98654916D01*
X178793095Y-98823835D01*
X178786628Y-98829108D01*
X178573361Y-99027983D01*
X178567649Y-99034067D01*
X178382563Y-99259393D01*
X178377708Y-99266174D01*
X178224042Y-99514013D01*
X178220129Y-99521373D01*
X178100596Y-99787346D01*
X178097686Y-99795169D01*
X178014376Y-100074625D01*
X178012531Y-100082746D01*
X177966809Y-100371429D01*
X177966101Y-100378403D01*
X177962064Y-100467286D01*
X177962000Y-100470119D01*
X177962000Y-102057885D01*
X163260629Y-102057885D01*
X163290332Y-101884118D01*
X163291112Y-101877378D01*
X163312668Y-101524925D01*
X163312784Y-101521323D01*
X163312853Y-101501819D01*
X163312761Y-101498194D01*
X163293666Y-101145615D01*
X163292931Y-101138849D01*
X163236130Y-100791985D01*
X163234663Y-100785313D01*
X163140736Y-100446627D01*
X163138562Y-100440163D01*
X163008598Y-100113578D01*
X163005742Y-100107398D01*
X162841269Y-99796763D01*
X162837769Y-99790937D01*
X162640697Y-99499862D01*
X162636590Y-99494453D01*
X162523565Y-99361179D01*
X162510740Y-99352743D01*
X162500416Y-99358795D01*
X160372020Y-101487190D01*
X160364408Y-101501131D01*
X159634357Y-101501131D01*
X159635592Y-101498869D01*
X159635461Y-101497034D01*
X159631210Y-101490420D01*
X157500992Y-99360203D01*
X157487455Y-99352811D01*
X157477753Y-99359599D01*
X157370430Y-99485257D01*
X157366296Y-99490664D01*
X157168215Y-99781041D01*
X157164697Y-99786851D01*
X156999134Y-100096922D01*
X156996259Y-100103087D01*
X156865155Y-100429218D01*
X156862962Y-100435658D01*
X156767846Y-100774044D01*
X156766363Y-100780679D01*
X156708350Y-101127354D01*
X156707591Y-101134126D01*
X156687357Y-101485037D01*
X156687333Y-101491832D01*
X141332940Y-101491832D01*
X141289414Y-101398489D01*
X141283931Y-101388993D01*
X141158972Y-101210533D01*
X141151916Y-101202125D01*
X140997875Y-101048084D01*
X140989467Y-101041028D01*
X140811007Y-100916069D01*
X140801511Y-100910586D01*
X140604053Y-100818510D01*
X140593761Y-100814764D01*
X140421497Y-100768606D01*
X140407401Y-100768942D01*
X140404000Y-100776884D01*
X140404000Y-102977885D01*
X139896000Y-102977885D01*
X139896000Y-100782033D01*
X139892027Y-100768502D01*
X139883478Y-100767273D01*
X139706239Y-100814764D01*
X139695947Y-100818510D01*
X139498489Y-100910586D01*
X139488993Y-100916069D01*
X139310533Y-101041028D01*
X139302125Y-101048084D01*
X139148084Y-101202125D01*
X139141028Y-101210533D01*
X139016069Y-101388993D01*
X139010586Y-101398489D01*
X138918510Y-101595947D01*
X138914764Y-101606239D01*
X138858375Y-101816688D01*
X138856472Y-101827481D01*
X138842238Y-101990170D01*
X138842000Y-101995635D01*
X138842000Y-102977885D01*
X130508500Y-102977885D01*
X130508500Y-100250000D01*
X132936502Y-100250000D01*
X132956457Y-100478087D01*
X132957881Y-100483400D01*
X132957881Y-100483402D01*
X132979976Y-100565859D01*
X133015716Y-100699243D01*
X133018039Y-100704224D01*
X133018039Y-100704225D01*
X133110151Y-100901762D01*
X133110154Y-100901767D01*
X133112477Y-100906749D01*
X133243802Y-101094300D01*
X133405700Y-101256198D01*
X133410208Y-101259355D01*
X133410211Y-101259357D01*
X133488389Y-101314098D01*
X133593251Y-101387523D01*
X133598233Y-101389846D01*
X133598238Y-101389849D01*
X133795775Y-101481961D01*
X133800757Y-101484284D01*
X133806065Y-101485706D01*
X133806067Y-101485707D01*
X134016598Y-101542119D01*
X134016600Y-101542119D01*
X134021913Y-101543543D01*
X134121480Y-101552254D01*
X134190149Y-101558262D01*
X134190156Y-101558262D01*
X134192873Y-101558500D01*
X136707127Y-101558500D01*
X136709844Y-101558262D01*
X136709851Y-101558262D01*
X136778520Y-101552254D01*
X136878087Y-101543543D01*
X136883400Y-101542119D01*
X136883402Y-101542119D01*
X137093933Y-101485707D01*
X137093935Y-101485706D01*
X137099243Y-101484284D01*
X137104225Y-101481961D01*
X137301762Y-101389849D01*
X137301767Y-101389846D01*
X137306749Y-101387523D01*
X137411611Y-101314098D01*
X137489789Y-101259357D01*
X137489792Y-101259355D01*
X137494300Y-101256198D01*
X137656198Y-101094300D01*
X137787523Y-100906749D01*
X137789846Y-100901767D01*
X137789849Y-100901762D01*
X137881961Y-100704225D01*
X137881961Y-100704224D01*
X137884284Y-100699243D01*
X137920025Y-100565859D01*
X137942119Y-100483402D01*
X137942119Y-100483400D01*
X137943543Y-100478087D01*
X137963498Y-100250000D01*
X137943543Y-100021913D01*
X137896624Y-99846811D01*
X137885707Y-99806067D01*
X137885706Y-99806065D01*
X137884284Y-99800757D01*
X137879705Y-99790937D01*
X137789849Y-99598238D01*
X137789846Y-99598233D01*
X137787523Y-99593251D01*
X137700844Y-99469461D01*
X137659357Y-99410211D01*
X137659355Y-99410208D01*
X137656198Y-99405700D01*
X137494300Y-99243802D01*
X137489792Y-99240645D01*
X137489789Y-99240643D01*
X137390497Y-99171118D01*
X137306749Y-99112477D01*
X137301767Y-99110154D01*
X137301762Y-99110151D01*
X137104225Y-99018039D01*
X137104224Y-99018039D01*
X137099243Y-99015716D01*
X137093935Y-99014294D01*
X137093933Y-99014293D01*
X136991560Y-98986862D01*
X157849950Y-98986862D01*
X157849986Y-98987704D01*
X157855037Y-98995826D01*
X159987190Y-101127980D01*
X160001131Y-101135592D01*
X160002966Y-101135461D01*
X160009580Y-101131210D01*
X162142798Y-98997991D01*
X162150412Y-98984047D01*
X162150344Y-98983089D01*
X162145836Y-98976272D01*
X162144418Y-98975065D01*
X161864813Y-98762064D01*
X161859187Y-98758240D01*
X161558214Y-98576681D01*
X161552202Y-98573484D01*
X161233370Y-98425487D01*
X161227070Y-98422967D01*
X160894129Y-98310273D01*
X160887551Y-98308437D01*
X160544417Y-98232367D01*
X160537678Y-98231251D01*
X160188310Y-98192680D01*
X160181529Y-98192301D01*
X159830015Y-98191687D01*
X159823242Y-98192042D01*
X159473720Y-98229395D01*
X159467010Y-98230482D01*
X159123586Y-98305361D01*
X159117011Y-98307172D01*
X158783683Y-98418702D01*
X158777361Y-98421205D01*
X158458034Y-98568079D01*
X158451991Y-98571265D01*
X158150401Y-98751763D01*
X158144755Y-98755571D01*
X157864408Y-98967596D01*
X157859211Y-98971987D01*
X157857972Y-98973155D01*
X157849950Y-98986862D01*
X136991560Y-98986862D01*
X136883402Y-98957881D01*
X136883400Y-98957881D01*
X136878087Y-98956457D01*
X136778520Y-98947746D01*
X136709851Y-98941738D01*
X136709844Y-98941738D01*
X136707127Y-98941500D01*
X134192873Y-98941500D01*
X134190156Y-98941738D01*
X134190149Y-98941738D01*
X134121480Y-98947746D01*
X134021913Y-98956457D01*
X134016600Y-98957881D01*
X134016598Y-98957881D01*
X133806067Y-99014293D01*
X133806065Y-99014294D01*
X133800757Y-99015716D01*
X133795776Y-99018039D01*
X133795775Y-99018039D01*
X133598238Y-99110151D01*
X133598233Y-99110154D01*
X133593251Y-99112477D01*
X133509503Y-99171118D01*
X133410211Y-99240643D01*
X133410208Y-99240645D01*
X133405700Y-99243802D01*
X133243802Y-99405700D01*
X133240645Y-99410208D01*
X133240643Y-99410211D01*
X133199156Y-99469461D01*
X133112477Y-99593251D01*
X133110154Y-99598233D01*
X133110151Y-99598238D01*
X133020295Y-99790937D01*
X133015716Y-99800757D01*
X133014294Y-99806065D01*
X133014293Y-99806067D01*
X133003376Y-99846811D01*
X132956457Y-100021913D01*
X132936502Y-100250000D01*
X130508500Y-100250000D01*
X130508500Y-97757127D01*
X183991500Y-97757127D01*
X184006457Y-97928087D01*
X184065716Y-98149243D01*
X184068039Y-98154224D01*
X184068039Y-98154225D01*
X184160151Y-98351762D01*
X184160154Y-98351767D01*
X184162477Y-98356749D01*
X184235902Y-98461611D01*
X184283762Y-98529961D01*
X184293802Y-98544300D01*
X184455700Y-98706198D01*
X184460208Y-98709355D01*
X184460211Y-98709357D01*
X184520773Y-98751763D01*
X184643251Y-98837523D01*
X184648233Y-98839846D01*
X184648238Y-98839849D01*
X184828349Y-98923835D01*
X184850757Y-98934284D01*
X184856065Y-98935706D01*
X184856067Y-98935707D01*
X185066598Y-98992119D01*
X185066600Y-98992119D01*
X185071913Y-98993543D01*
X185300000Y-99013498D01*
X185528087Y-98993543D01*
X185533400Y-98992119D01*
X185533402Y-98992119D01*
X185743933Y-98935707D01*
X185743935Y-98935706D01*
X185749243Y-98934284D01*
X185771651Y-98923835D01*
X185951762Y-98839849D01*
X185951767Y-98839846D01*
X185956749Y-98837523D01*
X186079227Y-98751763D01*
X186139789Y-98709357D01*
X186139792Y-98709355D01*
X186144300Y-98706198D01*
X186306198Y-98544300D01*
X186316239Y-98529961D01*
X186364098Y-98461611D01*
X186437523Y-98356749D01*
X186439846Y-98351767D01*
X186439849Y-98351762D01*
X186456081Y-98316951D01*
X186502998Y-98263666D01*
X186571275Y-98244205D01*
X186639235Y-98264747D01*
X186684471Y-98316951D01*
X186700586Y-98351511D01*
X186706069Y-98361007D01*
X186831028Y-98539467D01*
X186838084Y-98547875D01*
X186992125Y-98701916D01*
X187000533Y-98708972D01*
X187178993Y-98833931D01*
X187188489Y-98839414D01*
X187385947Y-98931490D01*
X187396239Y-98935236D01*
X187568503Y-98981394D01*
X187582599Y-98981058D01*
X187586000Y-98973116D01*
X187586000Y-98967967D01*
X188094000Y-98967967D01*
X188097973Y-98981498D01*
X188106522Y-98982727D01*
X188283761Y-98935236D01*
X188294053Y-98931490D01*
X188491511Y-98839414D01*
X188501007Y-98833931D01*
X188679467Y-98708972D01*
X188687875Y-98701916D01*
X188841916Y-98547875D01*
X188848972Y-98539467D01*
X188973931Y-98361007D01*
X188979414Y-98351511D01*
X189071490Y-98154053D01*
X189075236Y-98143761D01*
X189131625Y-97933312D01*
X189133528Y-97922519D01*
X189139249Y-97857127D01*
X208291500Y-97857127D01*
X208306457Y-98028087D01*
X208365716Y-98249243D01*
X208368039Y-98254224D01*
X208368039Y-98254225D01*
X208460151Y-98451762D01*
X208460154Y-98451767D01*
X208462477Y-98456749D01*
X208520397Y-98539467D01*
X208588053Y-98636089D01*
X208593802Y-98644300D01*
X208755700Y-98806198D01*
X208760208Y-98809355D01*
X208760211Y-98809357D01*
X208803137Y-98839414D01*
X208943251Y-98937523D01*
X208948233Y-98939846D01*
X208948238Y-98939849D01*
X209115919Y-99018039D01*
X209150757Y-99034284D01*
X209156065Y-99035706D01*
X209156067Y-99035707D01*
X209366598Y-99092119D01*
X209366600Y-99092119D01*
X209371913Y-99093543D01*
X209600000Y-99113498D01*
X209828087Y-99093543D01*
X209833400Y-99092119D01*
X209833402Y-99092119D01*
X210043933Y-99035707D01*
X210043935Y-99035706D01*
X210049243Y-99034284D01*
X210084081Y-99018039D01*
X210251762Y-98939849D01*
X210251767Y-98939846D01*
X210256749Y-98937523D01*
X210396863Y-98839414D01*
X210439789Y-98809357D01*
X210439792Y-98809355D01*
X210444300Y-98806198D01*
X210606198Y-98644300D01*
X210611948Y-98636089D01*
X210679603Y-98539467D01*
X210737523Y-98456749D01*
X210739846Y-98451767D01*
X210739849Y-98451762D01*
X210756081Y-98416951D01*
X210802998Y-98363666D01*
X210871275Y-98344205D01*
X210939235Y-98364747D01*
X210984471Y-98416951D01*
X211000586Y-98451511D01*
X211006069Y-98461007D01*
X211131028Y-98639467D01*
X211138084Y-98647875D01*
X211292125Y-98801916D01*
X211300533Y-98808972D01*
X211478993Y-98933931D01*
X211488489Y-98939414D01*
X211685947Y-99031490D01*
X211696239Y-99035236D01*
X211868503Y-99081394D01*
X211882599Y-99081058D01*
X211886000Y-99073116D01*
X211886000Y-99067967D01*
X212394000Y-99067967D01*
X212397973Y-99081498D01*
X212406522Y-99082727D01*
X212583761Y-99035236D01*
X212594053Y-99031490D01*
X212791511Y-98939414D01*
X212801007Y-98933931D01*
X212979467Y-98808972D01*
X212987875Y-98801916D01*
X213141916Y-98647875D01*
X213148972Y-98639467D01*
X213273931Y-98461007D01*
X213279414Y-98451511D01*
X213371490Y-98254053D01*
X213375236Y-98243761D01*
X213431625Y-98033312D01*
X213433528Y-98022519D01*
X213447762Y-97859830D01*
X213448000Y-97854365D01*
X213448000Y-97622115D01*
X213443525Y-97606876D01*
X213442135Y-97605671D01*
X213434452Y-97604000D01*
X212412115Y-97604000D01*
X212396876Y-97608475D01*
X212395671Y-97609865D01*
X212394000Y-97617548D01*
X212394000Y-99067967D01*
X211886000Y-99067967D01*
X211886000Y-97077885D01*
X212394000Y-97077885D01*
X212398475Y-97093124D01*
X212399865Y-97094329D01*
X212407548Y-97096000D01*
X213429885Y-97096000D01*
X213445124Y-97091525D01*
X213446329Y-97090135D01*
X213448000Y-97082452D01*
X213448000Y-96845635D01*
X213447762Y-96840170D01*
X213433528Y-96677481D01*
X213431625Y-96666688D01*
X213375236Y-96456239D01*
X213371490Y-96445947D01*
X213279414Y-96248489D01*
X213273931Y-96238993D01*
X213148972Y-96060533D01*
X213141916Y-96052125D01*
X212987875Y-95898084D01*
X212979467Y-95891028D01*
X212801007Y-95766069D01*
X212791511Y-95760586D01*
X212594053Y-95668510D01*
X212583761Y-95664764D01*
X212411497Y-95618606D01*
X212397401Y-95618942D01*
X212394000Y-95626884D01*
X212394000Y-97077885D01*
X211886000Y-97077885D01*
X211886000Y-95632033D01*
X211882027Y-95618502D01*
X211873478Y-95617273D01*
X211696239Y-95664764D01*
X211685947Y-95668510D01*
X211488489Y-95760586D01*
X211478993Y-95766069D01*
X211300533Y-95891028D01*
X211292125Y-95898084D01*
X211138084Y-96052125D01*
X211131028Y-96060533D01*
X211006069Y-96238993D01*
X211000586Y-96248489D01*
X210984471Y-96283049D01*
X210937554Y-96336334D01*
X210869277Y-96355795D01*
X210801317Y-96335253D01*
X210756081Y-96283049D01*
X210739849Y-96248238D01*
X210739846Y-96248233D01*
X210737523Y-96243251D01*
X210606198Y-96055700D01*
X210444300Y-95893802D01*
X210439792Y-95890645D01*
X210439789Y-95890643D01*
X210307051Y-95797699D01*
X210256749Y-95762477D01*
X210251767Y-95760154D01*
X210251762Y-95760151D01*
X210054225Y-95668039D01*
X210054224Y-95668039D01*
X210049243Y-95665716D01*
X210043935Y-95664294D01*
X210043933Y-95664293D01*
X209833402Y-95607881D01*
X209833400Y-95607881D01*
X209828087Y-95606457D01*
X209600000Y-95586502D01*
X209371913Y-95606457D01*
X209366600Y-95607881D01*
X209366598Y-95607881D01*
X209156067Y-95664293D01*
X209156065Y-95664294D01*
X209150757Y-95665716D01*
X209145776Y-95668039D01*
X209145775Y-95668039D01*
X208948238Y-95760151D01*
X208948233Y-95760154D01*
X208943251Y-95762477D01*
X208892949Y-95797699D01*
X208760211Y-95890643D01*
X208760208Y-95890645D01*
X208755700Y-95893802D01*
X208593802Y-96055700D01*
X208462477Y-96243251D01*
X208460154Y-96248233D01*
X208460151Y-96248238D01*
X208414589Y-96345947D01*
X208365716Y-96450757D01*
X208306457Y-96671913D01*
X208291500Y-96842873D01*
X208291500Y-97857127D01*
X189139249Y-97857127D01*
X189147762Y-97759830D01*
X189148000Y-97754365D01*
X189148000Y-97522115D01*
X189143525Y-97506876D01*
X189142135Y-97505671D01*
X189134452Y-97504000D01*
X188112115Y-97504000D01*
X188096876Y-97508475D01*
X188095671Y-97509865D01*
X188094000Y-97517548D01*
X188094000Y-98967967D01*
X187586000Y-98967967D01*
X187586000Y-96977885D01*
X188094000Y-96977885D01*
X188098475Y-96993124D01*
X188099865Y-96994329D01*
X188107548Y-96996000D01*
X189129885Y-96996000D01*
X189145124Y-96991525D01*
X189146329Y-96990135D01*
X189148000Y-96982452D01*
X189148000Y-96745635D01*
X189147762Y-96740170D01*
X189133528Y-96577481D01*
X189131625Y-96566688D01*
X189075236Y-96356239D01*
X189071490Y-96345947D01*
X188979414Y-96148489D01*
X188973931Y-96138993D01*
X188848972Y-95960533D01*
X188841916Y-95952125D01*
X188687875Y-95798084D01*
X188679467Y-95791028D01*
X188501007Y-95666069D01*
X188491511Y-95660586D01*
X188294053Y-95568510D01*
X188283761Y-95564764D01*
X188111497Y-95518606D01*
X188097401Y-95518942D01*
X188094000Y-95526884D01*
X188094000Y-96977885D01*
X187586000Y-96977885D01*
X187586000Y-95532033D01*
X187582027Y-95518502D01*
X187573478Y-95517273D01*
X187396239Y-95564764D01*
X187385947Y-95568510D01*
X187188489Y-95660586D01*
X187178993Y-95666069D01*
X187000533Y-95791028D01*
X186992125Y-95798084D01*
X186838084Y-95952125D01*
X186831028Y-95960533D01*
X186706069Y-96138993D01*
X186700586Y-96148489D01*
X186684471Y-96183049D01*
X186637554Y-96236334D01*
X186569277Y-96255795D01*
X186501317Y-96235253D01*
X186456081Y-96183049D01*
X186439849Y-96148238D01*
X186439846Y-96148233D01*
X186437523Y-96143251D01*
X186306198Y-95955700D01*
X186144300Y-95793802D01*
X186139792Y-95790645D01*
X186139789Y-95790643D01*
X186061611Y-95735902D01*
X185956749Y-95662477D01*
X185951767Y-95660154D01*
X185951762Y-95660151D01*
X185754225Y-95568039D01*
X185754224Y-95568039D01*
X185749243Y-95565716D01*
X185743935Y-95564294D01*
X185743933Y-95564293D01*
X185533402Y-95507881D01*
X185533400Y-95507881D01*
X185528087Y-95506457D01*
X185300000Y-95486502D01*
X185071913Y-95506457D01*
X185066600Y-95507881D01*
X185066598Y-95507881D01*
X184856067Y-95564293D01*
X184856065Y-95564294D01*
X184850757Y-95565716D01*
X184845776Y-95568039D01*
X184845775Y-95568039D01*
X184648238Y-95660151D01*
X184648233Y-95660154D01*
X184643251Y-95662477D01*
X184538389Y-95735902D01*
X184460211Y-95790643D01*
X184460208Y-95790645D01*
X184455700Y-95793802D01*
X184293802Y-95955700D01*
X184162477Y-96143251D01*
X184160154Y-96148233D01*
X184160151Y-96148238D01*
X184068039Y-96345775D01*
X184065716Y-96350757D01*
X184006457Y-96571913D01*
X183991500Y-96742873D01*
X183991500Y-97757127D01*
X130508500Y-97757127D01*
X130508500Y-92179469D01*
X244439095Y-92179469D01*
X244439392Y-92184622D01*
X244439392Y-92184625D01*
X244445067Y-92283041D01*
X244452427Y-92410697D01*
X244453564Y-92415743D01*
X244453565Y-92415749D01*
X244485741Y-92558523D01*
X244503346Y-92636642D01*
X244505288Y-92641424D01*
X244505289Y-92641428D01*
X244588540Y-92846450D01*
X244590484Y-92851237D01*
X244711501Y-93048719D01*
X244863147Y-93223784D01*
X245041349Y-93371730D01*
X245241322Y-93488584D01*
X245457694Y-93571209D01*
X245462760Y-93572240D01*
X245462761Y-93572240D01*
X245515846Y-93583040D01*
X245684656Y-93617385D01*
X245815324Y-93622176D01*
X245910949Y-93625683D01*
X245910953Y-93625683D01*
X245916113Y-93625872D01*
X245921233Y-93625216D01*
X245921235Y-93625216D01*
X245994270Y-93615860D01*
X246145847Y-93596442D01*
X246150795Y-93594957D01*
X246150802Y-93594956D01*
X246362747Y-93531369D01*
X246367690Y-93529886D01*
X246448236Y-93490427D01*
X246571049Y-93430262D01*
X246571052Y-93430260D01*
X246575684Y-93427991D01*
X246764243Y-93293494D01*
X246928303Y-93130005D01*
X247063458Y-92941917D01*
X247110641Y-92846450D01*
X247163784Y-92738922D01*
X247163785Y-92738920D01*
X247166078Y-92734280D01*
X247233408Y-92512671D01*
X247263640Y-92283041D01*
X247265327Y-92214000D01*
X247259032Y-92137434D01*
X247246773Y-91988318D01*
X247246772Y-91988312D01*
X247246349Y-91983167D01*
X247189925Y-91758533D01*
X247187866Y-91753797D01*
X247099630Y-91550868D01*
X247099628Y-91550865D01*
X247097570Y-91546131D01*
X246971764Y-91351665D01*
X246815887Y-91180358D01*
X246811836Y-91177159D01*
X246811832Y-91177155D01*
X246638177Y-91040011D01*
X246638172Y-91040008D01*
X246634123Y-91036810D01*
X246629607Y-91034317D01*
X246629604Y-91034315D01*
X246435879Y-90927373D01*
X246435875Y-90927371D01*
X246431355Y-90924876D01*
X246426486Y-90923152D01*
X246426482Y-90923150D01*
X246217903Y-90849288D01*
X246217899Y-90849287D01*
X246213028Y-90847562D01*
X246207935Y-90846655D01*
X246207932Y-90846654D01*
X245990095Y-90807851D01*
X245990089Y-90807850D01*
X245985006Y-90806945D01*
X245912096Y-90806054D01*
X245758581Y-90804179D01*
X245758579Y-90804179D01*
X245753411Y-90804116D01*
X245524464Y-90839150D01*
X245304314Y-90911106D01*
X245299726Y-90913494D01*
X245299722Y-90913496D01*
X245273065Y-90927373D01*
X245098872Y-91018052D01*
X245094739Y-91021155D01*
X245094736Y-91021157D01*
X245069625Y-91040011D01*
X244913655Y-91157117D01*
X244753639Y-91324564D01*
X244750725Y-91328836D01*
X244750724Y-91328837D01*
X244735152Y-91351665D01*
X244623119Y-91515899D01*
X244525602Y-91725981D01*
X244463707Y-91949169D01*
X244439095Y-92179469D01*
X130508500Y-92179469D01*
X130508500Y-89824669D01*
X194052001Y-89824669D01*
X194052371Y-89831490D01*
X194057895Y-89882352D01*
X194061521Y-89897604D01*
X194106676Y-90018054D01*
X194115214Y-90033649D01*
X194191715Y-90135724D01*
X194204276Y-90148285D01*
X194306351Y-90224786D01*
X194321946Y-90233324D01*
X194442394Y-90278478D01*
X194457649Y-90282105D01*
X194508514Y-90287631D01*
X194515328Y-90288000D01*
X195537885Y-90288000D01*
X195553124Y-90283525D01*
X195554329Y-90282135D01*
X195556000Y-90274452D01*
X195556000Y-90269884D01*
X196064000Y-90269884D01*
X196068475Y-90285123D01*
X196069865Y-90286328D01*
X196077548Y-90287999D01*
X197104669Y-90287999D01*
X197111490Y-90287629D01*
X197162352Y-90282105D01*
X197177604Y-90278479D01*
X197298054Y-90233324D01*
X197313649Y-90224786D01*
X197415724Y-90148285D01*
X197428285Y-90135724D01*
X197504786Y-90033649D01*
X197513324Y-90018054D01*
X197558478Y-89897606D01*
X197562105Y-89882351D01*
X197567631Y-89831486D01*
X197568000Y-89824672D01*
X197568000Y-88802115D01*
X197563525Y-88786876D01*
X197562135Y-88785671D01*
X197554452Y-88784000D01*
X196082115Y-88784000D01*
X196066876Y-88788475D01*
X196065671Y-88789865D01*
X196064000Y-88797548D01*
X196064000Y-90269884D01*
X195556000Y-90269884D01*
X195556000Y-88802115D01*
X195551525Y-88786876D01*
X195550135Y-88785671D01*
X195542452Y-88784000D01*
X194070116Y-88784000D01*
X194054877Y-88788475D01*
X194053672Y-88789865D01*
X194052001Y-88797548D01*
X194052001Y-89824669D01*
X130508500Y-89824669D01*
X130508500Y-88257885D01*
X194052000Y-88257885D01*
X194056475Y-88273124D01*
X194057865Y-88274329D01*
X194065548Y-88276000D01*
X195537885Y-88276000D01*
X195553124Y-88271525D01*
X195554329Y-88270135D01*
X195556000Y-88262452D01*
X195556000Y-88257885D01*
X196064000Y-88257885D01*
X196068475Y-88273124D01*
X196069865Y-88274329D01*
X196077548Y-88276000D01*
X197549884Y-88276000D01*
X197565123Y-88271525D01*
X197566328Y-88270135D01*
X197567999Y-88262452D01*
X197567999Y-87235331D01*
X197567629Y-87228510D01*
X197562105Y-87177648D01*
X197558479Y-87162396D01*
X197513324Y-87041946D01*
X197504786Y-87026351D01*
X197428285Y-86924276D01*
X197415724Y-86911715D01*
X197313649Y-86835214D01*
X197298054Y-86826676D01*
X197177606Y-86781522D01*
X197162351Y-86777895D01*
X197111486Y-86772369D01*
X197104672Y-86772000D01*
X196082115Y-86772000D01*
X196066876Y-86776475D01*
X196065671Y-86777865D01*
X196064000Y-86785548D01*
X196064000Y-88257885D01*
X195556000Y-88257885D01*
X195556000Y-86790116D01*
X195551525Y-86774877D01*
X195550135Y-86773672D01*
X195542452Y-86772001D01*
X194515331Y-86772001D01*
X194508510Y-86772371D01*
X194457648Y-86777895D01*
X194442396Y-86781521D01*
X194321946Y-86826676D01*
X194306351Y-86835214D01*
X194204276Y-86911715D01*
X194191715Y-86924276D01*
X194115214Y-87026351D01*
X194106676Y-87041946D01*
X194061522Y-87162394D01*
X194057895Y-87177649D01*
X194052369Y-87228514D01*
X194052000Y-87235328D01*
X194052000Y-88257885D01*
X130508500Y-88257885D01*
X130508500Y-84274695D01*
X135649251Y-84274695D01*
X135649548Y-84279848D01*
X135649548Y-84279851D01*
X135659423Y-84451118D01*
X135662110Y-84497715D01*
X135663247Y-84502761D01*
X135663248Y-84502767D01*
X135678438Y-84570166D01*
X135711222Y-84715639D01*
X135795266Y-84922616D01*
X135911987Y-85113088D01*
X136058250Y-85281938D01*
X136230126Y-85424632D01*
X136423000Y-85537338D01*
X136631692Y-85617030D01*
X136636760Y-85618061D01*
X136636763Y-85618062D01*
X136744017Y-85639883D01*
X136850597Y-85661567D01*
X136855772Y-85661757D01*
X136855774Y-85661757D01*
X137068673Y-85669564D01*
X137068677Y-85669564D01*
X137073837Y-85669753D01*
X137078957Y-85669097D01*
X137078959Y-85669097D01*
X137290288Y-85642025D01*
X137290289Y-85642025D01*
X137295416Y-85641368D01*
X137300366Y-85639883D01*
X137504429Y-85578661D01*
X137504434Y-85578659D01*
X137509384Y-85577174D01*
X137709994Y-85478896D01*
X137891860Y-85349173D01*
X137959331Y-85281938D01*
X138000479Y-85240933D01*
X138062851Y-85207017D01*
X138133658Y-85212205D01*
X138190419Y-85254851D01*
X138207401Y-85285954D01*
X138248676Y-85396054D01*
X138257214Y-85411649D01*
X138333715Y-85513724D01*
X138346276Y-85526285D01*
X138448351Y-85602786D01*
X138463946Y-85611324D01*
X138584394Y-85656478D01*
X138599649Y-85660105D01*
X138650514Y-85665631D01*
X138657328Y-85666000D01*
X139279885Y-85666000D01*
X139295124Y-85661525D01*
X139296329Y-85660135D01*
X139298000Y-85652452D01*
X139298000Y-85647884D01*
X139806000Y-85647884D01*
X139810475Y-85663123D01*
X139811865Y-85664328D01*
X139819548Y-85665999D01*
X140446669Y-85665999D01*
X140453490Y-85665629D01*
X140504352Y-85660105D01*
X140519604Y-85656479D01*
X140640054Y-85611324D01*
X140655649Y-85602786D01*
X140757724Y-85526285D01*
X140770285Y-85513724D01*
X140846786Y-85411649D01*
X140855324Y-85396054D01*
X140900478Y-85275606D01*
X140904105Y-85260351D01*
X140909631Y-85209486D01*
X140910000Y-85202672D01*
X140910000Y-84580115D01*
X140905525Y-84564876D01*
X140904135Y-84563671D01*
X140896452Y-84562000D01*
X139824115Y-84562000D01*
X139808876Y-84566475D01*
X139807671Y-84567865D01*
X139806000Y-84575548D01*
X139806000Y-85647884D01*
X139298000Y-85647884D01*
X139298000Y-84035885D01*
X139806000Y-84035885D01*
X139810475Y-84051124D01*
X139811865Y-84052329D01*
X139819548Y-84054000D01*
X140891884Y-84054000D01*
X140907123Y-84049525D01*
X140908328Y-84048135D01*
X140909999Y-84040452D01*
X140909999Y-83700000D01*
X213006496Y-83700000D01*
X213026458Y-83889928D01*
X213085473Y-84071556D01*
X213180960Y-84236944D01*
X213185378Y-84241851D01*
X213185379Y-84241852D01*
X213244939Y-84308000D01*
X213308747Y-84378866D01*
X213402851Y-84447237D01*
X213457904Y-84487235D01*
X213463248Y-84491118D01*
X213469276Y-84493802D01*
X213469278Y-84493803D01*
X213622452Y-84562000D01*
X213637712Y-84568794D01*
X213731113Y-84588647D01*
X213818056Y-84607128D01*
X213818061Y-84607128D01*
X213824513Y-84608500D01*
X214015487Y-84608500D01*
X214021939Y-84607128D01*
X214021944Y-84607128D01*
X214108887Y-84588647D01*
X214202288Y-84568794D01*
X214217548Y-84562000D01*
X214370722Y-84493803D01*
X214370724Y-84493802D01*
X214376752Y-84491118D01*
X214382091Y-84487239D01*
X214382098Y-84487235D01*
X214388528Y-84482563D01*
X214462587Y-84458500D01*
X221923045Y-84458500D01*
X221974293Y-84469393D01*
X222101677Y-84526108D01*
X222101685Y-84526111D01*
X222107712Y-84528794D01*
X222201113Y-84548647D01*
X222288056Y-84567128D01*
X222288061Y-84567128D01*
X222294513Y-84568500D01*
X222485487Y-84568500D01*
X222491939Y-84567128D01*
X222491944Y-84567128D01*
X222578887Y-84548647D01*
X222672288Y-84528794D01*
X222742093Y-84497715D01*
X222840722Y-84453803D01*
X222840724Y-84453802D01*
X222846752Y-84451118D01*
X223001253Y-84338866D01*
X223093024Y-84236944D01*
X223124621Y-84201852D01*
X223124622Y-84201851D01*
X223129040Y-84196944D01*
X223212534Y-84052329D01*
X223221223Y-84037279D01*
X223221224Y-84037278D01*
X223224527Y-84031556D01*
X223283542Y-83849928D01*
X223303504Y-83660000D01*
X223283542Y-83470072D01*
X223224527Y-83288444D01*
X223129040Y-83123056D01*
X223078691Y-83067137D01*
X223005675Y-82986045D01*
X223005674Y-82986044D01*
X223001253Y-82981134D01*
X222901807Y-82908882D01*
X222852094Y-82872763D01*
X222852093Y-82872762D01*
X222846752Y-82868882D01*
X222840724Y-82866198D01*
X222840722Y-82866197D01*
X222678319Y-82793891D01*
X222678318Y-82793891D01*
X222672288Y-82791206D01*
X222578888Y-82771353D01*
X222491944Y-82752872D01*
X222491939Y-82752872D01*
X222485487Y-82751500D01*
X222294513Y-82751500D01*
X222288061Y-82752872D01*
X222288056Y-82752872D01*
X222201112Y-82771353D01*
X222107712Y-82791206D01*
X222101682Y-82793891D01*
X222101681Y-82793891D01*
X221939278Y-82866197D01*
X221939276Y-82866198D01*
X221933248Y-82868882D01*
X221927907Y-82872762D01*
X221927906Y-82872763D01*
X221866419Y-82917436D01*
X221792358Y-82941500D01*
X214462587Y-82941500D01*
X214388528Y-82917437D01*
X214382098Y-82912765D01*
X214382091Y-82912761D01*
X214376752Y-82908882D01*
X214370724Y-82906198D01*
X214370722Y-82906197D01*
X214208319Y-82833891D01*
X214208318Y-82833891D01*
X214202288Y-82831206D01*
X214108887Y-82811353D01*
X214021944Y-82792872D01*
X214021939Y-82792872D01*
X214015487Y-82791500D01*
X213824513Y-82791500D01*
X213818061Y-82792872D01*
X213818056Y-82792872D01*
X213731113Y-82811353D01*
X213637712Y-82831206D01*
X213631682Y-82833891D01*
X213631681Y-82833891D01*
X213469278Y-82906197D01*
X213469276Y-82906198D01*
X213463248Y-82908882D01*
X213457907Y-82912762D01*
X213457906Y-82912763D01*
X213451474Y-82917436D01*
X213308747Y-83021134D01*
X213304326Y-83026044D01*
X213304325Y-83026045D01*
X213188658Y-83154507D01*
X213180960Y-83163056D01*
X213122686Y-83263990D01*
X213093307Y-83314876D01*
X213085473Y-83328444D01*
X213026458Y-83510072D01*
X213025768Y-83516633D01*
X213025768Y-83516635D01*
X213010010Y-83666565D01*
X213006496Y-83700000D01*
X140909999Y-83700000D01*
X140909999Y-83413331D01*
X140909629Y-83406510D01*
X140904105Y-83355648D01*
X140900479Y-83340396D01*
X140855324Y-83219946D01*
X140846786Y-83204351D01*
X140770285Y-83102276D01*
X140757724Y-83089715D01*
X140655649Y-83013214D01*
X140640054Y-83004676D01*
X140519606Y-82959522D01*
X140504351Y-82955895D01*
X140453486Y-82950369D01*
X140446672Y-82950000D01*
X139824115Y-82950000D01*
X139808876Y-82954475D01*
X139807671Y-82955865D01*
X139806000Y-82963548D01*
X139806000Y-84035885D01*
X139298000Y-84035885D01*
X139298000Y-82968116D01*
X139293525Y-82952877D01*
X139292135Y-82951672D01*
X139284452Y-82950001D01*
X138657331Y-82950001D01*
X138650510Y-82950371D01*
X138599648Y-82955895D01*
X138584396Y-82959521D01*
X138463946Y-83004676D01*
X138448351Y-83013214D01*
X138346276Y-83089715D01*
X138333715Y-83102276D01*
X138257214Y-83204351D01*
X138248676Y-83219946D01*
X138207297Y-83330322D01*
X138164655Y-83387087D01*
X138098093Y-83411786D01*
X138028744Y-83396578D01*
X137996121Y-83370891D01*
X137945151Y-83314876D01*
X137945148Y-83314873D01*
X137941670Y-83311051D01*
X137937619Y-83307852D01*
X137937615Y-83307848D01*
X137770414Y-83175800D01*
X137770410Y-83175798D01*
X137766359Y-83172598D01*
X137570789Y-83064638D01*
X137565920Y-83062914D01*
X137565916Y-83062912D01*
X137365087Y-82991795D01*
X137365083Y-82991794D01*
X137360212Y-82990069D01*
X137355119Y-82989162D01*
X137355116Y-82989161D01*
X137145373Y-82951800D01*
X137145367Y-82951799D01*
X137140284Y-82950894D01*
X137066452Y-82949992D01*
X136922081Y-82948228D01*
X136922079Y-82948228D01*
X136916911Y-82948165D01*
X136696091Y-82981955D01*
X136483756Y-83051357D01*
X136453443Y-83067137D01*
X136335040Y-83128774D01*
X136285607Y-83154507D01*
X136281474Y-83157610D01*
X136281471Y-83157612D01*
X136111100Y-83285530D01*
X136106965Y-83288635D01*
X135952629Y-83450138D01*
X135949715Y-83454410D01*
X135949714Y-83454411D01*
X135939031Y-83470072D01*
X135826743Y-83634680D01*
X135732688Y-83837305D01*
X135672989Y-84052570D01*
X135649251Y-84274695D01*
X130508500Y-84274695D01*
X130508500Y-79464526D01*
X214725050Y-79464526D01*
X214737947Y-79733019D01*
X214790388Y-79996656D01*
X214881220Y-80249646D01*
X215008450Y-80486431D01*
X215011241Y-80490168D01*
X215011245Y-80490175D01*
X215092887Y-80599506D01*
X215169281Y-80701810D01*
X215172590Y-80705090D01*
X215172595Y-80705096D01*
X215356863Y-80887762D01*
X215360180Y-80891050D01*
X215363942Y-80893808D01*
X215363945Y-80893811D01*
X215476299Y-80976192D01*
X215576954Y-81049995D01*
X215581089Y-81052171D01*
X215581093Y-81052173D01*
X215810698Y-81172975D01*
X215814840Y-81175154D01*
X216068613Y-81263775D01*
X216073206Y-81264647D01*
X216328109Y-81313042D01*
X216328112Y-81313042D01*
X216332698Y-81313913D01*
X216460370Y-81318929D01*
X216596625Y-81324283D01*
X216596630Y-81324283D01*
X216601293Y-81324466D01*
X216705607Y-81313042D01*
X216863844Y-81295713D01*
X216863850Y-81295712D01*
X216868497Y-81295203D01*
X216873021Y-81294012D01*
X217123918Y-81227956D01*
X217123920Y-81227955D01*
X217128441Y-81226765D01*
X217132738Y-81224919D01*
X217371120Y-81122502D01*
X217371122Y-81122501D01*
X217375414Y-81120657D01*
X217494071Y-81047230D01*
X217600017Y-80981669D01*
X217600021Y-80981666D01*
X217603990Y-80979210D01*
X217809149Y-80805530D01*
X217986382Y-80603434D01*
X218005343Y-80573957D01*
X218100063Y-80426697D01*
X218131797Y-80377361D01*
X218242199Y-80132278D01*
X218279209Y-80001051D01*
X218313893Y-79878072D01*
X218313894Y-79878069D01*
X218315163Y-79873568D01*
X218333133Y-79732316D01*
X218348688Y-79610045D01*
X218348688Y-79610041D01*
X218349086Y-79606915D01*
X218351571Y-79512000D01*
X218331650Y-79243937D01*
X218309059Y-79144096D01*
X218273361Y-78986331D01*
X218273360Y-78986326D01*
X218272327Y-78981763D01*
X218174902Y-78731238D01*
X218041518Y-78497864D01*
X218038423Y-78493937D01*
X217901440Y-78320175D01*
X217875105Y-78286769D01*
X217679317Y-78102591D01*
X217510665Y-77985592D01*
X217462299Y-77952039D01*
X217462296Y-77952037D01*
X217458457Y-77949374D01*
X217454264Y-77947306D01*
X217221564Y-77832551D01*
X217221561Y-77832550D01*
X217217376Y-77830486D01*
X217191113Y-77822079D01*
X217115621Y-77797914D01*
X216961370Y-77748538D01*
X216956763Y-77747788D01*
X216956760Y-77747787D01*
X216749846Y-77714089D01*
X216696063Y-77705330D01*
X216565719Y-77703624D01*
X216431961Y-77701873D01*
X216431958Y-77701873D01*
X216427284Y-77701812D01*
X216160937Y-77738060D01*
X216156451Y-77739368D01*
X216156449Y-77739368D01*
X216127565Y-77747787D01*
X215902874Y-77813278D01*
X215658763Y-77925815D01*
X215654854Y-77928378D01*
X215437881Y-78070631D01*
X215437876Y-78070635D01*
X215433968Y-78073197D01*
X215233426Y-78252188D01*
X215201615Y-78290437D01*
X215082686Y-78433434D01*
X215061544Y-78458854D01*
X214922096Y-78688656D01*
X214920287Y-78692970D01*
X214920285Y-78692974D01*
X214852863Y-78853758D01*
X214818148Y-78936545D01*
X214751981Y-79197077D01*
X214725050Y-79464526D01*
X130508500Y-79464526D01*
X130508500Y-77294526D01*
X210965050Y-77294526D01*
X210977947Y-77563019D01*
X211030388Y-77826656D01*
X211121220Y-78079646D01*
X211123432Y-78083762D01*
X211123433Y-78083765D01*
X211176344Y-78182236D01*
X211248450Y-78316431D01*
X211251241Y-78320168D01*
X211251245Y-78320175D01*
X211332887Y-78429506D01*
X211409281Y-78531810D01*
X211412590Y-78535090D01*
X211412595Y-78535096D01*
X211563469Y-78684658D01*
X211600180Y-78721050D01*
X211603942Y-78723808D01*
X211603945Y-78723811D01*
X211716299Y-78806192D01*
X211816954Y-78879995D01*
X211821089Y-78882171D01*
X211821093Y-78882173D01*
X212021483Y-78987604D01*
X212054840Y-79005154D01*
X212308613Y-79093775D01*
X212313206Y-79094647D01*
X212568109Y-79143042D01*
X212568112Y-79143042D01*
X212572698Y-79143913D01*
X212700370Y-79148929D01*
X212836625Y-79154283D01*
X212836630Y-79154283D01*
X212841293Y-79154466D01*
X212945607Y-79143042D01*
X213103844Y-79125713D01*
X213103850Y-79125712D01*
X213108497Y-79125203D01*
X213114707Y-79123568D01*
X213363918Y-79057956D01*
X213363920Y-79057955D01*
X213368441Y-79056765D01*
X213372738Y-79054919D01*
X213611120Y-78952502D01*
X213611122Y-78952501D01*
X213615414Y-78950657D01*
X213734071Y-78877230D01*
X213840017Y-78811669D01*
X213840021Y-78811666D01*
X213843990Y-78809210D01*
X214049149Y-78635530D01*
X214226382Y-78433434D01*
X214371797Y-78207361D01*
X214482199Y-77962278D01*
X214503584Y-77886454D01*
X214553893Y-77708072D01*
X214553894Y-77708069D01*
X214555163Y-77703568D01*
X214573043Y-77563019D01*
X214588688Y-77440045D01*
X214588688Y-77440041D01*
X214589086Y-77436915D01*
X214591571Y-77342000D01*
X214571650Y-77073937D01*
X214554912Y-76999963D01*
X214513361Y-76816331D01*
X214513360Y-76816326D01*
X214512327Y-76811763D01*
X214414902Y-76561238D01*
X214281518Y-76327864D01*
X214254113Y-76293100D01*
X214215416Y-76244014D01*
X214115105Y-76116769D01*
X213919317Y-75932591D01*
X213725410Y-75798072D01*
X213702299Y-75782039D01*
X213702296Y-75782037D01*
X213698457Y-75779374D01*
X213694264Y-75777306D01*
X213461564Y-75662551D01*
X213461561Y-75662550D01*
X213457376Y-75660486D01*
X213409745Y-75645239D01*
X213355621Y-75627914D01*
X213201370Y-75578538D01*
X213196763Y-75577788D01*
X213196760Y-75577787D01*
X212940674Y-75536081D01*
X212940675Y-75536081D01*
X212936063Y-75535330D01*
X212805719Y-75533624D01*
X212671961Y-75531873D01*
X212671958Y-75531873D01*
X212667284Y-75531812D01*
X212400937Y-75568060D01*
X212142874Y-75643278D01*
X212138621Y-75645238D01*
X212138620Y-75645239D01*
X212108634Y-75659063D01*
X211898763Y-75755815D01*
X211894854Y-75758378D01*
X211677881Y-75900631D01*
X211677876Y-75900635D01*
X211673968Y-75903197D01*
X211473426Y-76082188D01*
X211301544Y-76288854D01*
X211162096Y-76518656D01*
X211160287Y-76522970D01*
X211160285Y-76522974D01*
X211114708Y-76631663D01*
X211058148Y-76766545D01*
X210991981Y-77027077D01*
X210965050Y-77294526D01*
X130508500Y-77294526D01*
X130508500Y-73262000D01*
X198849445Y-73262000D01*
X198869651Y-73647559D01*
X198870164Y-73650799D01*
X198870165Y-73650807D01*
X198885543Y-73747899D01*
X198930049Y-74028894D01*
X199029976Y-74401826D01*
X199168337Y-74762270D01*
X199169835Y-74765210D01*
X199239413Y-74901763D01*
X199343618Y-75106277D01*
X199345414Y-75109043D01*
X199345416Y-75109046D01*
X199378103Y-75159379D01*
X199553896Y-75430078D01*
X199796869Y-75730125D01*
X200069875Y-76003131D01*
X200369922Y-76246104D01*
X200372697Y-76247906D01*
X200610468Y-76402316D01*
X200693722Y-76456382D01*
X200696656Y-76457877D01*
X200696663Y-76457881D01*
X200832213Y-76526947D01*
X201037730Y-76631663D01*
X201398174Y-76770024D01*
X201771106Y-76869951D01*
X201936784Y-76896192D01*
X202149193Y-76929835D01*
X202149201Y-76929836D01*
X202152441Y-76930349D01*
X202538000Y-76950555D01*
X202923559Y-76930349D01*
X202926799Y-76929836D01*
X202926807Y-76929835D01*
X203139216Y-76896192D01*
X203304894Y-76869951D01*
X203677826Y-76770024D01*
X204038270Y-76631663D01*
X204243787Y-76526947D01*
X204379337Y-76457881D01*
X204379344Y-76457877D01*
X204382278Y-76456382D01*
X204465533Y-76402316D01*
X204703303Y-76247906D01*
X204706078Y-76246104D01*
X205006125Y-76003131D01*
X205279131Y-75730125D01*
X205522104Y-75430078D01*
X205697897Y-75159379D01*
X205730584Y-75109046D01*
X205730586Y-75109043D01*
X205732382Y-75106277D01*
X205836588Y-74901763D01*
X205906165Y-74765210D01*
X205907663Y-74762270D01*
X206046024Y-74401826D01*
X206145951Y-74028894D01*
X206190457Y-73747899D01*
X206205835Y-73650807D01*
X206205836Y-73650799D01*
X206206349Y-73647559D01*
X206226555Y-73262000D01*
X206206349Y-72876441D01*
X206201314Y-72844647D01*
X206167315Y-72629995D01*
X206151478Y-72530000D01*
X214936496Y-72530000D01*
X214937186Y-72536565D01*
X214954433Y-72700657D01*
X214956458Y-72719928D01*
X215015473Y-72901556D01*
X215018776Y-72907278D01*
X215018777Y-72907279D01*
X215074619Y-73003999D01*
X215091500Y-73066999D01*
X215091500Y-73362930D01*
X215090067Y-73381880D01*
X215086801Y-73403349D01*
X215087394Y-73410641D01*
X215087394Y-73410644D01*
X215091085Y-73456018D01*
X215091500Y-73466233D01*
X215091500Y-73474293D01*
X215091925Y-73477937D01*
X215094789Y-73502507D01*
X215095222Y-73506882D01*
X215101140Y-73579637D01*
X215103396Y-73586601D01*
X215104587Y-73592560D01*
X215105971Y-73598415D01*
X215106818Y-73605681D01*
X215131735Y-73674327D01*
X215133152Y-73678455D01*
X215151548Y-73735239D01*
X215155649Y-73747899D01*
X215159445Y-73754154D01*
X215161951Y-73759628D01*
X215164670Y-73765058D01*
X215167167Y-73771937D01*
X215171180Y-73778057D01*
X215171180Y-73778058D01*
X215207186Y-73832976D01*
X215209523Y-73836680D01*
X215247405Y-73899107D01*
X215251121Y-73903315D01*
X215251122Y-73903316D01*
X215254803Y-73907484D01*
X215254776Y-73907508D01*
X215257429Y-73910500D01*
X215260132Y-73913733D01*
X215264144Y-73919852D01*
X215269456Y-73924884D01*
X215320383Y-73973128D01*
X215322825Y-73975506D01*
X219167065Y-77819746D01*
X219201091Y-77882058D01*
X219194167Y-77957564D01*
X219098148Y-78186545D01*
X219031981Y-78447077D01*
X219005050Y-78714526D01*
X219005274Y-78719192D01*
X219005274Y-78719197D01*
X219006062Y-78735592D01*
X219017947Y-78983019D01*
X219070388Y-79246656D01*
X219161220Y-79499646D01*
X219288450Y-79736431D01*
X219291241Y-79740168D01*
X219291245Y-79740175D01*
X219372887Y-79849506D01*
X219449281Y-79951810D01*
X219452590Y-79955090D01*
X219452595Y-79955096D01*
X219631331Y-80132278D01*
X219640180Y-80141050D01*
X219643942Y-80143808D01*
X219643945Y-80143811D01*
X219793904Y-80253765D01*
X219856954Y-80299995D01*
X219861089Y-80302171D01*
X219861093Y-80302173D01*
X220090698Y-80422975D01*
X220094840Y-80425154D01*
X220237346Y-80474919D01*
X220281033Y-80490175D01*
X220348613Y-80513775D01*
X220353206Y-80514647D01*
X220608109Y-80563042D01*
X220608112Y-80563042D01*
X220612698Y-80563913D01*
X220740370Y-80568929D01*
X220876625Y-80574283D01*
X220876630Y-80574283D01*
X220881293Y-80574466D01*
X220985607Y-80563042D01*
X221143844Y-80545713D01*
X221143850Y-80545712D01*
X221148497Y-80545203D01*
X221153021Y-80544012D01*
X221403918Y-80477956D01*
X221403920Y-80477955D01*
X221408441Y-80476765D01*
X221412738Y-80474919D01*
X221651120Y-80372502D01*
X221651122Y-80372501D01*
X221655414Y-80370657D01*
X221858083Y-80245242D01*
X221880017Y-80231669D01*
X221880021Y-80231666D01*
X221883990Y-80229210D01*
X222089149Y-80055530D01*
X222266382Y-79853434D01*
X222411797Y-79627361D01*
X222522199Y-79382278D01*
X222559209Y-79251051D01*
X222593893Y-79128072D01*
X222593894Y-79128069D01*
X222595163Y-79123568D01*
X222613203Y-78981763D01*
X222628688Y-78860045D01*
X222628688Y-78860041D01*
X222629086Y-78856915D01*
X222631571Y-78762000D01*
X222631337Y-78758851D01*
X222611996Y-78498592D01*
X222611996Y-78498591D01*
X222611650Y-78493937D01*
X222610619Y-78489379D01*
X222553361Y-78236331D01*
X222553360Y-78236326D01*
X222552327Y-78231763D01*
X222454902Y-77981238D01*
X222321518Y-77747864D01*
X222314821Y-77739368D01*
X222179413Y-77567604D01*
X222155105Y-77536769D01*
X221959317Y-77352591D01*
X221788508Y-77234096D01*
X221742299Y-77202039D01*
X221742296Y-77202037D01*
X221738457Y-77199374D01*
X221708594Y-77184647D01*
X221501564Y-77082551D01*
X221501561Y-77082550D01*
X221497376Y-77080486D01*
X221491460Y-77078592D01*
X221365259Y-77038195D01*
X221241370Y-76998538D01*
X221236763Y-76997788D01*
X221236760Y-76997787D01*
X220980674Y-76956081D01*
X220980675Y-76956081D01*
X220976063Y-76955330D01*
X220845719Y-76953624D01*
X220711961Y-76951873D01*
X220711958Y-76951873D01*
X220707284Y-76951812D01*
X220537879Y-76974867D01*
X220467684Y-76964234D01*
X220431794Y-76939113D01*
X218877207Y-75384526D01*
X221795050Y-75384526D01*
X221807947Y-75653019D01*
X221860388Y-75916656D01*
X221951220Y-76169646D01*
X222078450Y-76406431D01*
X222081241Y-76410168D01*
X222081245Y-76410175D01*
X222159267Y-76514658D01*
X222239281Y-76621810D01*
X222242590Y-76625090D01*
X222242595Y-76625096D01*
X222426500Y-76807402D01*
X222430180Y-76811050D01*
X222433942Y-76813808D01*
X222433945Y-76813811D01*
X222593118Y-76930521D01*
X222646954Y-76969995D01*
X222651089Y-76972171D01*
X222651093Y-76972173D01*
X222880698Y-77092975D01*
X222884840Y-77095154D01*
X223138613Y-77183775D01*
X223143206Y-77184647D01*
X223398109Y-77233042D01*
X223398112Y-77233042D01*
X223402698Y-77233913D01*
X223530370Y-77238929D01*
X223666625Y-77244283D01*
X223666630Y-77244283D01*
X223671293Y-77244466D01*
X223775607Y-77233042D01*
X223933844Y-77215713D01*
X223933850Y-77215712D01*
X223938497Y-77215203D01*
X223988497Y-77202039D01*
X224193918Y-77147956D01*
X224193920Y-77147955D01*
X224198441Y-77146765D01*
X224202738Y-77144919D01*
X224441120Y-77042502D01*
X224441122Y-77042501D01*
X224445414Y-77040657D01*
X224568912Y-76964234D01*
X224670017Y-76901669D01*
X224670021Y-76901666D01*
X224673990Y-76899210D01*
X224879149Y-76725530D01*
X225056382Y-76523434D01*
X225059456Y-76518656D01*
X225199269Y-76301291D01*
X225201797Y-76297361D01*
X225312199Y-76052278D01*
X225349209Y-75921051D01*
X225383893Y-75798072D01*
X225383894Y-75798069D01*
X225385163Y-75793568D01*
X225402093Y-75660486D01*
X225418688Y-75530045D01*
X225418688Y-75530041D01*
X225419086Y-75526915D01*
X225421571Y-75432000D01*
X225401650Y-75163937D01*
X225342327Y-74901763D01*
X225244902Y-74651238D01*
X225111518Y-74417864D01*
X225096359Y-74398634D01*
X225045416Y-74334014D01*
X224945105Y-74206769D01*
X224749317Y-74022591D01*
X224528457Y-73869374D01*
X224524264Y-73867306D01*
X224291564Y-73752551D01*
X224291561Y-73752550D01*
X224287376Y-73750486D01*
X224279295Y-73747899D01*
X224185621Y-73717914D01*
X224031370Y-73668538D01*
X224026763Y-73667788D01*
X224026760Y-73667787D01*
X223770674Y-73626081D01*
X223770675Y-73626081D01*
X223766063Y-73625330D01*
X223635719Y-73623624D01*
X223501961Y-73621873D01*
X223501958Y-73621873D01*
X223497284Y-73621812D01*
X223230937Y-73658060D01*
X222972874Y-73733278D01*
X222968621Y-73735238D01*
X222968620Y-73735239D01*
X222941159Y-73747899D01*
X222728763Y-73845815D01*
X222724854Y-73848378D01*
X222507881Y-73990631D01*
X222507876Y-73990635D01*
X222503968Y-73993197D01*
X222303426Y-74172188D01*
X222131544Y-74378854D01*
X221992096Y-74608656D01*
X221990287Y-74612970D01*
X221990285Y-74612974D01*
X221926448Y-74765210D01*
X221888148Y-74856545D01*
X221821981Y-75117077D01*
X221795050Y-75384526D01*
X218877207Y-75384526D01*
X216754681Y-73262000D01*
X229049445Y-73262000D01*
X229069651Y-73647559D01*
X229070164Y-73650799D01*
X229070165Y-73650807D01*
X229085543Y-73747899D01*
X229130049Y-74028894D01*
X229229976Y-74401826D01*
X229368337Y-74762270D01*
X229369835Y-74765210D01*
X229439413Y-74901763D01*
X229543618Y-75106277D01*
X229545414Y-75109043D01*
X229545416Y-75109046D01*
X229578103Y-75159379D01*
X229753896Y-75430078D01*
X229996869Y-75730125D01*
X230269875Y-76003131D01*
X230569922Y-76246104D01*
X230572697Y-76247906D01*
X230810468Y-76402316D01*
X230893722Y-76456382D01*
X230896656Y-76457877D01*
X230896663Y-76457881D01*
X231032213Y-76526947D01*
X231237730Y-76631663D01*
X231598174Y-76770024D01*
X231971106Y-76869951D01*
X232136784Y-76896192D01*
X232349193Y-76929835D01*
X232349201Y-76929836D01*
X232352441Y-76930349D01*
X232738000Y-76950555D01*
X233123559Y-76930349D01*
X233126799Y-76929836D01*
X233126807Y-76929835D01*
X233339216Y-76896192D01*
X233504894Y-76869951D01*
X233877826Y-76770024D01*
X234238270Y-76631663D01*
X234443787Y-76526947D01*
X234579337Y-76457881D01*
X234579344Y-76457877D01*
X234582278Y-76456382D01*
X234665533Y-76402316D01*
X234903303Y-76247906D01*
X234906078Y-76246104D01*
X235206125Y-76003131D01*
X235479131Y-75730125D01*
X235722104Y-75430078D01*
X235897897Y-75159379D01*
X235930584Y-75109046D01*
X235930586Y-75109043D01*
X235932382Y-75106277D01*
X236036588Y-74901763D01*
X236106165Y-74765210D01*
X236107663Y-74762270D01*
X236246024Y-74401826D01*
X236345951Y-74028894D01*
X236390457Y-73747899D01*
X236405835Y-73650807D01*
X236405836Y-73650799D01*
X236406349Y-73647559D01*
X236426555Y-73262000D01*
X236406349Y-72876441D01*
X236401314Y-72844647D01*
X236367315Y-72629995D01*
X236345951Y-72495106D01*
X236246024Y-72122174D01*
X236107663Y-71761730D01*
X236094653Y-71736197D01*
X235933881Y-71420664D01*
X235933877Y-71420657D01*
X235932382Y-71417723D01*
X235722104Y-71093922D01*
X235479131Y-70793875D01*
X235206125Y-70520869D01*
X234906078Y-70277896D01*
X234796884Y-70206985D01*
X234585047Y-70069416D01*
X234585044Y-70069414D01*
X234582278Y-70067618D01*
X234579344Y-70066123D01*
X234579337Y-70066119D01*
X234241210Y-69893835D01*
X234238270Y-69892337D01*
X233888309Y-69758000D01*
X233880916Y-69755162D01*
X233880914Y-69755161D01*
X233877826Y-69753976D01*
X233504894Y-69654049D01*
X233279091Y-69618285D01*
X233126807Y-69594165D01*
X233126799Y-69594164D01*
X233123559Y-69593651D01*
X232738000Y-69573445D01*
X232352441Y-69593651D01*
X232349201Y-69594164D01*
X232349193Y-69594165D01*
X232196909Y-69618285D01*
X231971106Y-69654049D01*
X231598174Y-69753976D01*
X231595086Y-69755161D01*
X231595084Y-69755162D01*
X231587691Y-69758000D01*
X231237730Y-69892337D01*
X231234790Y-69893835D01*
X230896664Y-70066119D01*
X230896657Y-70066123D01*
X230893723Y-70067618D01*
X230890957Y-70069414D01*
X230890954Y-70069416D01*
X230763299Y-70152316D01*
X230569922Y-70277896D01*
X230269875Y-70520869D01*
X229996869Y-70793875D01*
X229753896Y-71093922D01*
X229543618Y-71417723D01*
X229542123Y-71420657D01*
X229542119Y-71420664D01*
X229381347Y-71736197D01*
X229368337Y-71761730D01*
X229229976Y-72122174D01*
X229130049Y-72495106D01*
X229108685Y-72629995D01*
X229074687Y-72844647D01*
X229069651Y-72876441D01*
X229049445Y-73262000D01*
X216754681Y-73262000D01*
X216646639Y-73153958D01*
X216612613Y-73091646D01*
X216617678Y-73020831D01*
X216626615Y-73001863D01*
X216681223Y-72907279D01*
X216681224Y-72907278D01*
X216684527Y-72901556D01*
X216743542Y-72719928D01*
X216745568Y-72700657D01*
X216762814Y-72536565D01*
X216763504Y-72530000D01*
X216743542Y-72340072D01*
X216684527Y-72158444D01*
X216663587Y-72122174D01*
X216592341Y-71998774D01*
X216589040Y-71993056D01*
X216553064Y-71953100D01*
X216465675Y-71856045D01*
X216465674Y-71856044D01*
X216461253Y-71851134D01*
X216342446Y-71764815D01*
X216312094Y-71742763D01*
X216312093Y-71742762D01*
X216306752Y-71738882D01*
X216300724Y-71736198D01*
X216300722Y-71736197D01*
X216138319Y-71663891D01*
X216138318Y-71663891D01*
X216132288Y-71661206D01*
X216038887Y-71641353D01*
X215951944Y-71622872D01*
X215951939Y-71622872D01*
X215945487Y-71621500D01*
X215754513Y-71621500D01*
X215748061Y-71622872D01*
X215748056Y-71622872D01*
X215661113Y-71641353D01*
X215567712Y-71661206D01*
X215561682Y-71663891D01*
X215561681Y-71663891D01*
X215399278Y-71736197D01*
X215399276Y-71736198D01*
X215393248Y-71738882D01*
X215387907Y-71742762D01*
X215387906Y-71742763D01*
X215357554Y-71764815D01*
X215238747Y-71851134D01*
X215234326Y-71856044D01*
X215234325Y-71856045D01*
X215146937Y-71953100D01*
X215110960Y-71993056D01*
X215107659Y-71998774D01*
X215036414Y-72122174D01*
X215015473Y-72158444D01*
X214956458Y-72340072D01*
X214936496Y-72530000D01*
X206151478Y-72530000D01*
X206145951Y-72495106D01*
X206046024Y-72122174D01*
X205907663Y-71761730D01*
X205894653Y-71736197D01*
X205733881Y-71420664D01*
X205733877Y-71420657D01*
X205732382Y-71417723D01*
X205522104Y-71093922D01*
X205482104Y-71044526D01*
X221795050Y-71044526D01*
X221795274Y-71049192D01*
X221795274Y-71049197D01*
X221797482Y-71095160D01*
X221807947Y-71313019D01*
X221860388Y-71576656D01*
X221951220Y-71829646D01*
X221953432Y-71833762D01*
X221953433Y-71833765D01*
X221962766Y-71851134D01*
X222078450Y-72066431D01*
X222081241Y-72070168D01*
X222081245Y-72070175D01*
X222162887Y-72179506D01*
X222239281Y-72281810D01*
X222242590Y-72285090D01*
X222242595Y-72285096D01*
X222426863Y-72467762D01*
X222430180Y-72471050D01*
X222433942Y-72473808D01*
X222433945Y-72473811D01*
X222519531Y-72536565D01*
X222646954Y-72629995D01*
X222651089Y-72632171D01*
X222651093Y-72632173D01*
X222829819Y-72726206D01*
X222884840Y-72755154D01*
X223138613Y-72843775D01*
X223143206Y-72844647D01*
X223398109Y-72893042D01*
X223398112Y-72893042D01*
X223402698Y-72893913D01*
X223530370Y-72898929D01*
X223666625Y-72904283D01*
X223666630Y-72904283D01*
X223671293Y-72904466D01*
X223775607Y-72893042D01*
X223933844Y-72875713D01*
X223933850Y-72875712D01*
X223938497Y-72875203D01*
X223943021Y-72874012D01*
X224193918Y-72807956D01*
X224193920Y-72807955D01*
X224198441Y-72806765D01*
X224202738Y-72804919D01*
X224441120Y-72702502D01*
X224441122Y-72702501D01*
X224445414Y-72700657D01*
X224564071Y-72627230D01*
X224670017Y-72561669D01*
X224670021Y-72561666D01*
X224673990Y-72559210D01*
X224879149Y-72385530D01*
X225056382Y-72183434D01*
X225068414Y-72164729D01*
X225199269Y-71961291D01*
X225201797Y-71957361D01*
X225312199Y-71712278D01*
X225349209Y-71581051D01*
X225383893Y-71458072D01*
X225383894Y-71458069D01*
X225385163Y-71453568D01*
X225403043Y-71313019D01*
X225418688Y-71190045D01*
X225418688Y-71190041D01*
X225419086Y-71186915D01*
X225421571Y-71092000D01*
X225401650Y-70823937D01*
X225400619Y-70819379D01*
X225343361Y-70566331D01*
X225343360Y-70566326D01*
X225342327Y-70561763D01*
X225244902Y-70311238D01*
X225111518Y-70077864D01*
X225104859Y-70069416D01*
X225045416Y-69994014D01*
X224945105Y-69866769D01*
X224749317Y-69682591D01*
X224578508Y-69564096D01*
X224532299Y-69532039D01*
X224532296Y-69532037D01*
X224528457Y-69529374D01*
X224498594Y-69514647D01*
X224291564Y-69412551D01*
X224291561Y-69412550D01*
X224287376Y-69410486D01*
X224239745Y-69395239D01*
X224155259Y-69368195D01*
X224031370Y-69328538D01*
X224026763Y-69327788D01*
X224026760Y-69327787D01*
X223823407Y-69294669D01*
X242422001Y-69294669D01*
X242422371Y-69301490D01*
X242427895Y-69352352D01*
X242431521Y-69367604D01*
X242476676Y-69488054D01*
X242485214Y-69503649D01*
X242561715Y-69605724D01*
X242574276Y-69618285D01*
X242676351Y-69694786D01*
X242691946Y-69703324D01*
X242812394Y-69748478D01*
X242827649Y-69752105D01*
X242878514Y-69757631D01*
X242885328Y-69758000D01*
X243907885Y-69758000D01*
X243923124Y-69753525D01*
X243924329Y-69752135D01*
X243926000Y-69744452D01*
X243926000Y-69739884D01*
X244434000Y-69739884D01*
X244438475Y-69755123D01*
X244439865Y-69756328D01*
X244447548Y-69757999D01*
X245474669Y-69757999D01*
X245481490Y-69757629D01*
X245532352Y-69752105D01*
X245547604Y-69748479D01*
X245668054Y-69703324D01*
X245683649Y-69694786D01*
X245785724Y-69618285D01*
X245798285Y-69605724D01*
X245874786Y-69503649D01*
X245883324Y-69488054D01*
X245928478Y-69367606D01*
X245932105Y-69352351D01*
X245937631Y-69301486D01*
X245938000Y-69294672D01*
X245938000Y-68272115D01*
X245933525Y-68256876D01*
X245932135Y-68255671D01*
X245924452Y-68254000D01*
X244452115Y-68254000D01*
X244436876Y-68258475D01*
X244435671Y-68259865D01*
X244434000Y-68267548D01*
X244434000Y-69739884D01*
X243926000Y-69739884D01*
X243926000Y-68272115D01*
X243921525Y-68256876D01*
X243920135Y-68255671D01*
X243912452Y-68254000D01*
X242440116Y-68254000D01*
X242424877Y-68258475D01*
X242423672Y-68259865D01*
X242422001Y-68267548D01*
X242422001Y-69294669D01*
X223823407Y-69294669D01*
X223770674Y-69286081D01*
X223770675Y-69286081D01*
X223766063Y-69285330D01*
X223635719Y-69283624D01*
X223501961Y-69281873D01*
X223501958Y-69281873D01*
X223497284Y-69281812D01*
X223230937Y-69318060D01*
X222972874Y-69393278D01*
X222968621Y-69395238D01*
X222968620Y-69395239D01*
X222938634Y-69409063D01*
X222728763Y-69505815D01*
X222724854Y-69508378D01*
X222507881Y-69650631D01*
X222507876Y-69650635D01*
X222503968Y-69653197D01*
X222303426Y-69832188D01*
X222131544Y-70038854D01*
X221992096Y-70268656D01*
X221990287Y-70272970D01*
X221990285Y-70272974D01*
X221948840Y-70371810D01*
X221888148Y-70516545D01*
X221821981Y-70777077D01*
X221795050Y-71044526D01*
X205482104Y-71044526D01*
X205279131Y-70793875D01*
X205006125Y-70520869D01*
X204706078Y-70277896D01*
X204596884Y-70206985D01*
X204385047Y-70069416D01*
X204385044Y-70069414D01*
X204382278Y-70067618D01*
X204379344Y-70066123D01*
X204379337Y-70066119D01*
X204041210Y-69893835D01*
X204038270Y-69892337D01*
X203688309Y-69758000D01*
X203680916Y-69755162D01*
X203680914Y-69755161D01*
X203677826Y-69753976D01*
X203304894Y-69654049D01*
X203079091Y-69618285D01*
X202926807Y-69594165D01*
X202926799Y-69594164D01*
X202923559Y-69593651D01*
X202538000Y-69573445D01*
X202152441Y-69593651D01*
X202149201Y-69594164D01*
X202149193Y-69594165D01*
X201996909Y-69618285D01*
X201771106Y-69654049D01*
X201398174Y-69753976D01*
X201395086Y-69755161D01*
X201395084Y-69755162D01*
X201387691Y-69758000D01*
X201037730Y-69892337D01*
X201034790Y-69893835D01*
X200696664Y-70066119D01*
X200696657Y-70066123D01*
X200693723Y-70067618D01*
X200690957Y-70069414D01*
X200690954Y-70069416D01*
X200563299Y-70152316D01*
X200369922Y-70277896D01*
X200069875Y-70520869D01*
X199796869Y-70793875D01*
X199553896Y-71093922D01*
X199343618Y-71417723D01*
X199342123Y-71420657D01*
X199342119Y-71420664D01*
X199181347Y-71736197D01*
X199168337Y-71761730D01*
X199029976Y-72122174D01*
X198930049Y-72495106D01*
X198908685Y-72629995D01*
X198874687Y-72844647D01*
X198869651Y-72876441D01*
X198849445Y-73262000D01*
X130508500Y-73262000D01*
X130508500Y-69134526D01*
X210965050Y-69134526D01*
X210977947Y-69403019D01*
X211030388Y-69666656D01*
X211121220Y-69919646D01*
X211248450Y-70156431D01*
X211251241Y-70160168D01*
X211251245Y-70160175D01*
X211338443Y-70276947D01*
X211409281Y-70371810D01*
X211412590Y-70375090D01*
X211412595Y-70375096D01*
X211562011Y-70523213D01*
X211600180Y-70561050D01*
X211603942Y-70563808D01*
X211603945Y-70563811D01*
X211607382Y-70566331D01*
X211816954Y-70719995D01*
X211821089Y-70722171D01*
X211821093Y-70722173D01*
X212005850Y-70819379D01*
X212054840Y-70845154D01*
X212308613Y-70933775D01*
X212313206Y-70934647D01*
X212568109Y-70983042D01*
X212568112Y-70983042D01*
X212572698Y-70983913D01*
X212700370Y-70988929D01*
X212836625Y-70994283D01*
X212836630Y-70994283D01*
X212841293Y-70994466D01*
X212945607Y-70983042D01*
X213103844Y-70965713D01*
X213103850Y-70965712D01*
X213108497Y-70965203D01*
X213113021Y-70964012D01*
X213363918Y-70897956D01*
X213363920Y-70897955D01*
X213368441Y-70896765D01*
X213372738Y-70894919D01*
X213611120Y-70792502D01*
X213611122Y-70792501D01*
X213615414Y-70790657D01*
X213734071Y-70717230D01*
X213840017Y-70651669D01*
X213840021Y-70651666D01*
X213843990Y-70649210D01*
X214049149Y-70475530D01*
X214226382Y-70273434D01*
X214229456Y-70268656D01*
X214369269Y-70051291D01*
X214371797Y-70047361D01*
X214482199Y-69802278D01*
X214519209Y-69671051D01*
X214553893Y-69548072D01*
X214553894Y-69548069D01*
X214555163Y-69543568D01*
X214572093Y-69410486D01*
X214588688Y-69280045D01*
X214588688Y-69280041D01*
X214589086Y-69276915D01*
X214591571Y-69182000D01*
X214571650Y-68913937D01*
X214549059Y-68814096D01*
X214513361Y-68656331D01*
X214513360Y-68656326D01*
X214512327Y-68651763D01*
X214414902Y-68401238D01*
X214281518Y-68167864D01*
X214115105Y-67956769D01*
X213919317Y-67772591D01*
X213762751Y-67663976D01*
X213702299Y-67622039D01*
X213702296Y-67622037D01*
X213698457Y-67619374D01*
X213694264Y-67617306D01*
X213461564Y-67502551D01*
X213461561Y-67502550D01*
X213457376Y-67500486D01*
X213451460Y-67498592D01*
X213355621Y-67467914D01*
X213201370Y-67418538D01*
X213196763Y-67417788D01*
X213196760Y-67417787D01*
X212989846Y-67384089D01*
X212936063Y-67375330D01*
X212805719Y-67373624D01*
X212671961Y-67371873D01*
X212671958Y-67371873D01*
X212667284Y-67371812D01*
X212400937Y-67408060D01*
X212142874Y-67483278D01*
X211898763Y-67595815D01*
X211894854Y-67598378D01*
X211677881Y-67740631D01*
X211677876Y-67740635D01*
X211673968Y-67743197D01*
X211473426Y-67922188D01*
X211419996Y-67986431D01*
X211322686Y-68103434D01*
X211301544Y-68128854D01*
X211162096Y-68358656D01*
X211160287Y-68362970D01*
X211160285Y-68362974D01*
X211104821Y-68495242D01*
X211058148Y-68606545D01*
X210991981Y-68867077D01*
X210965050Y-69134526D01*
X130508500Y-69134526D01*
X130508500Y-66964526D01*
X214725050Y-66964526D01*
X214725274Y-66969192D01*
X214725274Y-66969197D01*
X214726062Y-66985592D01*
X214737947Y-67233019D01*
X214790388Y-67496656D01*
X214881220Y-67749646D01*
X214883432Y-67753762D01*
X214883433Y-67753765D01*
X214937162Y-67853758D01*
X215008450Y-67986431D01*
X215011241Y-67990168D01*
X215011245Y-67990175D01*
X215092887Y-68099506D01*
X215169281Y-68201810D01*
X215172590Y-68205090D01*
X215172595Y-68205096D01*
X215351331Y-68382278D01*
X215360180Y-68391050D01*
X215363942Y-68393808D01*
X215363945Y-68393811D01*
X215513904Y-68503765D01*
X215576954Y-68549995D01*
X215581089Y-68552171D01*
X215581093Y-68552173D01*
X215810698Y-68672975D01*
X215814840Y-68675154D01*
X215957346Y-68724919D01*
X216001033Y-68740175D01*
X216068613Y-68763775D01*
X216073206Y-68764647D01*
X216328109Y-68813042D01*
X216328112Y-68813042D01*
X216332698Y-68813913D01*
X216460370Y-68818929D01*
X216596625Y-68824283D01*
X216596630Y-68824283D01*
X216601293Y-68824466D01*
X216705607Y-68813042D01*
X216863844Y-68795713D01*
X216863850Y-68795712D01*
X216868497Y-68795203D01*
X216873021Y-68794012D01*
X217123918Y-68727956D01*
X217123920Y-68727955D01*
X217128441Y-68726765D01*
X217132738Y-68724919D01*
X217371120Y-68622502D01*
X217371122Y-68622501D01*
X217375414Y-68620657D01*
X217578083Y-68495242D01*
X217600017Y-68481669D01*
X217600021Y-68481666D01*
X217603990Y-68479210D01*
X217809149Y-68305530D01*
X217986382Y-68103434D01*
X218131797Y-67877361D01*
X218242199Y-67632278D01*
X218279770Y-67499063D01*
X218313893Y-67378072D01*
X218313894Y-67378069D01*
X218315163Y-67373568D01*
X218333203Y-67231763D01*
X218348688Y-67110045D01*
X218348688Y-67110041D01*
X218349086Y-67106915D01*
X218351571Y-67012000D01*
X218351337Y-67008851D01*
X218331996Y-66748592D01*
X218331996Y-66748591D01*
X218331650Y-66743937D01*
X218330619Y-66739379D01*
X218273361Y-66486331D01*
X218273360Y-66486326D01*
X218272327Y-66481763D01*
X218174902Y-66231238D01*
X218041518Y-65997864D01*
X217875105Y-65786769D01*
X217679317Y-65602591D01*
X217458457Y-65449374D01*
X217454264Y-65447306D01*
X217221564Y-65332551D01*
X217221561Y-65332550D01*
X217217376Y-65330486D01*
X217169745Y-65315239D01*
X217115621Y-65297914D01*
X216961370Y-65248538D01*
X216956763Y-65247788D01*
X216956760Y-65247787D01*
X216700674Y-65206081D01*
X216700675Y-65206081D01*
X216696063Y-65205330D01*
X216565719Y-65203624D01*
X216431961Y-65201873D01*
X216431958Y-65201873D01*
X216427284Y-65201812D01*
X216160937Y-65238060D01*
X215902874Y-65313278D01*
X215658763Y-65425815D01*
X215654854Y-65428378D01*
X215437881Y-65570631D01*
X215437876Y-65570635D01*
X215433968Y-65573197D01*
X215233426Y-65752188D01*
X215061544Y-65958854D01*
X215059121Y-65962847D01*
X215005020Y-66052003D01*
X214922096Y-66188656D01*
X214920287Y-66192970D01*
X214920285Y-66192974D01*
X214864371Y-66326314D01*
X214818148Y-66436545D01*
X214751981Y-66697077D01*
X214725050Y-66964526D01*
X130508500Y-66964526D01*
X130508500Y-62016381D01*
X132849160Y-62016381D01*
X132849237Y-62017470D01*
X132851698Y-62021206D01*
X133125632Y-62231404D01*
X133131262Y-62235259D01*
X133431591Y-62417862D01*
X133437593Y-62421080D01*
X133755897Y-62570184D01*
X133762202Y-62572732D01*
X134094743Y-62686587D01*
X134101313Y-62688446D01*
X134444183Y-62765714D01*
X134450912Y-62766853D01*
X134800143Y-62806643D01*
X134806933Y-62807046D01*
X135158419Y-62808886D01*
X135165220Y-62808554D01*
X135514853Y-62772423D01*
X135521581Y-62771357D01*
X135865274Y-62697676D01*
X135871822Y-62695897D01*
X136205549Y-62585527D01*
X136211891Y-62583041D01*
X136531718Y-62437288D01*
X136537777Y-62434121D01*
X136839995Y-62254676D01*
X136845659Y-62250884D01*
X137126732Y-62039849D01*
X137131958Y-62035464D01*
X137141613Y-62026428D01*
X137149682Y-62012750D01*
X137149654Y-62012024D01*
X137144512Y-62003723D01*
X135012810Y-59872020D01*
X134998869Y-59864408D01*
X134997034Y-59864539D01*
X134990420Y-59868790D01*
X132856774Y-62002437D01*
X132849160Y-62016381D01*
X130508500Y-62016381D01*
X130508500Y-59491832D01*
X131687333Y-59491832D01*
X131705117Y-59842893D01*
X131705827Y-59849649D01*
X131761420Y-60196723D01*
X131762859Y-60203378D01*
X131855608Y-60542410D01*
X131857757Y-60548871D01*
X131986581Y-60875912D01*
X131989412Y-60882095D01*
X132152803Y-61193310D01*
X132156286Y-61199152D01*
X132352330Y-61490896D01*
X132356433Y-61496340D01*
X132476425Y-61638836D01*
X132489164Y-61647279D01*
X132499608Y-61641181D01*
X134627980Y-59512810D01*
X134634357Y-59501131D01*
X135364408Y-59501131D01*
X135364539Y-59502966D01*
X135368790Y-59509580D01*
X137499009Y-61639798D01*
X137512605Y-61647223D01*
X137522218Y-61640522D01*
X137622518Y-61523912D01*
X137626676Y-61518514D01*
X137680545Y-61440134D01*
X162563500Y-61440134D01*
X162570255Y-61502316D01*
X162621385Y-61638705D01*
X162708739Y-61755261D01*
X162825295Y-61842615D01*
X162961684Y-61893745D01*
X163023866Y-61900500D01*
X165620134Y-61900500D01*
X165682316Y-61893745D01*
X165818705Y-61842615D01*
X165935261Y-61755261D01*
X166022615Y-61638705D01*
X166073745Y-61502316D01*
X166080500Y-61440134D01*
X166080500Y-58843866D01*
X166073745Y-58781684D01*
X166022615Y-58645295D01*
X165935261Y-58528739D01*
X165818705Y-58441385D01*
X165682316Y-58390255D01*
X165620134Y-58383500D01*
X163023866Y-58383500D01*
X162961684Y-58390255D01*
X162825295Y-58441385D01*
X162708739Y-58528739D01*
X162621385Y-58645295D01*
X162570255Y-58781684D01*
X162563500Y-58843866D01*
X162563500Y-61440134D01*
X137680545Y-61440134D01*
X137825762Y-61228840D01*
X137829310Y-61223029D01*
X137995942Y-60913559D01*
X137998849Y-60907381D01*
X138131090Y-60581713D01*
X138133304Y-60575283D01*
X138229598Y-60237237D01*
X138231105Y-60230607D01*
X138290332Y-59884118D01*
X138291112Y-59877378D01*
X138312668Y-59524925D01*
X138312784Y-59521323D01*
X138312853Y-59501819D01*
X138312761Y-59498194D01*
X138293666Y-59145615D01*
X138292931Y-59138849D01*
X138236130Y-58791985D01*
X138234663Y-58785313D01*
X138140736Y-58446627D01*
X138138562Y-58440163D01*
X138008598Y-58113578D01*
X138005742Y-58107398D01*
X137841269Y-57796763D01*
X137837769Y-57790937D01*
X137640697Y-57499862D01*
X137636590Y-57494453D01*
X137523565Y-57361179D01*
X137510740Y-57352743D01*
X137500416Y-57358795D01*
X135372020Y-59487190D01*
X135364408Y-59501131D01*
X134634357Y-59501131D01*
X134635592Y-59498869D01*
X134635461Y-59497034D01*
X134631210Y-59490420D01*
X132500992Y-57360203D01*
X132487455Y-57352811D01*
X132477753Y-57359599D01*
X132370430Y-57485257D01*
X132366296Y-57490664D01*
X132168215Y-57781041D01*
X132164697Y-57786851D01*
X131999134Y-58096922D01*
X131996259Y-58103087D01*
X131865155Y-58429218D01*
X131862962Y-58435658D01*
X131767846Y-58774044D01*
X131766363Y-58780679D01*
X131708350Y-59127354D01*
X131707591Y-59134126D01*
X131687357Y-59485037D01*
X131687333Y-59491832D01*
X130508500Y-59491832D01*
X130508500Y-56986862D01*
X132849950Y-56986862D01*
X132849986Y-56987704D01*
X132855037Y-56995826D01*
X134987190Y-59127980D01*
X135001131Y-59135592D01*
X135002966Y-59135461D01*
X135009580Y-59131210D01*
X137142798Y-56997991D01*
X137150412Y-56984047D01*
X137150344Y-56983089D01*
X137145836Y-56976272D01*
X137144418Y-56975065D01*
X136864813Y-56762064D01*
X136859187Y-56758240D01*
X136558214Y-56576681D01*
X136552202Y-56573484D01*
X136233370Y-56425487D01*
X136227070Y-56422967D01*
X135894129Y-56310273D01*
X135887551Y-56308437D01*
X135544417Y-56232367D01*
X135537678Y-56231251D01*
X135188310Y-56192680D01*
X135181529Y-56192301D01*
X134830015Y-56191687D01*
X134823242Y-56192042D01*
X134473720Y-56229395D01*
X134467010Y-56230482D01*
X134123586Y-56305361D01*
X134117011Y-56307172D01*
X133783683Y-56418702D01*
X133777361Y-56421205D01*
X133458034Y-56568079D01*
X133451991Y-56571265D01*
X133150401Y-56751763D01*
X133144755Y-56755571D01*
X132864408Y-56967596D01*
X132859211Y-56971987D01*
X132857972Y-56973155D01*
X132849950Y-56986862D01*
X130508500Y-56986862D01*
X130508500Y-55834500D01*
X130528502Y-55766379D01*
X130582158Y-55719886D01*
X130634500Y-55708500D01*
X179387737Y-55708500D01*
X179455858Y-55728502D01*
G37*
%TD.AperFunction*%
%TD*%
M02*
