%TF.GenerationSoftware,KiCad,Pcbnew,6.0.4-6f826c9f35~116~ubuntu21.10.1*%
%TF.CreationDate,2022-05-06T18:09:40-07:00*%
%TF.ProjectId,HV_Amplifier,48565f41-6d70-46c6-9966-6965722e6b69,rev?*%
%TF.SameCoordinates,Original*%
%TF.FileFunction,Soldermask,Bot*%
%TF.FilePolarity,Negative*%
%FSLAX46Y46*%
G04 Gerber Fmt 4.6, Leading zero omitted, Abs format (unit mm)*
G04 Created by KiCad (PCBNEW 6.0.4-6f826c9f35~116~ubuntu21.10.1) date 2022-05-06 18:09:40*
%MOMM*%
%LPD*%
G01*
G04 APERTURE LIST*
%ADD10C,2.600000*%
%ADD11C,6.350000*%
%ADD12C,5.600000*%
%ADD13O,1.600000X2.500000*%
%ADD14O,3.500000X7.000000*%
%ADD15R,2.500000X2.500000*%
%ADD16O,4.000000X1.600000*%
%ADD17O,1.600000X4.000000*%
%ADD18C,2.500000*%
%ADD19C,1.800000*%
%ADD20R,1.700000X1.700000*%
%ADD21O,1.700000X1.700000*%
G04 APERTURE END LIST*
D10*
%TO.C,U1*%
X212778000Y-77342000D03*
X216538000Y-79512000D03*
X220818000Y-78762000D03*
X223608000Y-75432000D03*
X223608000Y-71092000D03*
X220818000Y-67762000D03*
X216538000Y-67012000D03*
X212778000Y-69182000D03*
D11*
X232738000Y-73262000D03*
X202538000Y-73262000D03*
%TD*%
D12*
%TO.C,H2*%
X160000000Y-101500000D03*
%TD*%
D13*
%TO.C,J4*%
X209600000Y-97350000D03*
D14*
X214680000Y-102430000D03*
X204520000Y-102430000D03*
D13*
X212140000Y-97350000D03*
%TD*%
D15*
%TO.C,TP3*%
X244180000Y-68000000D03*
%TD*%
D16*
%TO.C,J3*%
X135450000Y-100250000D03*
X135450000Y-106250000D03*
D17*
X140150000Y-103250000D03*
%TD*%
D15*
%TO.C,J5*%
X229255000Y-115000000D03*
D18*
X234335000Y-115000000D03*
%TD*%
D19*
%TO.C,RV1*%
X245852000Y-92214000D03*
X243312000Y-99834000D03*
X245852000Y-104914000D03*
%TD*%
D15*
%TO.C,J1*%
X151980000Y-115000000D03*
D18*
X157060000Y-115000000D03*
X162140000Y-115000000D03*
X167220000Y-115000000D03*
%TD*%
D12*
%TO.C,H3*%
X135000000Y-59500000D03*
%TD*%
D15*
%TO.C,TP4*%
X195810000Y-88530000D03*
%TD*%
D13*
%TO.C,J2*%
X185300000Y-97250000D03*
D14*
X190380000Y-102330000D03*
X180220000Y-102330000D03*
D13*
X187840000Y-97250000D03*
%TD*%
D12*
%TO.C,H4*%
X244000000Y-59500000D03*
%TD*%
D15*
%TO.C,TP1*%
X164322000Y-60142000D03*
%TD*%
D12*
%TO.C,H1*%
X232000000Y-101500000D03*
%TD*%
D15*
%TO.C,TP2*%
X177300000Y-60200000D03*
%TD*%
D20*
%TO.C,JP1*%
X139552000Y-84308000D03*
D21*
X137012000Y-84308000D03*
%TD*%
M02*
