M48
; DRILL file {KiCad 6.0.4-6f826c9f35~116~ubuntu21.10.1} date Fri 06 May 2022 06:09:37 PM PDT
; FORMAT={-:-/ absolute / inch / decimal}
; #@! TF.CreationDate,2022-05-06T18:09:37-07:00
; #@! TF.GenerationSoftware,Kicad,Pcbnew,6.0.4-6f826c9f35~116~ubuntu21.10.1
; #@! TF.FileFunction,MixedPlating,1,2
FMAT,2
INCH
; #@! TA.AperFunction,Plated,PTH,ViaDrill
T1C0.0157
; #@! TA.AperFunction,Plated,PTH,ComponentDrill
T2C0.0350
; #@! TA.AperFunction,Plated,PTH,ComponentDrill
T3C0.0394
; #@! TA.AperFunction,Plated,PTH,ComponentDrill
T4C0.0433
; #@! TA.AperFunction,Plated,PTH,ComponentDrill
T5C0.0472
; #@! TA.AperFunction,Plated,PTH,ComponentDrill
T6C0.0512
; #@! TA.AperFunction,Plated,PTH,ComponentDrill
T7C0.0791
; #@! TA.AperFunction,Plated,PTH,ComponentDrill
T8C0.1260
; #@! TA.AperFunction,Plated,PTH,ComponentDrill
T9C0.1575
%
G90
G05
T1
X5.7543Y-2.7665
X5.7543Y-2.9071
X5.7677Y-3.878
X5.8661Y-2.7665
X5.8661Y-2.9071
X5.8661Y-3.563
X5.9811Y-2.7665
X5.9811Y-2.9071
X6.4161Y-3.1598
X6.5043Y-3.4417
X6.7154Y-4.0748
X7.1598Y-2.9587
X7.2886Y-3.539
X7.3028Y-3.0213
X8.422Y-3.2953
X8.498Y-2.8555
X8.7555Y-3.2937
X8.8354Y-3.6646
X9.3146Y-2.4685
T2
X7.2953Y-3.8287
X7.3953Y-3.8287
X8.252Y-3.8327
X8.352Y-3.8327
T3
X5.3942Y-3.3192
X5.4942Y-3.3192
X9.5792Y-3.9305
X9.6792Y-3.6305
X9.6792Y-4.1305
T5
X6.4694Y-2.3678
X6.9803Y-2.3701
X7.7091Y-3.4854
X9.6134Y-2.6772
T6
X5.9835Y-4.5276
X6.1835Y-4.5276
X6.3835Y-4.5276
X6.5835Y-4.5276
X8.3771Y-2.7237
X8.3771Y-3.045
X8.5251Y-2.6383
X8.5251Y-3.1304
X8.6936Y-2.6678
X8.6936Y-3.1009
X8.8035Y-2.7989
X8.8035Y-2.9698
X9.0258Y-4.5276
X9.2258Y-4.5276
T7
X7.0953Y-4.0287
X7.4953Y-4.0287
X8.052Y-4.0327
X8.452Y-4.0327
T8
X5.315Y-2.3425
X6.2992Y-3.9961
X9.1339Y-3.9961
X9.6063Y-2.3425
T9
X7.9739Y-2.8843
X9.1629Y-2.8843
T4
G00X5.2854Y-3.9469
M15
G01X5.3799Y-3.9469
M16
G05
G00X5.2854Y-4.1831
M15
G01X5.3799Y-4.1831
M16
G05
G00X5.5177Y-4.0177
M15
G01X5.5177Y-4.1122
M16
G05
T0
M30
