%TF.GenerationSoftware,KiCad,Pcbnew,6.0.4-6f826c9f35~116~ubuntu21.10.1*%
%TF.CreationDate,2022-05-06T18:09:40-07:00*%
%TF.ProjectId,HV_Amplifier,48565f41-6d70-46c6-9966-6965722e6b69,rev?*%
%TF.SameCoordinates,Original*%
%TF.FileFunction,Legend,Top*%
%TF.FilePolarity,Positive*%
%FSLAX46Y46*%
G04 Gerber Fmt 4.6, Leading zero omitted, Abs format (unit mm)*
G04 Created by KiCad (PCBNEW 6.0.4-6f826c9f35~116~ubuntu21.10.1) date 2022-05-06 18:09:40*
%MOMM*%
%LPD*%
G01*
G04 APERTURE LIST*
%ADD10C,0.120000*%
%ADD11C,0.314000*%
%ADD12C,0.150000*%
%ADD13C,0.200000*%
G04 APERTURE END LIST*
D10*
X137012000Y-89134000D02*
X139552000Y-89134000D01*
X176006000Y-76652000D02*
X175752000Y-76652000D01*
D11*
X137169000Y-87356000D02*
G75*
G03*
X137169000Y-87356000I-157000J0D01*
G01*
D10*
X140314000Y-88118000D02*
X136250000Y-88118000D01*
X136250000Y-88118000D02*
X136250000Y-89896000D01*
X140314000Y-86594000D02*
X140314000Y-88118000D01*
D11*
X137169000Y-89134000D02*
G75*
G03*
X137169000Y-89134000I-157000J0D01*
G01*
D10*
X136250000Y-88118000D02*
X136250000Y-86594000D01*
X136250000Y-89896000D02*
X140314000Y-89896000D01*
D11*
X139709000Y-89134000D02*
G75*
G03*
X139709000Y-89134000I-157000J0D01*
G01*
D10*
X136250000Y-86594000D02*
X140314000Y-86594000D01*
X167624000Y-62428000D02*
X167624000Y-81478000D01*
D11*
X139709000Y-87356000D02*
G75*
G03*
X139709000Y-87356000I-157000J0D01*
G01*
D10*
X140314000Y-89896000D02*
X140314000Y-88118000D01*
D12*
X195067142Y-90820000D02*
X194924285Y-90748571D01*
X194710000Y-90748571D01*
X194495714Y-90820000D01*
X194352857Y-90962857D01*
X194281428Y-91105714D01*
X194210000Y-91391428D01*
X194210000Y-91605714D01*
X194281428Y-91891428D01*
X194352857Y-92034285D01*
X194495714Y-92177142D01*
X194710000Y-92248571D01*
X194852857Y-92248571D01*
X195067142Y-92177142D01*
X195138571Y-92105714D01*
X195138571Y-91605714D01*
X194852857Y-91605714D01*
X195781428Y-92248571D02*
X195781428Y-90748571D01*
X196638571Y-92248571D01*
X196638571Y-90748571D01*
X197352857Y-92248571D02*
X197352857Y-90748571D01*
X197710000Y-90748571D01*
X197924285Y-90820000D01*
X198067142Y-90962857D01*
X198138571Y-91105714D01*
X198210000Y-91391428D01*
X198210000Y-91605714D01*
X198138571Y-91891428D01*
X198067142Y-92034285D01*
X197924285Y-92177142D01*
X197710000Y-92248571D01*
X197352857Y-92248571D01*
D13*
X169045142Y-60503142D02*
X170188000Y-60503142D01*
X170688000Y-59574571D02*
X171188000Y-61074571D01*
X171688000Y-59574571D01*
X172188000Y-61074571D02*
X172188000Y-59574571D01*
X172188000Y-60288857D02*
X173045142Y-60288857D01*
X173045142Y-61074571D02*
X173045142Y-59574571D01*
X173545142Y-59574571D02*
X174045142Y-61074571D01*
X174545142Y-59574571D01*
D12*
X181777142Y-58693571D02*
X181777142Y-57193571D01*
X181777142Y-57907857D02*
X182634285Y-57907857D01*
X182634285Y-58693571D02*
X182634285Y-57193571D01*
X183348571Y-58693571D02*
X183348571Y-57693571D01*
X183348571Y-57193571D02*
X183277142Y-57265000D01*
X183348571Y-57336428D01*
X183420000Y-57265000D01*
X183348571Y-57193571D01*
X183348571Y-57336428D01*
X184705714Y-57693571D02*
X184705714Y-58907857D01*
X184634285Y-59050714D01*
X184562857Y-59122142D01*
X184420000Y-59193571D01*
X184205714Y-59193571D01*
X184062857Y-59122142D01*
X184705714Y-58622142D02*
X184562857Y-58693571D01*
X184277142Y-58693571D01*
X184134285Y-58622142D01*
X184062857Y-58550714D01*
X183991428Y-58407857D01*
X183991428Y-57979285D01*
X184062857Y-57836428D01*
X184134285Y-57765000D01*
X184277142Y-57693571D01*
X184562857Y-57693571D01*
X184705714Y-57765000D01*
X185420000Y-58693571D02*
X185420000Y-57193571D01*
X186062857Y-58693571D02*
X186062857Y-57907857D01*
X185991428Y-57765000D01*
X185848571Y-57693571D01*
X185634285Y-57693571D01*
X185491428Y-57765000D01*
X185420000Y-57836428D01*
X187705714Y-57193571D02*
X188205714Y-58693571D01*
X188705714Y-57193571D01*
X189420000Y-58693571D02*
X189277142Y-58622142D01*
X189205714Y-58550714D01*
X189134285Y-58407857D01*
X189134285Y-57979285D01*
X189205714Y-57836428D01*
X189277142Y-57765000D01*
X189420000Y-57693571D01*
X189634285Y-57693571D01*
X189777142Y-57765000D01*
X189848571Y-57836428D01*
X189920000Y-57979285D01*
X189920000Y-58407857D01*
X189848571Y-58550714D01*
X189777142Y-58622142D01*
X189634285Y-58693571D01*
X189420000Y-58693571D01*
X190777142Y-58693571D02*
X190634285Y-58622142D01*
X190562857Y-58479285D01*
X190562857Y-57193571D01*
X191134285Y-57693571D02*
X191705714Y-57693571D01*
X191348571Y-57193571D02*
X191348571Y-58479285D01*
X191420000Y-58622142D01*
X191562857Y-58693571D01*
X191705714Y-58693571D01*
X192848571Y-58693571D02*
X192848571Y-57907857D01*
X192777142Y-57765000D01*
X192634285Y-57693571D01*
X192348571Y-57693571D01*
X192205714Y-57765000D01*
X192848571Y-58622142D02*
X192705714Y-58693571D01*
X192348571Y-58693571D01*
X192205714Y-58622142D01*
X192134285Y-58479285D01*
X192134285Y-58336428D01*
X192205714Y-58193571D01*
X192348571Y-58122142D01*
X192705714Y-58122142D01*
X192848571Y-58050714D01*
X194205714Y-57693571D02*
X194205714Y-58907857D01*
X194134285Y-59050714D01*
X194062857Y-59122142D01*
X193920000Y-59193571D01*
X193705714Y-59193571D01*
X193562857Y-59122142D01*
X194205714Y-58622142D02*
X194062857Y-58693571D01*
X193777142Y-58693571D01*
X193634285Y-58622142D01*
X193562857Y-58550714D01*
X193491428Y-58407857D01*
X193491428Y-57979285D01*
X193562857Y-57836428D01*
X193634285Y-57765000D01*
X193777142Y-57693571D01*
X194062857Y-57693571D01*
X194205714Y-57765000D01*
X195491428Y-58622142D02*
X195348571Y-58693571D01*
X195062857Y-58693571D01*
X194920000Y-58622142D01*
X194848571Y-58479285D01*
X194848571Y-57907857D01*
X194920000Y-57765000D01*
X195062857Y-57693571D01*
X195348571Y-57693571D01*
X195491428Y-57765000D01*
X195562857Y-57907857D01*
X195562857Y-58050714D01*
X194848571Y-58193571D01*
X197277142Y-58265000D02*
X197991428Y-58265000D01*
X197134285Y-58693571D02*
X197634285Y-57193571D01*
X198134285Y-58693571D01*
X198634285Y-58693571D02*
X198634285Y-57693571D01*
X198634285Y-57836428D02*
X198705714Y-57765000D01*
X198848571Y-57693571D01*
X199062857Y-57693571D01*
X199205714Y-57765000D01*
X199277142Y-57907857D01*
X199277142Y-58693571D01*
X199277142Y-57907857D02*
X199348571Y-57765000D01*
X199491428Y-57693571D01*
X199705714Y-57693571D01*
X199848571Y-57765000D01*
X199920000Y-57907857D01*
X199920000Y-58693571D01*
X200634285Y-57693571D02*
X200634285Y-59193571D01*
X200634285Y-57765000D02*
X200777142Y-57693571D01*
X201062857Y-57693571D01*
X201205714Y-57765000D01*
X201277142Y-57836428D01*
X201348571Y-57979285D01*
X201348571Y-58407857D01*
X201277142Y-58550714D01*
X201205714Y-58622142D01*
X201062857Y-58693571D01*
X200777142Y-58693571D01*
X200634285Y-58622142D01*
X202205714Y-58693571D02*
X202062857Y-58622142D01*
X201991428Y-58479285D01*
X201991428Y-57193571D01*
X202777142Y-58693571D02*
X202777142Y-57693571D01*
X202777142Y-57193571D02*
X202705714Y-57265000D01*
X202777142Y-57336428D01*
X202848571Y-57265000D01*
X202777142Y-57193571D01*
X202777142Y-57336428D01*
X203277142Y-57693571D02*
X203848571Y-57693571D01*
X203491428Y-58693571D02*
X203491428Y-57407857D01*
X203562857Y-57265000D01*
X203705714Y-57193571D01*
X203848571Y-57193571D01*
X204348571Y-58693571D02*
X204348571Y-57693571D01*
X204348571Y-57193571D02*
X204277142Y-57265000D01*
X204348571Y-57336428D01*
X204420000Y-57265000D01*
X204348571Y-57193571D01*
X204348571Y-57336428D01*
X205634285Y-58622142D02*
X205491428Y-58693571D01*
X205205714Y-58693571D01*
X205062857Y-58622142D01*
X204991428Y-58479285D01*
X204991428Y-57907857D01*
X205062857Y-57765000D01*
X205205714Y-57693571D01*
X205491428Y-57693571D01*
X205634285Y-57765000D01*
X205705714Y-57907857D01*
X205705714Y-58050714D01*
X204991428Y-58193571D01*
X206348571Y-58693571D02*
X206348571Y-57693571D01*
X206348571Y-57979285D02*
X206420000Y-57836428D01*
X206491428Y-57765000D01*
X206634285Y-57693571D01*
X206777142Y-57693571D01*
X184277142Y-60537142D02*
X185420000Y-60537142D01*
X184848571Y-61108571D02*
X184848571Y-59965714D01*
X187205714Y-59537142D02*
X185920000Y-61465714D01*
X187705714Y-60537142D02*
X188848571Y-60537142D01*
X190634285Y-59751428D02*
X190705714Y-59680000D01*
X190848571Y-59608571D01*
X191205714Y-59608571D01*
X191348571Y-59680000D01*
X191420000Y-59751428D01*
X191491428Y-59894285D01*
X191491428Y-60037142D01*
X191420000Y-60251428D01*
X190562857Y-61108571D01*
X191491428Y-61108571D01*
X192420000Y-59608571D02*
X192562857Y-59608571D01*
X192705714Y-59680000D01*
X192777142Y-59751428D01*
X192848571Y-59894285D01*
X192920000Y-60180000D01*
X192920000Y-60537142D01*
X192848571Y-60822857D01*
X192777142Y-60965714D01*
X192705714Y-61037142D01*
X192562857Y-61108571D01*
X192420000Y-61108571D01*
X192277142Y-61037142D01*
X192205714Y-60965714D01*
X192134285Y-60822857D01*
X192062857Y-60537142D01*
X192062857Y-60180000D01*
X192134285Y-59894285D01*
X192205714Y-59751428D01*
X192277142Y-59680000D01*
X192420000Y-59608571D01*
X193848571Y-59608571D02*
X193991428Y-59608571D01*
X194134285Y-59680000D01*
X194205714Y-59751428D01*
X194277142Y-59894285D01*
X194348571Y-60180000D01*
X194348571Y-60537142D01*
X194277142Y-60822857D01*
X194205714Y-60965714D01*
X194134285Y-61037142D01*
X193991428Y-61108571D01*
X193848571Y-61108571D01*
X193705714Y-61037142D01*
X193634285Y-60965714D01*
X193562857Y-60822857D01*
X193491428Y-60537142D01*
X193491428Y-60180000D01*
X193562857Y-59894285D01*
X193634285Y-59751428D01*
X193705714Y-59680000D01*
X193848571Y-59608571D01*
X194777142Y-59608571D02*
X195277142Y-61108571D01*
X195777142Y-59608571D01*
X197705714Y-59608571D02*
X197991428Y-59608571D01*
X198134285Y-59680000D01*
X198277142Y-59822857D01*
X198348571Y-60108571D01*
X198348571Y-60608571D01*
X198277142Y-60894285D01*
X198134285Y-61037142D01*
X197991428Y-61108571D01*
X197705714Y-61108571D01*
X197562857Y-61037142D01*
X197420000Y-60894285D01*
X197348571Y-60608571D01*
X197348571Y-60108571D01*
X197420000Y-59822857D01*
X197562857Y-59680000D01*
X197705714Y-59608571D01*
X199634285Y-60108571D02*
X199634285Y-61108571D01*
X198991428Y-60108571D02*
X198991428Y-60894285D01*
X199062857Y-61037142D01*
X199205714Y-61108571D01*
X199420000Y-61108571D01*
X199562857Y-61037142D01*
X199634285Y-60965714D01*
X200134285Y-60108571D02*
X200705714Y-60108571D01*
X200348571Y-59608571D02*
X200348571Y-60894285D01*
X200420000Y-61037142D01*
X200562857Y-61108571D01*
X200705714Y-61108571D01*
X201205714Y-60108571D02*
X201205714Y-61608571D01*
X201205714Y-60180000D02*
X201348571Y-60108571D01*
X201634285Y-60108571D01*
X201777142Y-60180000D01*
X201848571Y-60251428D01*
X201920000Y-60394285D01*
X201920000Y-60822857D01*
X201848571Y-60965714D01*
X201777142Y-61037142D01*
X201634285Y-61108571D01*
X201348571Y-61108571D01*
X201205714Y-61037142D01*
X203205714Y-60108571D02*
X203205714Y-61108571D01*
X202562857Y-60108571D02*
X202562857Y-60894285D01*
X202634285Y-61037142D01*
X202777142Y-61108571D01*
X202991428Y-61108571D01*
X203134285Y-61037142D01*
X203205714Y-60965714D01*
X203705714Y-60108571D02*
X204277142Y-60108571D01*
X203920000Y-59608571D02*
X203920000Y-60894285D01*
X203991428Y-61037142D01*
X204134285Y-61108571D01*
X204277142Y-61108571D01*
X184491428Y-62023571D02*
X184491428Y-63095000D01*
X184420000Y-63309285D01*
X184277142Y-63452142D01*
X184062857Y-63523571D01*
X183920000Y-63523571D01*
X185777142Y-63452142D02*
X185634285Y-63523571D01*
X185348571Y-63523571D01*
X185205714Y-63452142D01*
X185134285Y-63309285D01*
X185134285Y-62737857D01*
X185205714Y-62595000D01*
X185348571Y-62523571D01*
X185634285Y-62523571D01*
X185777142Y-62595000D01*
X185848571Y-62737857D01*
X185848571Y-62880714D01*
X185134285Y-63023571D01*
X186277142Y-62523571D02*
X186848571Y-62523571D01*
X186491428Y-63523571D02*
X186491428Y-62237857D01*
X186562857Y-62095000D01*
X186705714Y-62023571D01*
X186848571Y-62023571D01*
X187134285Y-62523571D02*
X187705714Y-62523571D01*
X187348571Y-63523571D02*
X187348571Y-62237857D01*
X187420000Y-62095000D01*
X187562857Y-62023571D01*
X187705714Y-62023571D01*
X189348571Y-63523571D02*
X189348571Y-62023571D01*
X189848571Y-63095000D01*
X190348571Y-62023571D01*
X190348571Y-63523571D01*
X191705714Y-63452142D02*
X191562857Y-63523571D01*
X191277142Y-63523571D01*
X191134285Y-63452142D01*
X191062857Y-63380714D01*
X190991428Y-63237857D01*
X190991428Y-62809285D01*
X191062857Y-62666428D01*
X191134285Y-62595000D01*
X191277142Y-62523571D01*
X191562857Y-62523571D01*
X191705714Y-62595000D01*
X192848571Y-62737857D02*
X193062857Y-62809285D01*
X193134285Y-62880714D01*
X193205714Y-63023571D01*
X193205714Y-63237857D01*
X193134285Y-63380714D01*
X193062857Y-63452142D01*
X192920000Y-63523571D01*
X192348571Y-63523571D01*
X192348571Y-62023571D01*
X192848571Y-62023571D01*
X192991428Y-62095000D01*
X193062857Y-62166428D01*
X193134285Y-62309285D01*
X193134285Y-62452142D01*
X193062857Y-62595000D01*
X192991428Y-62666428D01*
X192848571Y-62737857D01*
X192348571Y-62737857D01*
X193848571Y-63523571D02*
X193848571Y-62523571D01*
X193848571Y-62809285D02*
X193920000Y-62666428D01*
X193991428Y-62595000D01*
X194134285Y-62523571D01*
X194277142Y-62523571D01*
X194777142Y-63523571D02*
X194777142Y-62523571D01*
X194777142Y-62023571D02*
X194705714Y-62095000D01*
X194777142Y-62166428D01*
X194848571Y-62095000D01*
X194777142Y-62023571D01*
X194777142Y-62166428D01*
X196134285Y-63523571D02*
X196134285Y-62023571D01*
X196134285Y-63452142D02*
X195991428Y-63523571D01*
X195705714Y-63523571D01*
X195562857Y-63452142D01*
X195491428Y-63380714D01*
X195420000Y-63237857D01*
X195420000Y-62809285D01*
X195491428Y-62666428D01*
X195562857Y-62595000D01*
X195705714Y-62523571D01*
X195991428Y-62523571D01*
X196134285Y-62595000D01*
X197420000Y-63452142D02*
X197277142Y-63523571D01*
X196991428Y-63523571D01*
X196848571Y-63452142D01*
X196777142Y-63309285D01*
X196777142Y-62737857D01*
X196848571Y-62595000D01*
X196991428Y-62523571D01*
X197277142Y-62523571D01*
X197420000Y-62595000D01*
X197491428Y-62737857D01*
X197491428Y-62880714D01*
X196777142Y-63023571D01*
X199205714Y-62166428D02*
X199277142Y-62095000D01*
X199420000Y-62023571D01*
X199777142Y-62023571D01*
X199920000Y-62095000D01*
X199991428Y-62166428D01*
X200062857Y-62309285D01*
X200062857Y-62452142D01*
X199991428Y-62666428D01*
X199134285Y-63523571D01*
X200062857Y-63523571D01*
X200991428Y-62023571D02*
X201134285Y-62023571D01*
X201277142Y-62095000D01*
X201348571Y-62166428D01*
X201420000Y-62309285D01*
X201491428Y-62595000D01*
X201491428Y-62952142D01*
X201420000Y-63237857D01*
X201348571Y-63380714D01*
X201277142Y-63452142D01*
X201134285Y-63523571D01*
X200991428Y-63523571D01*
X200848571Y-63452142D01*
X200777142Y-63380714D01*
X200705714Y-63237857D01*
X200634285Y-62952142D01*
X200634285Y-62595000D01*
X200705714Y-62309285D01*
X200777142Y-62166428D01*
X200848571Y-62095000D01*
X200991428Y-62023571D01*
X202062857Y-62166428D02*
X202134285Y-62095000D01*
X202277142Y-62023571D01*
X202634285Y-62023571D01*
X202777142Y-62095000D01*
X202848571Y-62166428D01*
X202920000Y-62309285D01*
X202920000Y-62452142D01*
X202848571Y-62666428D01*
X201991428Y-63523571D01*
X202920000Y-63523571D01*
X203491428Y-62166428D02*
X203562857Y-62095000D01*
X203705714Y-62023571D01*
X204062857Y-62023571D01*
X204205714Y-62095000D01*
X204277142Y-62166428D01*
X204348571Y-62309285D01*
X204348571Y-62452142D01*
X204277142Y-62666428D01*
X203420000Y-63523571D01*
X204348571Y-63523571D01*
D10*
X166538095Y-120000000D02*
X166442857Y-119952380D01*
X166300000Y-119952380D01*
X166157142Y-120000000D01*
X166061904Y-120095238D01*
X166014285Y-120190476D01*
X165966666Y-120380952D01*
X165966666Y-120523809D01*
X166014285Y-120714285D01*
X166061904Y-120809523D01*
X166157142Y-120904761D01*
X166300000Y-120952380D01*
X166395238Y-120952380D01*
X166538095Y-120904761D01*
X166585714Y-120857142D01*
X166585714Y-120523809D01*
X166395238Y-120523809D01*
X167014285Y-120952380D02*
X167014285Y-119952380D01*
X167585714Y-120952380D01*
X167585714Y-119952380D01*
X168061904Y-120952380D02*
X168061904Y-119952380D01*
X168300000Y-119952380D01*
X168442857Y-120000000D01*
X168538095Y-120095238D01*
X168585714Y-120190476D01*
X168633333Y-120380952D01*
X168633333Y-120523809D01*
X168585714Y-120714285D01*
X168538095Y-120809523D01*
X168442857Y-120904761D01*
X168300000Y-120952380D01*
X168061904Y-120952380D01*
X156238095Y-120000000D02*
X156142857Y-119952380D01*
X156000000Y-119952380D01*
X155857142Y-120000000D01*
X155761904Y-120095238D01*
X155714285Y-120190476D01*
X155666666Y-120380952D01*
X155666666Y-120523809D01*
X155714285Y-120714285D01*
X155761904Y-120809523D01*
X155857142Y-120904761D01*
X156000000Y-120952380D01*
X156095238Y-120952380D01*
X156238095Y-120904761D01*
X156285714Y-120857142D01*
X156285714Y-120523809D01*
X156095238Y-120523809D01*
X156714285Y-120952380D02*
X156714285Y-119952380D01*
X157285714Y-120952380D01*
X157285714Y-119952380D01*
X157761904Y-120952380D02*
X157761904Y-119952380D01*
X158000000Y-119952380D01*
X158142857Y-120000000D01*
X158238095Y-120095238D01*
X158285714Y-120190476D01*
X158333333Y-120380952D01*
X158333333Y-120523809D01*
X158285714Y-120714285D01*
X158238095Y-120809523D01*
X158142857Y-120904761D01*
X158000000Y-120952380D01*
X157761904Y-120952380D01*
D12*
X240500000Y-106880952D02*
X240452380Y-106976190D01*
X240452380Y-107119047D01*
X240500000Y-107261904D01*
X240595238Y-107357142D01*
X240690476Y-107404761D01*
X240880952Y-107452380D01*
X241023809Y-107452380D01*
X241214285Y-107404761D01*
X241309523Y-107357142D01*
X241404761Y-107261904D01*
X241452380Y-107119047D01*
X241452380Y-107023809D01*
X241404761Y-106880952D01*
X241357142Y-106833333D01*
X241023809Y-106833333D01*
X241023809Y-107023809D01*
X241452380Y-105976190D02*
X240928571Y-105976190D01*
X240833333Y-106023809D01*
X240785714Y-106119047D01*
X240785714Y-106309523D01*
X240833333Y-106404761D01*
X241404761Y-105976190D02*
X241452380Y-106071428D01*
X241452380Y-106309523D01*
X241404761Y-106404761D01*
X241309523Y-106452380D01*
X241214285Y-106452380D01*
X241119047Y-106404761D01*
X241071428Y-106309523D01*
X241071428Y-106071428D01*
X241023809Y-105976190D01*
X241452380Y-105500000D02*
X240785714Y-105500000D01*
X240452380Y-105500000D02*
X240500000Y-105547619D01*
X240547619Y-105500000D01*
X240500000Y-105452380D01*
X240452380Y-105500000D01*
X240547619Y-105500000D01*
X240785714Y-105023809D02*
X241452380Y-105023809D01*
X240880952Y-105023809D02*
X240833333Y-104976190D01*
X240785714Y-104880952D01*
X240785714Y-104738095D01*
X240833333Y-104642857D01*
X240928571Y-104595238D01*
X241452380Y-104595238D01*
X241166666Y-103404761D02*
X241166666Y-102928571D01*
X241452380Y-103500000D02*
X240452380Y-103166666D01*
X241452380Y-102833333D01*
X241452380Y-102071428D02*
X240452380Y-102071428D01*
X241404761Y-102071428D02*
X241452380Y-102166666D01*
X241452380Y-102357142D01*
X241404761Y-102452380D01*
X241357142Y-102500000D01*
X241261904Y-102547619D01*
X240976190Y-102547619D01*
X240880952Y-102500000D01*
X240833333Y-102452380D01*
X240785714Y-102357142D01*
X240785714Y-102166666D01*
X240833333Y-102071428D01*
X240785714Y-101595238D02*
X241642857Y-101595238D01*
X241738095Y-101642857D01*
X241785714Y-101738095D01*
X241785714Y-101785714D01*
X240452380Y-101595238D02*
X240500000Y-101642857D01*
X240547619Y-101595238D01*
X240500000Y-101547619D01*
X240452380Y-101595238D01*
X240547619Y-101595238D01*
X242957142Y-70360000D02*
X242814285Y-70288571D01*
X242600000Y-70288571D01*
X242385714Y-70360000D01*
X242242857Y-70502857D01*
X242171428Y-70645714D01*
X242100000Y-70931428D01*
X242100000Y-71145714D01*
X242171428Y-71431428D01*
X242242857Y-71574285D01*
X242385714Y-71717142D01*
X242600000Y-71788571D01*
X242742857Y-71788571D01*
X242957142Y-71717142D01*
X243028571Y-71645714D01*
X243028571Y-71145714D01*
X242742857Y-71145714D01*
X243671428Y-71788571D02*
X243671428Y-70288571D01*
X244528571Y-71788571D01*
X244528571Y-70288571D01*
X245242857Y-71788571D02*
X245242857Y-70288571D01*
X245600000Y-70288571D01*
X245814285Y-70360000D01*
X245957142Y-70502857D01*
X246028571Y-70645714D01*
X246100000Y-70931428D01*
X246100000Y-71145714D01*
X246028571Y-71431428D01*
X245957142Y-71574285D01*
X245814285Y-71717142D01*
X245600000Y-71788571D01*
X245242857Y-71788571D01*
X200852380Y-108623809D02*
X199852380Y-108623809D01*
X200328571Y-108623809D02*
X200328571Y-108052380D01*
X200852380Y-108052380D02*
X199852380Y-108052380D01*
X199852380Y-107719047D02*
X200852380Y-107385714D01*
X199852380Y-107052380D01*
X199852380Y-105766666D02*
X199852380Y-105576190D01*
X199900000Y-105480952D01*
X199995238Y-105385714D01*
X200185714Y-105338095D01*
X200519047Y-105338095D01*
X200709523Y-105385714D01*
X200804761Y-105480952D01*
X200852380Y-105576190D01*
X200852380Y-105766666D01*
X200804761Y-105861904D01*
X200709523Y-105957142D01*
X200519047Y-106004761D01*
X200185714Y-106004761D01*
X199995238Y-105957142D01*
X199900000Y-105861904D01*
X199852380Y-105766666D01*
X199852380Y-104909523D02*
X200661904Y-104909523D01*
X200757142Y-104861904D01*
X200804761Y-104814285D01*
X200852380Y-104719047D01*
X200852380Y-104528571D01*
X200804761Y-104433333D01*
X200757142Y-104385714D01*
X200661904Y-104338095D01*
X199852380Y-104338095D01*
X199852380Y-104004761D02*
X199852380Y-103433333D01*
X200852380Y-103719047D02*
X199852380Y-103719047D01*
D10*
X161123809Y-120857142D02*
X161076190Y-120904761D01*
X160933333Y-120952380D01*
X160838095Y-120952380D01*
X160695238Y-120904761D01*
X160600000Y-120809523D01*
X160552380Y-120714285D01*
X160504761Y-120523809D01*
X160504761Y-120380952D01*
X160552380Y-120190476D01*
X160600000Y-120095238D01*
X160695238Y-120000000D01*
X160838095Y-119952380D01*
X160933333Y-119952380D01*
X161076190Y-120000000D01*
X161123809Y-120047619D01*
X161409523Y-119952380D02*
X161980952Y-119952380D01*
X161695238Y-120952380D02*
X161695238Y-119952380D01*
X162885714Y-120952380D02*
X162552380Y-120476190D01*
X162314285Y-120952380D02*
X162314285Y-119952380D01*
X162695238Y-119952380D01*
X162790476Y-120000000D01*
X162838095Y-120047619D01*
X162885714Y-120142857D01*
X162885714Y-120285714D01*
X162838095Y-120380952D01*
X162790476Y-120428571D01*
X162695238Y-120476190D01*
X162314285Y-120476190D01*
X163790476Y-120952380D02*
X163314285Y-120952380D01*
X163314285Y-119952380D01*
X233738095Y-120000000D02*
X233642857Y-119952380D01*
X233500000Y-119952380D01*
X233357142Y-120000000D01*
X233261904Y-120095238D01*
X233214285Y-120190476D01*
X233166666Y-120380952D01*
X233166666Y-120523809D01*
X233214285Y-120714285D01*
X233261904Y-120809523D01*
X233357142Y-120904761D01*
X233500000Y-120952380D01*
X233595238Y-120952380D01*
X233738095Y-120904761D01*
X233785714Y-120857142D01*
X233785714Y-120523809D01*
X233595238Y-120523809D01*
X234214285Y-120952380D02*
X234214285Y-119952380D01*
X234785714Y-120952380D01*
X234785714Y-119952380D01*
X235261904Y-120952380D02*
X235261904Y-119952380D01*
X235500000Y-119952380D01*
X235642857Y-120000000D01*
X235738095Y-120095238D01*
X235785714Y-120190476D01*
X235833333Y-120380952D01*
X235833333Y-120523809D01*
X235785714Y-120714285D01*
X235738095Y-120809523D01*
X235642857Y-120904761D01*
X235500000Y-120952380D01*
X235261904Y-120952380D01*
D12*
X220200000Y-58442857D02*
X220200000Y-57242857D01*
X220657142Y-57242857D01*
X220771428Y-57300000D01*
X220828571Y-57357142D01*
X220885714Y-57471428D01*
X220885714Y-57642857D01*
X220828571Y-57757142D01*
X220771428Y-57814285D01*
X220657142Y-57871428D01*
X220200000Y-57871428D01*
X221342857Y-58100000D02*
X221914285Y-58100000D01*
X221228571Y-58442857D02*
X221628571Y-57242857D01*
X222028571Y-58442857D01*
X222600000Y-57757142D02*
X222485714Y-57700000D01*
X222428571Y-57642857D01*
X222371428Y-57528571D01*
X222371428Y-57471428D01*
X222428571Y-57357142D01*
X222485714Y-57300000D01*
X222600000Y-57242857D01*
X222828571Y-57242857D01*
X222942857Y-57300000D01*
X223000000Y-57357142D01*
X223057142Y-57471428D01*
X223057142Y-57528571D01*
X223000000Y-57642857D01*
X222942857Y-57700000D01*
X222828571Y-57757142D01*
X222600000Y-57757142D01*
X222485714Y-57814285D01*
X222428571Y-57871428D01*
X222371428Y-57985714D01*
X222371428Y-58214285D01*
X222428571Y-58328571D01*
X222485714Y-58385714D01*
X222600000Y-58442857D01*
X222828571Y-58442857D01*
X222942857Y-58385714D01*
X223000000Y-58328571D01*
X223057142Y-58214285D01*
X223057142Y-57985714D01*
X223000000Y-57871428D01*
X222942857Y-57814285D01*
X222828571Y-57757142D01*
X223742857Y-57757142D02*
X223628571Y-57700000D01*
X223571428Y-57642857D01*
X223514285Y-57528571D01*
X223514285Y-57471428D01*
X223571428Y-57357142D01*
X223628571Y-57300000D01*
X223742857Y-57242857D01*
X223971428Y-57242857D01*
X224085714Y-57300000D01*
X224142857Y-57357142D01*
X224200000Y-57471428D01*
X224200000Y-57528571D01*
X224142857Y-57642857D01*
X224085714Y-57700000D01*
X223971428Y-57757142D01*
X223742857Y-57757142D01*
X223628571Y-57814285D01*
X223571428Y-57871428D01*
X223514285Y-57985714D01*
X223514285Y-58214285D01*
X223571428Y-58328571D01*
X223628571Y-58385714D01*
X223742857Y-58442857D01*
X223971428Y-58442857D01*
X224085714Y-58385714D01*
X224142857Y-58328571D01*
X224200000Y-58214285D01*
X224200000Y-57985714D01*
X224142857Y-57871428D01*
X224085714Y-57814285D01*
X223971428Y-57757142D01*
X225857142Y-57242857D02*
X226085714Y-57242857D01*
X226200000Y-57300000D01*
X226314285Y-57414285D01*
X226371428Y-57642857D01*
X226371428Y-58042857D01*
X226314285Y-58271428D01*
X226200000Y-58385714D01*
X226085714Y-58442857D01*
X225857142Y-58442857D01*
X225742857Y-58385714D01*
X225628571Y-58271428D01*
X225571428Y-58042857D01*
X225571428Y-57642857D01*
X225628571Y-57414285D01*
X225742857Y-57300000D01*
X225857142Y-57242857D01*
X226885714Y-57642857D02*
X226885714Y-58842857D01*
X226885714Y-57700000D02*
X227000000Y-57642857D01*
X227228571Y-57642857D01*
X227342857Y-57700000D01*
X227400000Y-57757142D01*
X227457142Y-57871428D01*
X227457142Y-58214285D01*
X227400000Y-58328571D01*
X227342857Y-58385714D01*
X227228571Y-58442857D01*
X227000000Y-58442857D01*
X226885714Y-58385714D01*
X227971428Y-57985714D02*
X228885714Y-57985714D01*
X229400000Y-58100000D02*
X229971428Y-58100000D01*
X229285714Y-58442857D02*
X229685714Y-57242857D01*
X230085714Y-58442857D01*
X230485714Y-58442857D02*
X230485714Y-57642857D01*
X230485714Y-57757142D02*
X230542857Y-57700000D01*
X230657142Y-57642857D01*
X230828571Y-57642857D01*
X230942857Y-57700000D01*
X231000000Y-57814285D01*
X231000000Y-58442857D01*
X231000000Y-57814285D02*
X231057142Y-57700000D01*
X231171428Y-57642857D01*
X231342857Y-57642857D01*
X231457142Y-57700000D01*
X231514285Y-57814285D01*
X231514285Y-58442857D01*
X232085714Y-57642857D02*
X232085714Y-58842857D01*
X232085714Y-57700000D02*
X232200000Y-57642857D01*
X232428571Y-57642857D01*
X232542857Y-57700000D01*
X232600000Y-57757142D01*
X232657142Y-57871428D01*
X232657142Y-58214285D01*
X232600000Y-58328571D01*
X232542857Y-58385714D01*
X232428571Y-58442857D01*
X232200000Y-58442857D01*
X232085714Y-58385714D01*
D10*
X150904761Y-119952380D02*
X151238095Y-120952380D01*
X151571428Y-119952380D01*
X151904761Y-120952380D02*
X151904761Y-119952380D01*
X152380952Y-120952380D02*
X152380952Y-119952380D01*
X152952380Y-120952380D01*
X152952380Y-119952380D01*
D12*
X176857142Y-108019047D02*
X176904761Y-108066666D01*
X176952380Y-108209523D01*
X176952380Y-108304761D01*
X176904761Y-108447619D01*
X176809523Y-108542857D01*
X176714285Y-108590476D01*
X176523809Y-108638095D01*
X176380952Y-108638095D01*
X176190476Y-108590476D01*
X176095238Y-108542857D01*
X176000000Y-108447619D01*
X175952380Y-108304761D01*
X175952380Y-108209523D01*
X176000000Y-108066666D01*
X176047619Y-108019047D01*
X175952380Y-107733333D02*
X175952380Y-107161904D01*
X176952380Y-107447619D02*
X175952380Y-107447619D01*
X176952380Y-106257142D02*
X176476190Y-106590476D01*
X176952380Y-106828571D02*
X175952380Y-106828571D01*
X175952380Y-106447619D01*
X176000000Y-106352380D01*
X176047619Y-106304761D01*
X176142857Y-106257142D01*
X176285714Y-106257142D01*
X176380952Y-106304761D01*
X176428571Y-106352380D01*
X176476190Y-106447619D01*
X176476190Y-106828571D01*
X176952380Y-105352380D02*
X176952380Y-105828571D01*
X175952380Y-105828571D01*
X176952380Y-104257142D02*
X175952380Y-104257142D01*
X176952380Y-103780952D02*
X175952380Y-103780952D01*
X176952380Y-103209523D01*
X175952380Y-103209523D01*
D13*
X156599142Y-60757142D02*
X157742000Y-60757142D01*
X157170571Y-61328571D02*
X157170571Y-60185714D01*
X158242000Y-59828571D02*
X158742000Y-61328571D01*
X159242000Y-59828571D01*
X159742000Y-61328571D02*
X159742000Y-59828571D01*
X159742000Y-60542857D02*
X160599142Y-60542857D01*
X160599142Y-61328571D02*
X160599142Y-59828571D01*
X161099142Y-59828571D02*
X161599142Y-61328571D01*
X162099142Y-59828571D01*
D10*
X227357142Y-120952380D02*
X227357142Y-119952380D01*
X227357142Y-120428571D02*
X227928571Y-120428571D01*
X227928571Y-120952380D02*
X227928571Y-119952380D01*
X228261904Y-119952380D02*
X228595238Y-120952380D01*
X228928571Y-119952380D01*
X229452380Y-119952380D02*
X229642857Y-119952380D01*
X229738095Y-120000000D01*
X229833333Y-120095238D01*
X229880952Y-120285714D01*
X229880952Y-120619047D01*
X229833333Y-120809523D01*
X229738095Y-120904761D01*
X229642857Y-120952380D01*
X229452380Y-120952380D01*
X229357142Y-120904761D01*
X229261904Y-120809523D01*
X229214285Y-120619047D01*
X229214285Y-120285714D01*
X229261904Y-120095238D01*
X229357142Y-120000000D01*
X229452380Y-119952380D01*
X230309523Y-119952380D02*
X230309523Y-120761904D01*
X230357142Y-120857142D01*
X230404761Y-120904761D01*
X230500000Y-120952380D01*
X230690476Y-120952380D01*
X230785714Y-120904761D01*
X230833333Y-120857142D01*
X230880952Y-120761904D01*
X230880952Y-119952380D01*
X231214285Y-119952380D02*
X231785714Y-119952380D01*
X231500000Y-120952380D02*
X231500000Y-119952380D01*
D12*
X185134285Y-66318571D02*
X184634285Y-65604285D01*
X184277142Y-66318571D02*
X184277142Y-64818571D01*
X184848571Y-64818571D01*
X184991428Y-64890000D01*
X185062857Y-64961428D01*
X185134285Y-65104285D01*
X185134285Y-65318571D01*
X185062857Y-65461428D01*
X184991428Y-65532857D01*
X184848571Y-65604285D01*
X184277142Y-65604285D01*
X186348571Y-66247142D02*
X186205714Y-66318571D01*
X185920000Y-66318571D01*
X185777142Y-66247142D01*
X185705714Y-66104285D01*
X185705714Y-65532857D01*
X185777142Y-65390000D01*
X185920000Y-65318571D01*
X186205714Y-65318571D01*
X186348571Y-65390000D01*
X186420000Y-65532857D01*
X186420000Y-65675714D01*
X185705714Y-65818571D01*
X186920000Y-65318571D02*
X187277142Y-66318571D01*
X187634285Y-65318571D01*
X189277142Y-64961428D02*
X189348571Y-64890000D01*
X189491428Y-64818571D01*
X189848571Y-64818571D01*
X189991428Y-64890000D01*
X190062857Y-64961428D01*
X190134285Y-65104285D01*
X190134285Y-65247142D01*
X190062857Y-65461428D01*
X189205714Y-66318571D01*
X190134285Y-66318571D01*
D13*
X172190000Y-91121071D02*
X172190000Y-89621071D01*
X172547142Y-89621071D01*
X172761428Y-89692500D01*
X172904285Y-89835357D01*
X172975714Y-89978214D01*
X173047142Y-90263928D01*
X173047142Y-90478214D01*
X172975714Y-90763928D01*
X172904285Y-90906785D01*
X172761428Y-91049642D01*
X172547142Y-91121071D01*
X172190000Y-91121071D01*
X173618571Y-90692500D02*
X174332857Y-90692500D01*
X173475714Y-91121071D02*
X173975714Y-89621071D01*
X174475714Y-91121071D01*
X174975714Y-91121071D02*
X174975714Y-89621071D01*
X175832857Y-91121071D01*
X175832857Y-89621071D01*
X177332857Y-89692500D02*
X177190000Y-89621071D01*
X176975714Y-89621071D01*
X176761428Y-89692500D01*
X176618571Y-89835357D01*
X176547142Y-89978214D01*
X176475714Y-90263928D01*
X176475714Y-90478214D01*
X176547142Y-90763928D01*
X176618571Y-90906785D01*
X176761428Y-91049642D01*
X176975714Y-91121071D01*
X177118571Y-91121071D01*
X177332857Y-91049642D01*
X177404285Y-90978214D01*
X177404285Y-90478214D01*
X177118571Y-90478214D01*
X178047142Y-90335357D02*
X178547142Y-90335357D01*
X178761428Y-91121071D02*
X178047142Y-91121071D01*
X178047142Y-89621071D01*
X178761428Y-89621071D01*
X180261428Y-91121071D02*
X179761428Y-90406785D01*
X179404285Y-91121071D02*
X179404285Y-89621071D01*
X179975714Y-89621071D01*
X180118571Y-89692500D01*
X180190000Y-89763928D01*
X180261428Y-89906785D01*
X180261428Y-90121071D01*
X180190000Y-90263928D01*
X180118571Y-90335357D01*
X179975714Y-90406785D01*
X179404285Y-90406785D01*
X168618571Y-93536071D02*
X168618571Y-92036071D01*
X168618571Y-92750357D02*
X169475714Y-92750357D01*
X169475714Y-93536071D02*
X169475714Y-92036071D01*
X170190000Y-93536071D02*
X170190000Y-92036071D01*
X171690000Y-92107500D02*
X171547142Y-92036071D01*
X171332857Y-92036071D01*
X171118571Y-92107500D01*
X170975714Y-92250357D01*
X170904285Y-92393214D01*
X170832857Y-92678928D01*
X170832857Y-92893214D01*
X170904285Y-93178928D01*
X170975714Y-93321785D01*
X171118571Y-93464642D01*
X171332857Y-93536071D01*
X171475714Y-93536071D01*
X171690000Y-93464642D01*
X171761428Y-93393214D01*
X171761428Y-92893214D01*
X171475714Y-92893214D01*
X172404285Y-93536071D02*
X172404285Y-92036071D01*
X172404285Y-92750357D02*
X173261428Y-92750357D01*
X173261428Y-93536071D02*
X173261428Y-92036071D01*
X174904285Y-92036071D02*
X175404285Y-93536071D01*
X175904285Y-92036071D01*
X176690000Y-92036071D02*
X176975714Y-92036071D01*
X177118571Y-92107500D01*
X177261428Y-92250357D01*
X177332857Y-92536071D01*
X177332857Y-93036071D01*
X177261428Y-93321785D01*
X177118571Y-93464642D01*
X176975714Y-93536071D01*
X176690000Y-93536071D01*
X176547142Y-93464642D01*
X176404285Y-93321785D01*
X176332857Y-93036071D01*
X176332857Y-92536071D01*
X176404285Y-92250357D01*
X176547142Y-92107500D01*
X176690000Y-92036071D01*
X178690000Y-93536071D02*
X177975714Y-93536071D01*
X177975714Y-92036071D01*
X178975714Y-92036071D02*
X179832857Y-92036071D01*
X179404285Y-93536071D02*
X179404285Y-92036071D01*
X180261428Y-93107500D02*
X180975714Y-93107500D01*
X180118571Y-93536071D02*
X180618571Y-92036071D01*
X181118571Y-93536071D01*
X182404285Y-92107500D02*
X182261428Y-92036071D01*
X182047142Y-92036071D01*
X181832857Y-92107500D01*
X181690000Y-92250357D01*
X181618571Y-92393214D01*
X181547142Y-92678928D01*
X181547142Y-92893214D01*
X181618571Y-93178928D01*
X181690000Y-93321785D01*
X181832857Y-93464642D01*
X182047142Y-93536071D01*
X182190000Y-93536071D01*
X182404285Y-93464642D01*
X182475714Y-93393214D01*
X182475714Y-92893214D01*
X182190000Y-92893214D01*
X183118571Y-92750357D02*
X183618571Y-92750357D01*
X183832857Y-93536071D02*
X183118571Y-93536071D01*
X183118571Y-92036071D01*
X183832857Y-92036071D01*
D12*
X143152380Y-108100000D02*
X143152380Y-107909523D01*
X143104761Y-107814285D01*
X143057142Y-107766666D01*
X142914285Y-107671428D01*
X142723809Y-107623809D01*
X142342857Y-107623809D01*
X142247619Y-107671428D01*
X142200000Y-107719047D01*
X142152380Y-107814285D01*
X142152380Y-108004761D01*
X142200000Y-108100000D01*
X142247619Y-108147619D01*
X142342857Y-108195238D01*
X142580952Y-108195238D01*
X142676190Y-108147619D01*
X142723809Y-108100000D01*
X142771428Y-108004761D01*
X142771428Y-107814285D01*
X142723809Y-107719047D01*
X142676190Y-107671428D01*
X142580952Y-107623809D01*
X142152380Y-107338095D02*
X143152380Y-107004761D01*
X142152380Y-106671428D01*
X143152380Y-105576190D02*
X142152380Y-105576190D01*
X142152380Y-105338095D01*
X142200000Y-105195238D01*
X142295238Y-105100000D01*
X142390476Y-105052380D01*
X142580952Y-105004761D01*
X142723809Y-105004761D01*
X142914285Y-105052380D01*
X143009523Y-105100000D01*
X143104761Y-105195238D01*
X143152380Y-105338095D01*
X143152380Y-105576190D01*
X143057142Y-104004761D02*
X143104761Y-104052380D01*
X143152380Y-104195238D01*
X143152380Y-104290476D01*
X143104761Y-104433333D01*
X143009523Y-104528571D01*
X142914285Y-104576190D01*
X142723809Y-104623809D01*
X142580952Y-104623809D01*
X142390476Y-104576190D01*
X142295238Y-104528571D01*
X142200000Y-104433333D01*
X142152380Y-104290476D01*
X142152380Y-104195238D01*
X142200000Y-104052380D01*
X142247619Y-104004761D01*
D10*
X133595809Y-87717904D02*
X133138666Y-87717904D01*
X133367238Y-87717904D02*
X133367238Y-86917904D01*
X133291047Y-87032190D01*
X133214857Y-87108380D01*
X133138666Y-87146476D01*
X134091047Y-86917904D02*
X134167238Y-86917904D01*
X134243428Y-86956000D01*
X134281523Y-86994095D01*
X134319619Y-87070285D01*
X134357714Y-87222666D01*
X134357714Y-87413142D01*
X134319619Y-87565523D01*
X134281523Y-87641714D01*
X134243428Y-87679809D01*
X134167238Y-87717904D01*
X134091047Y-87717904D01*
X134014857Y-87679809D01*
X133976761Y-87641714D01*
X133938666Y-87565523D01*
X133900571Y-87413142D01*
X133900571Y-87222666D01*
X133938666Y-87070285D01*
X133976761Y-86994095D01*
X134014857Y-86956000D01*
X134091047Y-86917904D01*
X134852952Y-86917904D02*
X134929142Y-86917904D01*
X135005333Y-86956000D01*
X135043428Y-86994095D01*
X135081523Y-87070285D01*
X135119619Y-87222666D01*
X135119619Y-87413142D01*
X135081523Y-87565523D01*
X135043428Y-87641714D01*
X135005333Y-87679809D01*
X134929142Y-87717904D01*
X134852952Y-87717904D01*
X134776761Y-87679809D01*
X134738666Y-87641714D01*
X134700571Y-87565523D01*
X134662476Y-87413142D01*
X134662476Y-87222666D01*
X134700571Y-87070285D01*
X134738666Y-86994095D01*
X134776761Y-86956000D01*
X134852952Y-86917904D01*
X135348190Y-86917904D02*
X135614857Y-87717904D01*
X135881523Y-86917904D01*
X133138666Y-88772095D02*
X133176761Y-88734000D01*
X133252952Y-88695904D01*
X133443428Y-88695904D01*
X133519619Y-88734000D01*
X133557714Y-88772095D01*
X133595809Y-88848285D01*
X133595809Y-88924476D01*
X133557714Y-89038761D01*
X133100571Y-89495904D01*
X133595809Y-89495904D01*
X134091047Y-88695904D02*
X134167238Y-88695904D01*
X134243428Y-88734000D01*
X134281523Y-88772095D01*
X134319619Y-88848285D01*
X134357714Y-89000666D01*
X134357714Y-89191142D01*
X134319619Y-89343523D01*
X134281523Y-89419714D01*
X134243428Y-89457809D01*
X134167238Y-89495904D01*
X134091047Y-89495904D01*
X134014857Y-89457809D01*
X133976761Y-89419714D01*
X133938666Y-89343523D01*
X133900571Y-89191142D01*
X133900571Y-89000666D01*
X133938666Y-88848285D01*
X133976761Y-88772095D01*
X134014857Y-88734000D01*
X134091047Y-88695904D01*
X134852952Y-88695904D02*
X134929142Y-88695904D01*
X135005333Y-88734000D01*
X135043428Y-88772095D01*
X135081523Y-88848285D01*
X135119619Y-89000666D01*
X135119619Y-89191142D01*
X135081523Y-89343523D01*
X135043428Y-89419714D01*
X135005333Y-89457809D01*
X134929142Y-89495904D01*
X134852952Y-89495904D01*
X134776761Y-89457809D01*
X134738666Y-89419714D01*
X134700571Y-89343523D01*
X134662476Y-89191142D01*
X134662476Y-89000666D01*
X134700571Y-88848285D01*
X134738666Y-88772095D01*
X134776761Y-88734000D01*
X134852952Y-88695904D01*
X135348190Y-88695904D02*
X135614857Y-89495904D01*
X135881523Y-88695904D01*
%TO.C,U1*%
X217028476Y-58123904D02*
X217028476Y-58771523D01*
X217066571Y-58847714D01*
X217104666Y-58885809D01*
X217180857Y-58923904D01*
X217333238Y-58923904D01*
X217409428Y-58885809D01*
X217447523Y-58847714D01*
X217485619Y-58771523D01*
X217485619Y-58123904D01*
X218285619Y-58923904D02*
X217828476Y-58923904D01*
X218057047Y-58923904D02*
X218057047Y-58123904D01*
X217980857Y-58238190D01*
X217904666Y-58314380D01*
X217828476Y-58352476D01*
D12*
%TO.C,U2*%
X142112380Y-74741904D02*
X142921904Y-74741904D01*
X143017142Y-74694285D01*
X143064761Y-74646666D01*
X143112380Y-74551428D01*
X143112380Y-74360952D01*
X143064761Y-74265714D01*
X143017142Y-74218095D01*
X142921904Y-74170476D01*
X142112380Y-74170476D01*
X142207619Y-73741904D02*
X142160000Y-73694285D01*
X142112380Y-73599047D01*
X142112380Y-73360952D01*
X142160000Y-73265714D01*
X142207619Y-73218095D01*
X142302857Y-73170476D01*
X142398095Y-73170476D01*
X142540952Y-73218095D01*
X143112380Y-73789523D01*
X143112380Y-73170476D01*
%TO.C,C20*%
X183157142Y-73642857D02*
X183204761Y-73690476D01*
X183252380Y-73833333D01*
X183252380Y-73928571D01*
X183204761Y-74071428D01*
X183109523Y-74166666D01*
X183014285Y-74214285D01*
X182823809Y-74261904D01*
X182680952Y-74261904D01*
X182490476Y-74214285D01*
X182395238Y-74166666D01*
X182300000Y-74071428D01*
X182252380Y-73928571D01*
X182252380Y-73833333D01*
X182300000Y-73690476D01*
X182347619Y-73642857D01*
X182347619Y-73261904D02*
X182300000Y-73214285D01*
X182252380Y-73119047D01*
X182252380Y-72880952D01*
X182300000Y-72785714D01*
X182347619Y-72738095D01*
X182442857Y-72690476D01*
X182538095Y-72690476D01*
X182680952Y-72738095D01*
X183252380Y-73309523D01*
X183252380Y-72690476D01*
X182252380Y-72071428D02*
X182252380Y-71976190D01*
X182300000Y-71880952D01*
X182347619Y-71833333D01*
X182442857Y-71785714D01*
X182633333Y-71738095D01*
X182871428Y-71738095D01*
X183061904Y-71785714D01*
X183157142Y-71833333D01*
X183204761Y-71880952D01*
X183252380Y-71976190D01*
X183252380Y-72071428D01*
X183204761Y-72166666D01*
X183157142Y-72214285D01*
X183061904Y-72261904D01*
X182871428Y-72309523D01*
X182633333Y-72309523D01*
X182442857Y-72261904D01*
X182347619Y-72214285D01*
X182300000Y-72166666D01*
X182252380Y-72071428D01*
%TO.C,C19*%
X183357142Y-86982857D02*
X183404761Y-87030476D01*
X183452380Y-87173333D01*
X183452380Y-87268571D01*
X183404761Y-87411428D01*
X183309523Y-87506666D01*
X183214285Y-87554285D01*
X183023809Y-87601904D01*
X182880952Y-87601904D01*
X182690476Y-87554285D01*
X182595238Y-87506666D01*
X182500000Y-87411428D01*
X182452380Y-87268571D01*
X182452380Y-87173333D01*
X182500000Y-87030476D01*
X182547619Y-86982857D01*
X183452380Y-86030476D02*
X183452380Y-86601904D01*
X183452380Y-86316190D02*
X182452380Y-86316190D01*
X182595238Y-86411428D01*
X182690476Y-86506666D01*
X182738095Y-86601904D01*
X183452380Y-85554285D02*
X183452380Y-85363809D01*
X183404761Y-85268571D01*
X183357142Y-85220952D01*
X183214285Y-85125714D01*
X183023809Y-85078095D01*
X182642857Y-85078095D01*
X182547619Y-85125714D01*
X182500000Y-85173333D01*
X182452380Y-85268571D01*
X182452380Y-85459047D01*
X182500000Y-85554285D01*
X182547619Y-85601904D01*
X182642857Y-85649523D01*
X182880952Y-85649523D01*
X182976190Y-85601904D01*
X183023809Y-85554285D01*
X183071428Y-85459047D01*
X183071428Y-85268571D01*
X183023809Y-85173333D01*
X182976190Y-85125714D01*
X182880952Y-85078095D01*
D10*
%TO.C,C12*%
X181879714Y-69292285D02*
X181917809Y-69330380D01*
X181955904Y-69444666D01*
X181955904Y-69520857D01*
X181917809Y-69635142D01*
X181841619Y-69711333D01*
X181765428Y-69749428D01*
X181613047Y-69787523D01*
X181498761Y-69787523D01*
X181346380Y-69749428D01*
X181270190Y-69711333D01*
X181194000Y-69635142D01*
X181155904Y-69520857D01*
X181155904Y-69444666D01*
X181194000Y-69330380D01*
X181232095Y-69292285D01*
X181955904Y-68530380D02*
X181955904Y-68987523D01*
X181955904Y-68758952D02*
X181155904Y-68758952D01*
X181270190Y-68835142D01*
X181346380Y-68911333D01*
X181384476Y-68987523D01*
X181232095Y-68225619D02*
X181194000Y-68187523D01*
X181155904Y-68111333D01*
X181155904Y-67920857D01*
X181194000Y-67844666D01*
X181232095Y-67806571D01*
X181308285Y-67768476D01*
X181384476Y-67768476D01*
X181498761Y-67806571D01*
X181955904Y-68263714D01*
X181955904Y-67768476D01*
D12*
%TO.C,D16*%
X171392380Y-102114285D02*
X170392380Y-102114285D01*
X170392380Y-101876190D01*
X170440000Y-101733333D01*
X170535238Y-101638095D01*
X170630476Y-101590476D01*
X170820952Y-101542857D01*
X170963809Y-101542857D01*
X171154285Y-101590476D01*
X171249523Y-101638095D01*
X171344761Y-101733333D01*
X171392380Y-101876190D01*
X171392380Y-102114285D01*
X171392380Y-100590476D02*
X171392380Y-101161904D01*
X171392380Y-100876190D02*
X170392380Y-100876190D01*
X170535238Y-100971428D01*
X170630476Y-101066666D01*
X170678095Y-101161904D01*
X170392380Y-99733333D02*
X170392380Y-99923809D01*
X170440000Y-100019047D01*
X170487619Y-100066666D01*
X170630476Y-100161904D01*
X170820952Y-100209523D01*
X171201904Y-100209523D01*
X171297142Y-100161904D01*
X171344761Y-100114285D01*
X171392380Y-100019047D01*
X171392380Y-99828571D01*
X171344761Y-99733333D01*
X171297142Y-99685714D01*
X171201904Y-99638095D01*
X170963809Y-99638095D01*
X170868571Y-99685714D01*
X170820952Y-99733333D01*
X170773333Y-99828571D01*
X170773333Y-100019047D01*
X170820952Y-100114285D01*
X170868571Y-100161904D01*
X170963809Y-100209523D01*
D10*
%TO.C,D1*%
X237963023Y-84943904D02*
X237963023Y-84143904D01*
X238153500Y-84143904D01*
X238267785Y-84182000D01*
X238343976Y-84258190D01*
X238382071Y-84334380D01*
X238420166Y-84486761D01*
X238420166Y-84601047D01*
X238382071Y-84753428D01*
X238343976Y-84829619D01*
X238267785Y-84905809D01*
X238153500Y-84943904D01*
X237963023Y-84943904D01*
X239182071Y-84943904D02*
X238724928Y-84943904D01*
X238953500Y-84943904D02*
X238953500Y-84143904D01*
X238877309Y-84258190D01*
X238801119Y-84334380D01*
X238724928Y-84372476D01*
%TO.C,C7*%
X155971714Y-78563333D02*
X156009809Y-78601428D01*
X156047904Y-78715714D01*
X156047904Y-78791904D01*
X156009809Y-78906190D01*
X155933619Y-78982380D01*
X155857428Y-79020476D01*
X155705047Y-79058571D01*
X155590761Y-79058571D01*
X155438380Y-79020476D01*
X155362190Y-78982380D01*
X155286000Y-78906190D01*
X155247904Y-78791904D01*
X155247904Y-78715714D01*
X155286000Y-78601428D01*
X155324095Y-78563333D01*
X155247904Y-78296666D02*
X155247904Y-77763333D01*
X156047904Y-78106190D01*
%TO.C,R12*%
X176761714Y-77267904D02*
X176495047Y-76886952D01*
X176304571Y-77267904D02*
X176304571Y-76467904D01*
X176609333Y-76467904D01*
X176685523Y-76506000D01*
X176723619Y-76544095D01*
X176761714Y-76620285D01*
X176761714Y-76734571D01*
X176723619Y-76810761D01*
X176685523Y-76848857D01*
X176609333Y-76886952D01*
X176304571Y-76886952D01*
X177523619Y-77267904D02*
X177066476Y-77267904D01*
X177295047Y-77267904D02*
X177295047Y-76467904D01*
X177218857Y-76582190D01*
X177142666Y-76658380D01*
X177066476Y-76696476D01*
X177828380Y-76544095D02*
X177866476Y-76506000D01*
X177942666Y-76467904D01*
X178133142Y-76467904D01*
X178209333Y-76506000D01*
X178247428Y-76544095D01*
X178285523Y-76620285D01*
X178285523Y-76696476D01*
X178247428Y-76810761D01*
X177790285Y-77267904D01*
X178285523Y-77267904D01*
%TO.C,C14*%
X168853714Y-74118285D02*
X168891809Y-74156380D01*
X168929904Y-74270666D01*
X168929904Y-74346857D01*
X168891809Y-74461142D01*
X168815619Y-74537333D01*
X168739428Y-74575428D01*
X168587047Y-74613523D01*
X168472761Y-74613523D01*
X168320380Y-74575428D01*
X168244190Y-74537333D01*
X168168000Y-74461142D01*
X168129904Y-74346857D01*
X168129904Y-74270666D01*
X168168000Y-74156380D01*
X168206095Y-74118285D01*
X168929904Y-73356380D02*
X168929904Y-73813523D01*
X168929904Y-73584952D02*
X168129904Y-73584952D01*
X168244190Y-73661142D01*
X168320380Y-73737333D01*
X168358476Y-73813523D01*
X168396571Y-72670666D02*
X168929904Y-72670666D01*
X168091809Y-72861142D02*
X168663238Y-73051619D01*
X168663238Y-72556380D01*
%TO.C,D4*%
X237969523Y-61401904D02*
X237969523Y-60601904D01*
X238160000Y-60601904D01*
X238274285Y-60640000D01*
X238350476Y-60716190D01*
X238388571Y-60792380D01*
X238426666Y-60944761D01*
X238426666Y-61059047D01*
X238388571Y-61211428D01*
X238350476Y-61287619D01*
X238274285Y-61363809D01*
X238160000Y-61401904D01*
X237969523Y-61401904D01*
X239112380Y-60868571D02*
X239112380Y-61401904D01*
X238921904Y-60563809D02*
X238731428Y-61135238D01*
X239226666Y-61135238D01*
%TO.C,R11*%
X135299904Y-79234285D02*
X134918952Y-79500952D01*
X135299904Y-79691428D02*
X134499904Y-79691428D01*
X134499904Y-79386666D01*
X134538000Y-79310476D01*
X134576095Y-79272380D01*
X134652285Y-79234285D01*
X134766571Y-79234285D01*
X134842761Y-79272380D01*
X134880857Y-79310476D01*
X134918952Y-79386666D01*
X134918952Y-79691428D01*
X135299904Y-78472380D02*
X135299904Y-78929523D01*
X135299904Y-78700952D02*
X134499904Y-78700952D01*
X134614190Y-78777142D01*
X134690380Y-78853333D01*
X134728476Y-78929523D01*
X135299904Y-77710476D02*
X135299904Y-78167619D01*
X135299904Y-77939047D02*
X134499904Y-77939047D01*
X134614190Y-78015238D01*
X134690380Y-78091428D01*
X134728476Y-78167619D01*
D12*
%TO.C,J4*%
X217802380Y-96333333D02*
X218516666Y-96333333D01*
X218659523Y-96380952D01*
X218754761Y-96476190D01*
X218802380Y-96619047D01*
X218802380Y-96714285D01*
X218135714Y-95428571D02*
X218802380Y-95428571D01*
X217754761Y-95666666D02*
X218469047Y-95904761D01*
X218469047Y-95285714D01*
D10*
%TO.C,R13*%
X162439904Y-73864285D02*
X162058952Y-74130952D01*
X162439904Y-74321428D02*
X161639904Y-74321428D01*
X161639904Y-74016666D01*
X161678000Y-73940476D01*
X161716095Y-73902380D01*
X161792285Y-73864285D01*
X161906571Y-73864285D01*
X161982761Y-73902380D01*
X162020857Y-73940476D01*
X162058952Y-74016666D01*
X162058952Y-74321428D01*
X162439904Y-73102380D02*
X162439904Y-73559523D01*
X162439904Y-73330952D02*
X161639904Y-73330952D01*
X161754190Y-73407142D01*
X161830380Y-73483333D01*
X161868476Y-73559523D01*
X161639904Y-72835714D02*
X161639904Y-72340476D01*
X161944666Y-72607142D01*
X161944666Y-72492857D01*
X161982761Y-72416666D01*
X162020857Y-72378571D01*
X162097047Y-72340476D01*
X162287523Y-72340476D01*
X162363714Y-72378571D01*
X162401809Y-72416666D01*
X162439904Y-72492857D01*
X162439904Y-72721428D01*
X162401809Y-72797619D01*
X162363714Y-72835714D01*
%TO.C,R5*%
X204151904Y-91693333D02*
X203770952Y-91960000D01*
X204151904Y-92150476D02*
X203351904Y-92150476D01*
X203351904Y-91845714D01*
X203390000Y-91769523D01*
X203428095Y-91731428D01*
X203504285Y-91693333D01*
X203618571Y-91693333D01*
X203694761Y-91731428D01*
X203732857Y-91769523D01*
X203770952Y-91845714D01*
X203770952Y-92150476D01*
X203351904Y-90969523D02*
X203351904Y-91350476D01*
X203732857Y-91388571D01*
X203694761Y-91350476D01*
X203656666Y-91274285D01*
X203656666Y-91083809D01*
X203694761Y-91007619D01*
X203732857Y-90969523D01*
X203809047Y-90931428D01*
X203999523Y-90931428D01*
X204075714Y-90969523D01*
X204113809Y-91007619D01*
X204151904Y-91083809D01*
X204151904Y-91274285D01*
X204113809Y-91350476D01*
X204075714Y-91388571D01*
%TO.C,R3*%
X145514666Y-86151904D02*
X145248000Y-85770952D01*
X145057523Y-86151904D02*
X145057523Y-85351904D01*
X145362285Y-85351904D01*
X145438476Y-85390000D01*
X145476571Y-85428095D01*
X145514666Y-85504285D01*
X145514666Y-85618571D01*
X145476571Y-85694761D01*
X145438476Y-85732857D01*
X145362285Y-85770952D01*
X145057523Y-85770952D01*
X145781333Y-85351904D02*
X146276571Y-85351904D01*
X146009904Y-85656666D01*
X146124190Y-85656666D01*
X146200380Y-85694761D01*
X146238476Y-85732857D01*
X146276571Y-85809047D01*
X146276571Y-85999523D01*
X146238476Y-86075714D01*
X146200380Y-86113809D01*
X146124190Y-86151904D01*
X145895619Y-86151904D01*
X145819428Y-86113809D01*
X145781333Y-86075714D01*
%TO.C,D13*%
X156047904Y-64415428D02*
X155247904Y-64415428D01*
X155247904Y-64224952D01*
X155286000Y-64110666D01*
X155362190Y-64034476D01*
X155438380Y-63996380D01*
X155590761Y-63958285D01*
X155705047Y-63958285D01*
X155857428Y-63996380D01*
X155933619Y-64034476D01*
X156009809Y-64110666D01*
X156047904Y-64224952D01*
X156047904Y-64415428D01*
X156047904Y-63196380D02*
X156047904Y-63653523D01*
X156047904Y-63424952D02*
X155247904Y-63424952D01*
X155362190Y-63501142D01*
X155438380Y-63577333D01*
X155476476Y-63653523D01*
X155247904Y-62929714D02*
X155247904Y-62434476D01*
X155552666Y-62701142D01*
X155552666Y-62586857D01*
X155590761Y-62510666D01*
X155628857Y-62472571D01*
X155705047Y-62434476D01*
X155895523Y-62434476D01*
X155971714Y-62472571D01*
X156009809Y-62510666D01*
X156047904Y-62586857D01*
X156047904Y-62815428D01*
X156009809Y-62891619D01*
X155971714Y-62929714D01*
%TO.C,C17*%
X150721714Y-86807714D02*
X150683619Y-86845809D01*
X150569333Y-86883904D01*
X150493142Y-86883904D01*
X150378857Y-86845809D01*
X150302666Y-86769619D01*
X150264571Y-86693428D01*
X150226476Y-86541047D01*
X150226476Y-86426761D01*
X150264571Y-86274380D01*
X150302666Y-86198190D01*
X150378857Y-86122000D01*
X150493142Y-86083904D01*
X150569333Y-86083904D01*
X150683619Y-86122000D01*
X150721714Y-86160095D01*
X151483619Y-86883904D02*
X151026476Y-86883904D01*
X151255047Y-86883904D02*
X151255047Y-86083904D01*
X151178857Y-86198190D01*
X151102666Y-86274380D01*
X151026476Y-86312476D01*
X151750285Y-86083904D02*
X152283619Y-86083904D01*
X151940761Y-86883904D01*
%TO.C,R14*%
X167223904Y-69800285D02*
X166842952Y-70066952D01*
X167223904Y-70257428D02*
X166423904Y-70257428D01*
X166423904Y-69952666D01*
X166462000Y-69876476D01*
X166500095Y-69838380D01*
X166576285Y-69800285D01*
X166690571Y-69800285D01*
X166766761Y-69838380D01*
X166804857Y-69876476D01*
X166842952Y-69952666D01*
X166842952Y-70257428D01*
X167223904Y-69038380D02*
X167223904Y-69495523D01*
X167223904Y-69266952D02*
X166423904Y-69266952D01*
X166538190Y-69343142D01*
X166614380Y-69419333D01*
X166652476Y-69495523D01*
X166690571Y-68352666D02*
X167223904Y-68352666D01*
X166385809Y-68543142D02*
X166957238Y-68733619D01*
X166957238Y-68238380D01*
%TO.C,J3*%
X138833333Y-97861904D02*
X138833333Y-98433333D01*
X138795238Y-98547619D01*
X138719047Y-98623809D01*
X138604761Y-98661904D01*
X138528571Y-98661904D01*
X139138095Y-97861904D02*
X139633333Y-97861904D01*
X139366666Y-98166666D01*
X139480952Y-98166666D01*
X139557142Y-98204761D01*
X139595238Y-98242857D01*
X139633333Y-98319047D01*
X139633333Y-98509523D01*
X139595238Y-98585714D01*
X139557142Y-98623809D01*
X139480952Y-98661904D01*
X139252380Y-98661904D01*
X139176190Y-98623809D01*
X139138095Y-98585714D01*
%TO.C,D6*%
X162778904Y-79147476D02*
X161978904Y-79147476D01*
X161978904Y-78957000D01*
X162017000Y-78842714D01*
X162093190Y-78766523D01*
X162169380Y-78728428D01*
X162321761Y-78690333D01*
X162436047Y-78690333D01*
X162588428Y-78728428D01*
X162664619Y-78766523D01*
X162740809Y-78842714D01*
X162778904Y-78957000D01*
X162778904Y-79147476D01*
X161978904Y-78004619D02*
X161978904Y-78157000D01*
X162017000Y-78233190D01*
X162055095Y-78271285D01*
X162169380Y-78347476D01*
X162321761Y-78385571D01*
X162626523Y-78385571D01*
X162702714Y-78347476D01*
X162740809Y-78309380D01*
X162778904Y-78233190D01*
X162778904Y-78080809D01*
X162740809Y-78004619D01*
X162702714Y-77966523D01*
X162626523Y-77928428D01*
X162436047Y-77928428D01*
X162359857Y-77966523D01*
X162321761Y-78004619D01*
X162283666Y-78080809D01*
X162283666Y-78233190D01*
X162321761Y-78309380D01*
X162359857Y-78347476D01*
X162436047Y-78385571D01*
%TO.C,R6*%
X209261904Y-91733333D02*
X208880952Y-92000000D01*
X209261904Y-92190476D02*
X208461904Y-92190476D01*
X208461904Y-91885714D01*
X208500000Y-91809523D01*
X208538095Y-91771428D01*
X208614285Y-91733333D01*
X208728571Y-91733333D01*
X208804761Y-91771428D01*
X208842857Y-91809523D01*
X208880952Y-91885714D01*
X208880952Y-92190476D01*
X208461904Y-91047619D02*
X208461904Y-91200000D01*
X208500000Y-91276190D01*
X208538095Y-91314285D01*
X208652380Y-91390476D01*
X208804761Y-91428571D01*
X209109523Y-91428571D01*
X209185714Y-91390476D01*
X209223809Y-91352380D01*
X209261904Y-91276190D01*
X209261904Y-91123809D01*
X209223809Y-91047619D01*
X209185714Y-91009523D01*
X209109523Y-90971428D01*
X208919047Y-90971428D01*
X208842857Y-91009523D01*
X208804761Y-91047619D01*
X208766666Y-91123809D01*
X208766666Y-91276190D01*
X208804761Y-91352380D01*
X208842857Y-91390476D01*
X208919047Y-91428571D01*
%TO.C,R4*%
X206651904Y-91793333D02*
X206270952Y-92060000D01*
X206651904Y-92250476D02*
X205851904Y-92250476D01*
X205851904Y-91945714D01*
X205890000Y-91869523D01*
X205928095Y-91831428D01*
X206004285Y-91793333D01*
X206118571Y-91793333D01*
X206194761Y-91831428D01*
X206232857Y-91869523D01*
X206270952Y-91945714D01*
X206270952Y-92250476D01*
X206118571Y-91107619D02*
X206651904Y-91107619D01*
X205813809Y-91298095D02*
X206385238Y-91488571D01*
X206385238Y-90993333D01*
D12*
%TO.C,J5*%
X231461666Y-109392380D02*
X231461666Y-110106666D01*
X231414047Y-110249523D01*
X231318809Y-110344761D01*
X231175952Y-110392380D01*
X231080714Y-110392380D01*
X232414047Y-109392380D02*
X231937857Y-109392380D01*
X231890238Y-109868571D01*
X231937857Y-109820952D01*
X232033095Y-109773333D01*
X232271190Y-109773333D01*
X232366428Y-109820952D01*
X232414047Y-109868571D01*
X232461666Y-109963809D01*
X232461666Y-110201904D01*
X232414047Y-110297142D01*
X232366428Y-110344761D01*
X232271190Y-110392380D01*
X232033095Y-110392380D01*
X231937857Y-110344761D01*
X231890238Y-110297142D01*
D10*
%TO.C,D8*%
X175351904Y-79528476D02*
X174551904Y-79528476D01*
X174551904Y-79338000D01*
X174590000Y-79223714D01*
X174666190Y-79147523D01*
X174742380Y-79109428D01*
X174894761Y-79071333D01*
X175009047Y-79071333D01*
X175161428Y-79109428D01*
X175237619Y-79147523D01*
X175313809Y-79223714D01*
X175351904Y-79338000D01*
X175351904Y-79528476D01*
X174894761Y-78614190D02*
X174856666Y-78690380D01*
X174818571Y-78728476D01*
X174742380Y-78766571D01*
X174704285Y-78766571D01*
X174628095Y-78728476D01*
X174590000Y-78690380D01*
X174551904Y-78614190D01*
X174551904Y-78461809D01*
X174590000Y-78385619D01*
X174628095Y-78347523D01*
X174704285Y-78309428D01*
X174742380Y-78309428D01*
X174818571Y-78347523D01*
X174856666Y-78385619D01*
X174894761Y-78461809D01*
X174894761Y-78614190D01*
X174932857Y-78690380D01*
X174970952Y-78728476D01*
X175047142Y-78766571D01*
X175199523Y-78766571D01*
X175275714Y-78728476D01*
X175313809Y-78690380D01*
X175351904Y-78614190D01*
X175351904Y-78461809D01*
X175313809Y-78385619D01*
X175275714Y-78347523D01*
X175199523Y-78309428D01*
X175047142Y-78309428D01*
X174970952Y-78347523D01*
X174932857Y-78385619D01*
X174894761Y-78461809D01*
%TO.C,D14*%
X168874904Y-68352428D02*
X168074904Y-68352428D01*
X168074904Y-68161952D01*
X168113000Y-68047666D01*
X168189190Y-67971476D01*
X168265380Y-67933380D01*
X168417761Y-67895285D01*
X168532047Y-67895285D01*
X168684428Y-67933380D01*
X168760619Y-67971476D01*
X168836809Y-68047666D01*
X168874904Y-68161952D01*
X168874904Y-68352428D01*
X168874904Y-67133380D02*
X168874904Y-67590523D01*
X168874904Y-67361952D02*
X168074904Y-67361952D01*
X168189190Y-67438142D01*
X168265380Y-67514333D01*
X168303476Y-67590523D01*
X168341571Y-66447666D02*
X168874904Y-66447666D01*
X168036809Y-66638142D02*
X168608238Y-66828619D01*
X168608238Y-66333380D01*
%TO.C,R2*%
X231146666Y-87721904D02*
X230880000Y-87340952D01*
X230689523Y-87721904D02*
X230689523Y-86921904D01*
X230994285Y-86921904D01*
X231070476Y-86960000D01*
X231108571Y-86998095D01*
X231146666Y-87074285D01*
X231146666Y-87188571D01*
X231108571Y-87264761D01*
X231070476Y-87302857D01*
X230994285Y-87340952D01*
X230689523Y-87340952D01*
X231451428Y-86998095D02*
X231489523Y-86960000D01*
X231565714Y-86921904D01*
X231756190Y-86921904D01*
X231832380Y-86960000D01*
X231870476Y-86998095D01*
X231908571Y-87074285D01*
X231908571Y-87150476D01*
X231870476Y-87264761D01*
X231413333Y-87721904D01*
X231908571Y-87721904D01*
%TO.C,RV1*%
X244303809Y-88151904D02*
X244037142Y-87770952D01*
X243846666Y-88151904D02*
X243846666Y-87351904D01*
X244151428Y-87351904D01*
X244227619Y-87390000D01*
X244265714Y-87428095D01*
X244303809Y-87504285D01*
X244303809Y-87618571D01*
X244265714Y-87694761D01*
X244227619Y-87732857D01*
X244151428Y-87770952D01*
X243846666Y-87770952D01*
X244532380Y-87351904D02*
X244799047Y-88151904D01*
X245065714Y-87351904D01*
X245751428Y-88151904D02*
X245294285Y-88151904D01*
X245522857Y-88151904D02*
X245522857Y-87351904D01*
X245446666Y-87466190D01*
X245370476Y-87542380D01*
X245294285Y-87580476D01*
%TO.C,C15*%
X167147714Y-63958285D02*
X167185809Y-63996380D01*
X167223904Y-64110666D01*
X167223904Y-64186857D01*
X167185809Y-64301142D01*
X167109619Y-64377333D01*
X167033428Y-64415428D01*
X166881047Y-64453523D01*
X166766761Y-64453523D01*
X166614380Y-64415428D01*
X166538190Y-64377333D01*
X166462000Y-64301142D01*
X166423904Y-64186857D01*
X166423904Y-64110666D01*
X166462000Y-63996380D01*
X166500095Y-63958285D01*
X167223904Y-63196380D02*
X167223904Y-63653523D01*
X167223904Y-63424952D02*
X166423904Y-63424952D01*
X166538190Y-63501142D01*
X166614380Y-63577333D01*
X166652476Y-63653523D01*
X166423904Y-62472571D02*
X166423904Y-62853523D01*
X166804857Y-62891619D01*
X166766761Y-62853523D01*
X166728666Y-62777333D01*
X166728666Y-62586857D01*
X166766761Y-62510666D01*
X166804857Y-62472571D01*
X166881047Y-62434476D01*
X167071523Y-62434476D01*
X167147714Y-62472571D01*
X167185809Y-62510666D01*
X167223904Y-62586857D01*
X167223904Y-62777333D01*
X167185809Y-62853523D01*
X167147714Y-62891619D01*
%TO.C,R8*%
X139109904Y-78853333D02*
X138728952Y-79120000D01*
X139109904Y-79310476D02*
X138309904Y-79310476D01*
X138309904Y-79005714D01*
X138348000Y-78929523D01*
X138386095Y-78891428D01*
X138462285Y-78853333D01*
X138576571Y-78853333D01*
X138652761Y-78891428D01*
X138690857Y-78929523D01*
X138728952Y-79005714D01*
X138728952Y-79310476D01*
X138652761Y-78396190D02*
X138614666Y-78472380D01*
X138576571Y-78510476D01*
X138500380Y-78548571D01*
X138462285Y-78548571D01*
X138386095Y-78510476D01*
X138348000Y-78472380D01*
X138309904Y-78396190D01*
X138309904Y-78243809D01*
X138348000Y-78167619D01*
X138386095Y-78129523D01*
X138462285Y-78091428D01*
X138500380Y-78091428D01*
X138576571Y-78129523D01*
X138614666Y-78167619D01*
X138652761Y-78243809D01*
X138652761Y-78396190D01*
X138690857Y-78472380D01*
X138728952Y-78510476D01*
X138805142Y-78548571D01*
X138957523Y-78548571D01*
X139033714Y-78510476D01*
X139071809Y-78472380D01*
X139109904Y-78396190D01*
X139109904Y-78243809D01*
X139071809Y-78167619D01*
X139033714Y-78129523D01*
X138957523Y-78091428D01*
X138805142Y-78091428D01*
X138728952Y-78129523D01*
X138690857Y-78167619D01*
X138652761Y-78243809D01*
%TO.C,D10*%
X156047904Y-70257428D02*
X155247904Y-70257428D01*
X155247904Y-70066952D01*
X155286000Y-69952666D01*
X155362190Y-69876476D01*
X155438380Y-69838380D01*
X155590761Y-69800285D01*
X155705047Y-69800285D01*
X155857428Y-69838380D01*
X155933619Y-69876476D01*
X156009809Y-69952666D01*
X156047904Y-70066952D01*
X156047904Y-70257428D01*
X156047904Y-69038380D02*
X156047904Y-69495523D01*
X156047904Y-69266952D02*
X155247904Y-69266952D01*
X155362190Y-69343142D01*
X155438380Y-69419333D01*
X155476476Y-69495523D01*
X155247904Y-68543142D02*
X155247904Y-68466952D01*
X155286000Y-68390761D01*
X155324095Y-68352666D01*
X155400285Y-68314571D01*
X155552666Y-68276476D01*
X155743142Y-68276476D01*
X155895523Y-68314571D01*
X155971714Y-68352666D01*
X156009809Y-68390761D01*
X156047904Y-68466952D01*
X156047904Y-68543142D01*
X156009809Y-68619333D01*
X155971714Y-68657428D01*
X155895523Y-68695523D01*
X155743142Y-68733619D01*
X155552666Y-68733619D01*
X155400285Y-68695523D01*
X155324095Y-68657428D01*
X155286000Y-68619333D01*
X155247904Y-68543142D01*
%TO.C,D5*%
X170017904Y-86386476D02*
X169217904Y-86386476D01*
X169217904Y-86196000D01*
X169256000Y-86081714D01*
X169332190Y-86005523D01*
X169408380Y-85967428D01*
X169560761Y-85929333D01*
X169675047Y-85929333D01*
X169827428Y-85967428D01*
X169903619Y-86005523D01*
X169979809Y-86081714D01*
X170017904Y-86196000D01*
X170017904Y-86386476D01*
X169217904Y-85205523D02*
X169217904Y-85586476D01*
X169598857Y-85624571D01*
X169560761Y-85586476D01*
X169522666Y-85510285D01*
X169522666Y-85319809D01*
X169560761Y-85243619D01*
X169598857Y-85205523D01*
X169675047Y-85167428D01*
X169865523Y-85167428D01*
X169941714Y-85205523D01*
X169979809Y-85243619D01*
X170017904Y-85319809D01*
X170017904Y-85510285D01*
X169979809Y-85586476D01*
X169941714Y-85624571D01*
%TO.C,C2*%
X145514666Y-92539714D02*
X145476571Y-92577809D01*
X145362285Y-92615904D01*
X145286095Y-92615904D01*
X145171809Y-92577809D01*
X145095619Y-92501619D01*
X145057523Y-92425428D01*
X145019428Y-92273047D01*
X145019428Y-92158761D01*
X145057523Y-92006380D01*
X145095619Y-91930190D01*
X145171809Y-91854000D01*
X145286095Y-91815904D01*
X145362285Y-91815904D01*
X145476571Y-91854000D01*
X145514666Y-91892095D01*
X145819428Y-91892095D02*
X145857523Y-91854000D01*
X145933714Y-91815904D01*
X146124190Y-91815904D01*
X146200380Y-91854000D01*
X146238476Y-91892095D01*
X146276571Y-91968285D01*
X146276571Y-92044476D01*
X146238476Y-92158761D01*
X145781333Y-92615904D01*
X146276571Y-92615904D01*
%TO.C,C5*%
X135193714Y-69963333D02*
X135231809Y-70001428D01*
X135269904Y-70115714D01*
X135269904Y-70191904D01*
X135231809Y-70306190D01*
X135155619Y-70382380D01*
X135079428Y-70420476D01*
X134927047Y-70458571D01*
X134812761Y-70458571D01*
X134660380Y-70420476D01*
X134584190Y-70382380D01*
X134508000Y-70306190D01*
X134469904Y-70191904D01*
X134469904Y-70115714D01*
X134508000Y-70001428D01*
X134546095Y-69963333D01*
X134469904Y-69239523D02*
X134469904Y-69620476D01*
X134850857Y-69658571D01*
X134812761Y-69620476D01*
X134774666Y-69544285D01*
X134774666Y-69353809D01*
X134812761Y-69277619D01*
X134850857Y-69239523D01*
X134927047Y-69201428D01*
X135117523Y-69201428D01*
X135193714Y-69239523D01*
X135231809Y-69277619D01*
X135269904Y-69353809D01*
X135269904Y-69544285D01*
X135231809Y-69620476D01*
X135193714Y-69658571D01*
%TO.C,C8*%
X166893714Y-78817333D02*
X166931809Y-78855428D01*
X166969904Y-78969714D01*
X166969904Y-79045904D01*
X166931809Y-79160190D01*
X166855619Y-79236380D01*
X166779428Y-79274476D01*
X166627047Y-79312571D01*
X166512761Y-79312571D01*
X166360380Y-79274476D01*
X166284190Y-79236380D01*
X166208000Y-79160190D01*
X166169904Y-79045904D01*
X166169904Y-78969714D01*
X166208000Y-78855428D01*
X166246095Y-78817333D01*
X166512761Y-78360190D02*
X166474666Y-78436380D01*
X166436571Y-78474476D01*
X166360380Y-78512571D01*
X166322285Y-78512571D01*
X166246095Y-78474476D01*
X166208000Y-78436380D01*
X166169904Y-78360190D01*
X166169904Y-78207809D01*
X166208000Y-78131619D01*
X166246095Y-78093523D01*
X166322285Y-78055428D01*
X166360380Y-78055428D01*
X166436571Y-78093523D01*
X166474666Y-78131619D01*
X166512761Y-78207809D01*
X166512761Y-78360190D01*
X166550857Y-78436380D01*
X166588952Y-78474476D01*
X166665142Y-78512571D01*
X166817523Y-78512571D01*
X166893714Y-78474476D01*
X166931809Y-78436380D01*
X166969904Y-78360190D01*
X166969904Y-78207809D01*
X166931809Y-78131619D01*
X166893714Y-78093523D01*
X166817523Y-78055428D01*
X166665142Y-78055428D01*
X166588952Y-78093523D01*
X166550857Y-78131619D01*
X166512761Y-78207809D01*
%TO.C,R1*%
X213776666Y-59261904D02*
X213510000Y-58880952D01*
X213319523Y-59261904D02*
X213319523Y-58461904D01*
X213624285Y-58461904D01*
X213700476Y-58500000D01*
X213738571Y-58538095D01*
X213776666Y-58614285D01*
X213776666Y-58728571D01*
X213738571Y-58804761D01*
X213700476Y-58842857D01*
X213624285Y-58880952D01*
X213319523Y-58880952D01*
X214538571Y-59261904D02*
X214081428Y-59261904D01*
X214310000Y-59261904D02*
X214310000Y-58461904D01*
X214233809Y-58576190D01*
X214157619Y-58652380D01*
X214081428Y-58690476D01*
D12*
%TO.C,J1*%
X159266666Y-109392380D02*
X159266666Y-110106666D01*
X159219047Y-110249523D01*
X159123809Y-110344761D01*
X158980952Y-110392380D01*
X158885714Y-110392380D01*
X160266666Y-110392380D02*
X159695238Y-110392380D01*
X159980952Y-110392380D02*
X159980952Y-109392380D01*
X159885714Y-109535238D01*
X159790476Y-109630476D01*
X159695238Y-109678095D01*
D10*
%TO.C,C13*%
X155971714Y-66752285D02*
X156009809Y-66790380D01*
X156047904Y-66904666D01*
X156047904Y-66980857D01*
X156009809Y-67095142D01*
X155933619Y-67171333D01*
X155857428Y-67209428D01*
X155705047Y-67247523D01*
X155590761Y-67247523D01*
X155438380Y-67209428D01*
X155362190Y-67171333D01*
X155286000Y-67095142D01*
X155247904Y-66980857D01*
X155247904Y-66904666D01*
X155286000Y-66790380D01*
X155324095Y-66752285D01*
X156047904Y-65990380D02*
X156047904Y-66447523D01*
X156047904Y-66218952D02*
X155247904Y-66218952D01*
X155362190Y-66295142D01*
X155438380Y-66371333D01*
X155476476Y-66447523D01*
X155247904Y-65723714D02*
X155247904Y-65228476D01*
X155552666Y-65495142D01*
X155552666Y-65380857D01*
X155590761Y-65304666D01*
X155628857Y-65266571D01*
X155705047Y-65228476D01*
X155895523Y-65228476D01*
X155971714Y-65266571D01*
X156009809Y-65304666D01*
X156047904Y-65380857D01*
X156047904Y-65609428D01*
X156009809Y-65685619D01*
X155971714Y-65723714D01*
%TO.C,C16*%
X181879714Y-66498285D02*
X181917809Y-66536380D01*
X181955904Y-66650666D01*
X181955904Y-66726857D01*
X181917809Y-66841142D01*
X181841619Y-66917333D01*
X181765428Y-66955428D01*
X181613047Y-66993523D01*
X181498761Y-66993523D01*
X181346380Y-66955428D01*
X181270190Y-66917333D01*
X181194000Y-66841142D01*
X181155904Y-66726857D01*
X181155904Y-66650666D01*
X181194000Y-66536380D01*
X181232095Y-66498285D01*
X181955904Y-65736380D02*
X181955904Y-66193523D01*
X181955904Y-65964952D02*
X181155904Y-65964952D01*
X181270190Y-66041142D01*
X181346380Y-66117333D01*
X181384476Y-66193523D01*
X181155904Y-65050666D02*
X181155904Y-65203047D01*
X181194000Y-65279238D01*
X181232095Y-65317333D01*
X181346380Y-65393523D01*
X181498761Y-65431619D01*
X181803523Y-65431619D01*
X181879714Y-65393523D01*
X181917809Y-65355428D01*
X181955904Y-65279238D01*
X181955904Y-65126857D01*
X181917809Y-65050666D01*
X181879714Y-65012571D01*
X181803523Y-64974476D01*
X181613047Y-64974476D01*
X181536857Y-65012571D01*
X181498761Y-65050666D01*
X181460666Y-65126857D01*
X181460666Y-65279238D01*
X181498761Y-65355428D01*
X181536857Y-65393523D01*
X181613047Y-65431619D01*
%TO.C,D15*%
X169255904Y-64415428D02*
X168455904Y-64415428D01*
X168455904Y-64224952D01*
X168494000Y-64110666D01*
X168570190Y-64034476D01*
X168646380Y-63996380D01*
X168798761Y-63958285D01*
X168913047Y-63958285D01*
X169065428Y-63996380D01*
X169141619Y-64034476D01*
X169217809Y-64110666D01*
X169255904Y-64224952D01*
X169255904Y-64415428D01*
X169255904Y-63196380D02*
X169255904Y-63653523D01*
X169255904Y-63424952D02*
X168455904Y-63424952D01*
X168570190Y-63501142D01*
X168646380Y-63577333D01*
X168684476Y-63653523D01*
X168455904Y-62472571D02*
X168455904Y-62853523D01*
X168836857Y-62891619D01*
X168798761Y-62853523D01*
X168760666Y-62777333D01*
X168760666Y-62586857D01*
X168798761Y-62510666D01*
X168836857Y-62472571D01*
X168913047Y-62434476D01*
X169103523Y-62434476D01*
X169179714Y-62472571D01*
X169217809Y-62510666D01*
X169255904Y-62586857D01*
X169255904Y-62777333D01*
X169217809Y-62853523D01*
X169179714Y-62891619D01*
%TO.C,D3*%
X225531904Y-96290476D02*
X224731904Y-96290476D01*
X224731904Y-96100000D01*
X224770000Y-95985714D01*
X224846190Y-95909523D01*
X224922380Y-95871428D01*
X225074761Y-95833333D01*
X225189047Y-95833333D01*
X225341428Y-95871428D01*
X225417619Y-95909523D01*
X225493809Y-95985714D01*
X225531904Y-96100000D01*
X225531904Y-96290476D01*
X224731904Y-95566666D02*
X224731904Y-95071428D01*
X225036666Y-95338095D01*
X225036666Y-95223809D01*
X225074761Y-95147619D01*
X225112857Y-95109523D01*
X225189047Y-95071428D01*
X225379523Y-95071428D01*
X225455714Y-95109523D01*
X225493809Y-95147619D01*
X225531904Y-95223809D01*
X225531904Y-95452380D01*
X225493809Y-95528571D01*
X225455714Y-95566666D01*
D12*
%TO.C,J2*%
X193382380Y-96283333D02*
X194096666Y-96283333D01*
X194239523Y-96330952D01*
X194334761Y-96426190D01*
X194382380Y-96569047D01*
X194382380Y-96664285D01*
X193477619Y-95854761D02*
X193430000Y-95807142D01*
X193382380Y-95711904D01*
X193382380Y-95473809D01*
X193430000Y-95378571D01*
X193477619Y-95330952D01*
X193572857Y-95283333D01*
X193668095Y-95283333D01*
X193810952Y-95330952D01*
X194382380Y-95902380D01*
X194382380Y-95283333D01*
D10*
%TO.C,C3*%
X229185714Y-91743333D02*
X229223809Y-91781428D01*
X229261904Y-91895714D01*
X229261904Y-91971904D01*
X229223809Y-92086190D01*
X229147619Y-92162380D01*
X229071428Y-92200476D01*
X228919047Y-92238571D01*
X228804761Y-92238571D01*
X228652380Y-92200476D01*
X228576190Y-92162380D01*
X228500000Y-92086190D01*
X228461904Y-91971904D01*
X228461904Y-91895714D01*
X228500000Y-91781428D01*
X228538095Y-91743333D01*
X228461904Y-91476666D02*
X228461904Y-90981428D01*
X228766666Y-91248095D01*
X228766666Y-91133809D01*
X228804761Y-91057619D01*
X228842857Y-91019523D01*
X228919047Y-90981428D01*
X229109523Y-90981428D01*
X229185714Y-91019523D01*
X229223809Y-91057619D01*
X229261904Y-91133809D01*
X229261904Y-91362380D01*
X229223809Y-91438571D01*
X229185714Y-91476666D01*
%TO.C,R10*%
X139109904Y-73392285D02*
X138728952Y-73658952D01*
X139109904Y-73849428D02*
X138309904Y-73849428D01*
X138309904Y-73544666D01*
X138348000Y-73468476D01*
X138386095Y-73430380D01*
X138462285Y-73392285D01*
X138576571Y-73392285D01*
X138652761Y-73430380D01*
X138690857Y-73468476D01*
X138728952Y-73544666D01*
X138728952Y-73849428D01*
X139109904Y-72630380D02*
X139109904Y-73087523D01*
X139109904Y-72858952D02*
X138309904Y-72858952D01*
X138424190Y-72935142D01*
X138500380Y-73011333D01*
X138538476Y-73087523D01*
X138309904Y-72135142D02*
X138309904Y-72058952D01*
X138348000Y-71982761D01*
X138386095Y-71944666D01*
X138462285Y-71906571D01*
X138614666Y-71868476D01*
X138805142Y-71868476D01*
X138957523Y-71906571D01*
X139033714Y-71944666D01*
X139071809Y-71982761D01*
X139109904Y-72058952D01*
X139109904Y-72135142D01*
X139071809Y-72211333D01*
X139033714Y-72249428D01*
X138957523Y-72287523D01*
X138805142Y-72325619D01*
X138614666Y-72325619D01*
X138462285Y-72287523D01*
X138386095Y-72249428D01*
X138348000Y-72211333D01*
X138309904Y-72135142D01*
%TO.C,D12*%
X166969904Y-67209428D02*
X166169904Y-67209428D01*
X166169904Y-67018952D01*
X166208000Y-66904666D01*
X166284190Y-66828476D01*
X166360380Y-66790380D01*
X166512761Y-66752285D01*
X166627047Y-66752285D01*
X166779428Y-66790380D01*
X166855619Y-66828476D01*
X166931809Y-66904666D01*
X166969904Y-67018952D01*
X166969904Y-67209428D01*
X166969904Y-65990380D02*
X166969904Y-66447523D01*
X166969904Y-66218952D02*
X166169904Y-66218952D01*
X166284190Y-66295142D01*
X166360380Y-66371333D01*
X166398476Y-66447523D01*
X166246095Y-65685619D02*
X166208000Y-65647523D01*
X166169904Y-65571333D01*
X166169904Y-65380857D01*
X166208000Y-65304666D01*
X166246095Y-65266571D01*
X166322285Y-65228476D01*
X166398476Y-65228476D01*
X166512761Y-65266571D01*
X166969904Y-65723714D01*
X166969904Y-65228476D01*
%TO.C,D2*%
X237963023Y-82185904D02*
X237963023Y-81385904D01*
X238153500Y-81385904D01*
X238267785Y-81424000D01*
X238343976Y-81500190D01*
X238382071Y-81576380D01*
X238420166Y-81728761D01*
X238420166Y-81843047D01*
X238382071Y-81995428D01*
X238343976Y-82071619D01*
X238267785Y-82147809D01*
X238153500Y-82185904D01*
X237963023Y-82185904D01*
X238724928Y-81462095D02*
X238763023Y-81424000D01*
X238839214Y-81385904D01*
X239029690Y-81385904D01*
X239105880Y-81424000D01*
X239143976Y-81462095D01*
X239182071Y-81538285D01*
X239182071Y-81614476D01*
X239143976Y-81728761D01*
X238686833Y-82185904D01*
X239182071Y-82185904D01*
%TO.C,R15*%
X175351904Y-67768285D02*
X174970952Y-68034952D01*
X175351904Y-68225428D02*
X174551904Y-68225428D01*
X174551904Y-67920666D01*
X174590000Y-67844476D01*
X174628095Y-67806380D01*
X174704285Y-67768285D01*
X174818571Y-67768285D01*
X174894761Y-67806380D01*
X174932857Y-67844476D01*
X174970952Y-67920666D01*
X174970952Y-68225428D01*
X175351904Y-67006380D02*
X175351904Y-67463523D01*
X175351904Y-67234952D02*
X174551904Y-67234952D01*
X174666190Y-67311142D01*
X174742380Y-67387333D01*
X174780476Y-67463523D01*
X174551904Y-66282571D02*
X174551904Y-66663523D01*
X174932857Y-66701619D01*
X174894761Y-66663523D01*
X174856666Y-66587333D01*
X174856666Y-66396857D01*
X174894761Y-66320666D01*
X174932857Y-66282571D01*
X175009047Y-66244476D01*
X175199523Y-66244476D01*
X175275714Y-66282571D01*
X175313809Y-66320666D01*
X175351904Y-66396857D01*
X175351904Y-66587333D01*
X175313809Y-66663523D01*
X175275714Y-66701619D01*
%TO.C,C18*%
X149285714Y-97015714D02*
X149247619Y-97053809D01*
X149133333Y-97091904D01*
X149057142Y-97091904D01*
X148942857Y-97053809D01*
X148866666Y-96977619D01*
X148828571Y-96901428D01*
X148790476Y-96749047D01*
X148790476Y-96634761D01*
X148828571Y-96482380D01*
X148866666Y-96406190D01*
X148942857Y-96330000D01*
X149057142Y-96291904D01*
X149133333Y-96291904D01*
X149247619Y-96330000D01*
X149285714Y-96368095D01*
X150047619Y-97091904D02*
X149590476Y-97091904D01*
X149819047Y-97091904D02*
X149819047Y-96291904D01*
X149742857Y-96406190D01*
X149666666Y-96482380D01*
X149590476Y-96520476D01*
X150504761Y-96634761D02*
X150428571Y-96596666D01*
X150390476Y-96558571D01*
X150352380Y-96482380D01*
X150352380Y-96444285D01*
X150390476Y-96368095D01*
X150428571Y-96330000D01*
X150504761Y-96291904D01*
X150657142Y-96291904D01*
X150733333Y-96330000D01*
X150771428Y-96368095D01*
X150809523Y-96444285D01*
X150809523Y-96482380D01*
X150771428Y-96558571D01*
X150733333Y-96596666D01*
X150657142Y-96634761D01*
X150504761Y-96634761D01*
X150428571Y-96672857D01*
X150390476Y-96710952D01*
X150352380Y-96787142D01*
X150352380Y-96939523D01*
X150390476Y-97015714D01*
X150428571Y-97053809D01*
X150504761Y-97091904D01*
X150657142Y-97091904D01*
X150733333Y-97053809D01*
X150771428Y-97015714D01*
X150809523Y-96939523D01*
X150809523Y-96787142D01*
X150771428Y-96710952D01*
X150733333Y-96672857D01*
X150657142Y-96634761D01*
%TO.C,C10*%
X168853714Y-79452285D02*
X168891809Y-79490380D01*
X168929904Y-79604666D01*
X168929904Y-79680857D01*
X168891809Y-79795142D01*
X168815619Y-79871333D01*
X168739428Y-79909428D01*
X168587047Y-79947523D01*
X168472761Y-79947523D01*
X168320380Y-79909428D01*
X168244190Y-79871333D01*
X168168000Y-79795142D01*
X168129904Y-79680857D01*
X168129904Y-79604666D01*
X168168000Y-79490380D01*
X168206095Y-79452285D01*
X168929904Y-78690380D02*
X168929904Y-79147523D01*
X168929904Y-78918952D02*
X168129904Y-78918952D01*
X168244190Y-78995142D01*
X168320380Y-79071333D01*
X168358476Y-79147523D01*
X168129904Y-78195142D02*
X168129904Y-78118952D01*
X168168000Y-78042761D01*
X168206095Y-78004666D01*
X168282285Y-77966571D01*
X168434666Y-77928476D01*
X168625142Y-77928476D01*
X168777523Y-77966571D01*
X168853714Y-78004666D01*
X168891809Y-78042761D01*
X168929904Y-78118952D01*
X168929904Y-78195142D01*
X168891809Y-78271333D01*
X168853714Y-78309428D01*
X168777523Y-78347523D01*
X168625142Y-78385619D01*
X168434666Y-78385619D01*
X168282285Y-78347523D01*
X168206095Y-78309428D01*
X168168000Y-78271333D01*
X168129904Y-78195142D01*
%TO.C,C6*%
X169941714Y-83135333D02*
X169979809Y-83173428D01*
X170017904Y-83287714D01*
X170017904Y-83363904D01*
X169979809Y-83478190D01*
X169903619Y-83554380D01*
X169827428Y-83592476D01*
X169675047Y-83630571D01*
X169560761Y-83630571D01*
X169408380Y-83592476D01*
X169332190Y-83554380D01*
X169256000Y-83478190D01*
X169217904Y-83363904D01*
X169217904Y-83287714D01*
X169256000Y-83173428D01*
X169294095Y-83135333D01*
X169217904Y-82449619D02*
X169217904Y-82602000D01*
X169256000Y-82678190D01*
X169294095Y-82716285D01*
X169408380Y-82792476D01*
X169560761Y-82830571D01*
X169865523Y-82830571D01*
X169941714Y-82792476D01*
X169979809Y-82754380D01*
X170017904Y-82678190D01*
X170017904Y-82525809D01*
X169979809Y-82449619D01*
X169941714Y-82411523D01*
X169865523Y-82373428D01*
X169675047Y-82373428D01*
X169598857Y-82411523D01*
X169560761Y-82449619D01*
X169522666Y-82525809D01*
X169522666Y-82678190D01*
X169560761Y-82754380D01*
X169598857Y-82792476D01*
X169675047Y-82830571D01*
%TO.C,C4*%
X238476666Y-64665714D02*
X238438571Y-64703809D01*
X238324285Y-64741904D01*
X238248095Y-64741904D01*
X238133809Y-64703809D01*
X238057619Y-64627619D01*
X238019523Y-64551428D01*
X237981428Y-64399047D01*
X237981428Y-64284761D01*
X238019523Y-64132380D01*
X238057619Y-64056190D01*
X238133809Y-63980000D01*
X238248095Y-63941904D01*
X238324285Y-63941904D01*
X238438571Y-63980000D01*
X238476666Y-64018095D01*
X239162380Y-64208571D02*
X239162380Y-64741904D01*
X238971904Y-63903809D02*
X238781428Y-64475238D01*
X239276666Y-64475238D01*
%TO.C,D9*%
X155920904Y-74067476D02*
X155120904Y-74067476D01*
X155120904Y-73877000D01*
X155159000Y-73762714D01*
X155235190Y-73686523D01*
X155311380Y-73648428D01*
X155463761Y-73610333D01*
X155578047Y-73610333D01*
X155730428Y-73648428D01*
X155806619Y-73686523D01*
X155882809Y-73762714D01*
X155920904Y-73877000D01*
X155920904Y-74067476D01*
X155920904Y-73229380D02*
X155920904Y-73077000D01*
X155882809Y-73000809D01*
X155844714Y-72962714D01*
X155730428Y-72886523D01*
X155578047Y-72848428D01*
X155273285Y-72848428D01*
X155197095Y-72886523D01*
X155159000Y-72924619D01*
X155120904Y-73000809D01*
X155120904Y-73153190D01*
X155159000Y-73229380D01*
X155197095Y-73267476D01*
X155273285Y-73305571D01*
X155463761Y-73305571D01*
X155539952Y-73267476D01*
X155578047Y-73229380D01*
X155616142Y-73153190D01*
X155616142Y-73000809D01*
X155578047Y-72924619D01*
X155539952Y-72886523D01*
X155463761Y-72848428D01*
%TO.C,C11*%
X166893714Y-73864285D02*
X166931809Y-73902380D01*
X166969904Y-74016666D01*
X166969904Y-74092857D01*
X166931809Y-74207142D01*
X166855619Y-74283333D01*
X166779428Y-74321428D01*
X166627047Y-74359523D01*
X166512761Y-74359523D01*
X166360380Y-74321428D01*
X166284190Y-74283333D01*
X166208000Y-74207142D01*
X166169904Y-74092857D01*
X166169904Y-74016666D01*
X166208000Y-73902380D01*
X166246095Y-73864285D01*
X166969904Y-73102380D02*
X166969904Y-73559523D01*
X166969904Y-73330952D02*
X166169904Y-73330952D01*
X166284190Y-73407142D01*
X166360380Y-73483333D01*
X166398476Y-73559523D01*
X166969904Y-72340476D02*
X166969904Y-72797619D01*
X166969904Y-72569047D02*
X166169904Y-72569047D01*
X166284190Y-72645238D01*
X166360380Y-72721428D01*
X166398476Y-72797619D01*
%TO.C,L1*%
X164429904Y-88977333D02*
X164429904Y-89358285D01*
X163629904Y-89358285D01*
X164429904Y-88291619D02*
X164429904Y-88748761D01*
X164429904Y-88520190D02*
X163629904Y-88520190D01*
X163744190Y-88596380D01*
X163820380Y-88672571D01*
X163858476Y-88748761D01*
%TO.C,C9*%
X179936666Y-77191714D02*
X179898571Y-77229809D01*
X179784285Y-77267904D01*
X179708095Y-77267904D01*
X179593809Y-77229809D01*
X179517619Y-77153619D01*
X179479523Y-77077428D01*
X179441428Y-76925047D01*
X179441428Y-76810761D01*
X179479523Y-76658380D01*
X179517619Y-76582190D01*
X179593809Y-76506000D01*
X179708095Y-76467904D01*
X179784285Y-76467904D01*
X179898571Y-76506000D01*
X179936666Y-76544095D01*
X180317619Y-77267904D02*
X180470000Y-77267904D01*
X180546190Y-77229809D01*
X180584285Y-77191714D01*
X180660476Y-77077428D01*
X180698571Y-76925047D01*
X180698571Y-76620285D01*
X180660476Y-76544095D01*
X180622380Y-76506000D01*
X180546190Y-76467904D01*
X180393809Y-76467904D01*
X180317619Y-76506000D01*
X180279523Y-76544095D01*
X180241428Y-76620285D01*
X180241428Y-76810761D01*
X180279523Y-76886952D01*
X180317619Y-76925047D01*
X180393809Y-76963142D01*
X180546190Y-76963142D01*
X180622380Y-76925047D01*
X180660476Y-76886952D01*
X180698571Y-76810761D01*
%TO.C,R16*%
X181955904Y-63958285D02*
X181574952Y-64224952D01*
X181955904Y-64415428D02*
X181155904Y-64415428D01*
X181155904Y-64110666D01*
X181194000Y-64034476D01*
X181232095Y-63996380D01*
X181308285Y-63958285D01*
X181422571Y-63958285D01*
X181498761Y-63996380D01*
X181536857Y-64034476D01*
X181574952Y-64110666D01*
X181574952Y-64415428D01*
X181955904Y-63196380D02*
X181955904Y-63653523D01*
X181955904Y-63424952D02*
X181155904Y-63424952D01*
X181270190Y-63501142D01*
X181346380Y-63577333D01*
X181384476Y-63653523D01*
X181155904Y-62510666D02*
X181155904Y-62663047D01*
X181194000Y-62739238D01*
X181232095Y-62777333D01*
X181346380Y-62853523D01*
X181498761Y-62891619D01*
X181803523Y-62891619D01*
X181879714Y-62853523D01*
X181917809Y-62815428D01*
X181955904Y-62739238D01*
X181955904Y-62586857D01*
X181917809Y-62510666D01*
X181879714Y-62472571D01*
X181803523Y-62434476D01*
X181613047Y-62434476D01*
X181536857Y-62472571D01*
X181498761Y-62510666D01*
X181460666Y-62586857D01*
X181460666Y-62739238D01*
X181498761Y-62815428D01*
X181536857Y-62853523D01*
X181613047Y-62891619D01*
%TO.C,JP1*%
X141443904Y-84974666D02*
X142015333Y-84974666D01*
X142129619Y-85012761D01*
X142205809Y-85088952D01*
X142243904Y-85203238D01*
X142243904Y-85279428D01*
X142243904Y-84593714D02*
X141443904Y-84593714D01*
X141443904Y-84288952D01*
X141482000Y-84212761D01*
X141520095Y-84174666D01*
X141596285Y-84136571D01*
X141710571Y-84136571D01*
X141786761Y-84174666D01*
X141824857Y-84212761D01*
X141862952Y-84288952D01*
X141862952Y-84593714D01*
X142243904Y-83374666D02*
X142243904Y-83831809D01*
X142243904Y-83603238D02*
X141443904Y-83603238D01*
X141558190Y-83679428D01*
X141634380Y-83755619D01*
X141672476Y-83831809D01*
%TO.C,R9*%
X139109904Y-67423333D02*
X138728952Y-67690000D01*
X139109904Y-67880476D02*
X138309904Y-67880476D01*
X138309904Y-67575714D01*
X138348000Y-67499523D01*
X138386095Y-67461428D01*
X138462285Y-67423333D01*
X138576571Y-67423333D01*
X138652761Y-67461428D01*
X138690857Y-67499523D01*
X138728952Y-67575714D01*
X138728952Y-67880476D01*
X139109904Y-67042380D02*
X139109904Y-66890000D01*
X139071809Y-66813809D01*
X139033714Y-66775714D01*
X138919428Y-66699523D01*
X138767047Y-66661428D01*
X138462285Y-66661428D01*
X138386095Y-66699523D01*
X138348000Y-66737619D01*
X138309904Y-66813809D01*
X138309904Y-66966190D01*
X138348000Y-67042380D01*
X138386095Y-67080476D01*
X138462285Y-67118571D01*
X138652761Y-67118571D01*
X138728952Y-67080476D01*
X138767047Y-67042380D01*
X138805142Y-66966190D01*
X138805142Y-66813809D01*
X138767047Y-66737619D01*
X138728952Y-66699523D01*
X138652761Y-66661428D01*
%TO.C,D7*%
X177955523Y-81839904D02*
X177955523Y-81039904D01*
X178146000Y-81039904D01*
X178260285Y-81078000D01*
X178336476Y-81154190D01*
X178374571Y-81230380D01*
X178412666Y-81382761D01*
X178412666Y-81497047D01*
X178374571Y-81649428D01*
X178336476Y-81725619D01*
X178260285Y-81801809D01*
X178146000Y-81839904D01*
X177955523Y-81839904D01*
X178679333Y-81039904D02*
X179212666Y-81039904D01*
X178869809Y-81839904D01*
%TO.C,C1*%
X210991714Y-58617333D02*
X211029809Y-58655428D01*
X211067904Y-58769714D01*
X211067904Y-58845904D01*
X211029809Y-58960190D01*
X210953619Y-59036380D01*
X210877428Y-59074476D01*
X210725047Y-59112571D01*
X210610761Y-59112571D01*
X210458380Y-59074476D01*
X210382190Y-59036380D01*
X210306000Y-58960190D01*
X210267904Y-58845904D01*
X210267904Y-58769714D01*
X210306000Y-58655428D01*
X210344095Y-58617333D01*
X211067904Y-57855428D02*
X211067904Y-58312571D01*
X211067904Y-58084000D02*
X210267904Y-58084000D01*
X210382190Y-58160190D01*
X210458380Y-58236380D01*
X210496476Y-58312571D01*
%TO.C,D11*%
X175351904Y-74575428D02*
X174551904Y-74575428D01*
X174551904Y-74384952D01*
X174590000Y-74270666D01*
X174666190Y-74194476D01*
X174742380Y-74156380D01*
X174894761Y-74118285D01*
X175009047Y-74118285D01*
X175161428Y-74156380D01*
X175237619Y-74194476D01*
X175313809Y-74270666D01*
X175351904Y-74384952D01*
X175351904Y-74575428D01*
X175351904Y-73356380D02*
X175351904Y-73813523D01*
X175351904Y-73584952D02*
X174551904Y-73584952D01*
X174666190Y-73661142D01*
X174742380Y-73737333D01*
X174780476Y-73813523D01*
X175351904Y-72594476D02*
X175351904Y-73051619D01*
X175351904Y-72823047D02*
X174551904Y-72823047D01*
X174666190Y-72899238D01*
X174742380Y-72975428D01*
X174780476Y-73051619D01*
%TO.C,R7*%
X201601904Y-91633333D02*
X201220952Y-91900000D01*
X201601904Y-92090476D02*
X200801904Y-92090476D01*
X200801904Y-91785714D01*
X200840000Y-91709523D01*
X200878095Y-91671428D01*
X200954285Y-91633333D01*
X201068571Y-91633333D01*
X201144761Y-91671428D01*
X201182857Y-91709523D01*
X201220952Y-91785714D01*
X201220952Y-92090476D01*
X200801904Y-91366666D02*
X200801904Y-90833333D01*
X201601904Y-91176190D01*
%TO.C,U1*%
X223938000Y-61012000D02*
X235738000Y-69012000D01*
X211538000Y-60912000D02*
X199638000Y-68912000D01*
X223938000Y-85512000D02*
X235738000Y-77512000D01*
X211538000Y-85612000D02*
X199538000Y-77512000D01*
X199638000Y-68912000D02*
G75*
G03*
X199561033Y-77559694I2899999J-4350000D01*
G01*
X211538000Y-85612001D02*
G75*
G03*
X224043870Y-85456152I6100000J12350001D01*
G01*
X224043870Y-61067849D02*
G75*
G03*
X211538000Y-60912000I-6405870J-12194151D01*
G01*
X235585176Y-77615859D02*
G75*
G03*
X235738000Y-69012000I-2847176J4353859D01*
G01*
%TO.C,U2*%
X154170000Y-77410000D02*
X154170000Y-78910000D01*
X154170000Y-78910000D02*
X153220000Y-78910000D01*
X143770000Y-78910000D02*
X144720000Y-78910000D01*
X144720000Y-78910000D02*
X144720000Y-84035000D01*
X143770000Y-77410000D02*
X143770000Y-78910000D01*
X153220000Y-78910000D02*
X153220000Y-80010000D01*
%TO.C,C20*%
X183740000Y-76195563D02*
X183740000Y-68740000D01*
X192260000Y-68740000D02*
X189310000Y-68740000D01*
X184804437Y-77260000D02*
X183740000Y-76195563D01*
X184804437Y-77260000D02*
X186690000Y-77260000D01*
X183740000Y-68740000D02*
X186690000Y-68740000D01*
X191195563Y-77260000D02*
X192260000Y-76195563D01*
X192260000Y-76195563D02*
X192260000Y-68740000D01*
X191195563Y-77260000D02*
X189310000Y-77260000D01*
%TO.C,C19*%
X192260000Y-83144437D02*
X192260000Y-90600000D01*
X183740000Y-90600000D02*
X186690000Y-90600000D01*
X191195563Y-82080000D02*
X192260000Y-83144437D01*
X191195563Y-82080000D02*
X189310000Y-82080000D01*
X192260000Y-90600000D02*
X189310000Y-90600000D01*
X184804437Y-82080000D02*
X183740000Y-83144437D01*
X183740000Y-83144437D02*
X183740000Y-90600000D01*
X184804437Y-82080000D02*
X186690000Y-82080000D01*
%TO.C,C12*%
X179257252Y-67868000D02*
X177834748Y-67868000D01*
X179257252Y-69688000D02*
X177834748Y-69688000D01*
%TO.C,D16*%
X171790000Y-105300000D02*
X175090000Y-105300000D01*
X175090000Y-105300000D02*
X175090000Y-98400000D01*
X171790000Y-105300000D02*
X171790000Y-98400000D01*
%TO.C,D1*%
X232877500Y-83560000D02*
X232877500Y-85560000D01*
X232877500Y-85560000D02*
X236727500Y-85560000D01*
X232877500Y-83560000D02*
X236727500Y-83560000D01*
%TO.C,C7*%
X156554000Y-77718748D02*
X156554000Y-79141252D01*
X158374000Y-77718748D02*
X158374000Y-79141252D01*
%TO.C,R12*%
X176366000Y-74331064D02*
X176366000Y-72876936D01*
X178186000Y-74331064D02*
X178186000Y-72876936D01*
%TO.C,C14*%
X171328000Y-74315252D02*
X171328000Y-72892748D01*
X169508000Y-74315252D02*
X169508000Y-72892748D01*
%TO.C,D4*%
X237420000Y-59410000D02*
X230520000Y-59410000D01*
X237420000Y-62710000D02*
X237420000Y-59410000D01*
X237420000Y-62710000D02*
X230520000Y-62710000D01*
%TO.C,R11*%
X137668000Y-79447064D02*
X137668000Y-77992936D01*
X135848000Y-79447064D02*
X135848000Y-77992936D01*
%TO.C,J4*%
X217100000Y-95050000D02*
X217100000Y-110050000D01*
X209600000Y-109850000D02*
X208600000Y-108850000D01*
X202100000Y-95050000D02*
X217100000Y-95050000D01*
X202100000Y-110050000D02*
X202100000Y-95050000D01*
X209600000Y-109850000D02*
X210600000Y-108850000D01*
X217100000Y-110050000D02*
X202100000Y-110050000D01*
%TO.C,R13*%
X161168000Y-72622936D02*
X161168000Y-74077064D01*
X159348000Y-72622936D02*
X159348000Y-74077064D01*
%TO.C,R5*%
X202846000Y-87458936D02*
X202846000Y-88913064D01*
X204666000Y-87458936D02*
X204666000Y-88913064D01*
%TO.C,R3*%
X144920936Y-88520000D02*
X146375064Y-88520000D01*
X144920936Y-86700000D02*
X146375064Y-86700000D01*
%TO.C,D13*%
X156534000Y-62444000D02*
X156534000Y-64444000D01*
X156534000Y-64444000D02*
X160384000Y-64444000D01*
X156534000Y-62444000D02*
X160384000Y-62444000D01*
%TO.C,TP3*%
X242730000Y-69450000D02*
X242730000Y-66550000D01*
X242730000Y-66550000D02*
X245630000Y-66550000D01*
X245630000Y-66550000D02*
X245630000Y-69450000D01*
X245630000Y-69450000D02*
X242730000Y-69450000D01*
%TO.C,C17*%
X150524748Y-87462000D02*
X151947252Y-87462000D01*
X150524748Y-89282000D02*
X151947252Y-89282000D01*
%TO.C,R14*%
X164541064Y-68376000D02*
X163086936Y-68376000D01*
X164541064Y-70196000D02*
X163086936Y-70196000D01*
%TO.C,J3*%
X130950000Y-113950000D02*
X130950000Y-99350000D01*
X139950000Y-99350000D02*
X139950000Y-100850000D01*
X135450000Y-99350000D02*
X139950000Y-99350000D01*
X139950000Y-113950000D02*
X130950000Y-113950000D01*
X130950000Y-99350000D02*
X135450000Y-99350000D01*
X139950000Y-105550000D02*
X139950000Y-113950000D01*
%TO.C,D6*%
X159512000Y-76484000D02*
X159512000Y-80334000D01*
X161512000Y-76484000D02*
X159512000Y-76484000D01*
X161512000Y-76484000D02*
X161512000Y-80334000D01*
%TO.C,R6*%
X208000000Y-87492936D02*
X208000000Y-88947064D01*
X209820000Y-87492936D02*
X209820000Y-88947064D01*
%TO.C,R4*%
X207270000Y-88937064D02*
X207270000Y-87482936D01*
X205450000Y-88937064D02*
X205450000Y-87482936D01*
%TO.C,J5*%
X226415000Y-119300000D02*
X228415000Y-119300000D01*
X226655000Y-119060000D02*
X236935000Y-119060000D01*
X226655000Y-113000000D02*
X236935000Y-113000000D01*
X235610000Y-113931000D02*
X235516000Y-114024000D01*
X233155000Y-115976000D02*
X233061000Y-116069000D01*
X226655000Y-110940000D02*
X236935000Y-110940000D01*
X235405000Y-113725000D02*
X235346000Y-113784000D01*
X233325000Y-116216000D02*
X233266000Y-116274000D01*
X226655000Y-110940000D02*
X226655000Y-119060000D01*
X226655000Y-117000000D02*
X236935000Y-117000000D01*
X236935000Y-110940000D02*
X236935000Y-119060000D01*
X226415000Y-117060000D02*
X226415000Y-119300000D01*
X230739001Y-115789000D02*
G75*
G03*
X230738953Y-114210911I-1484001J789000D01*
G01*
X227771000Y-114211000D02*
G75*
G03*
X227771047Y-115789089I1483995J-789000D01*
G01*
X228466000Y-116484000D02*
G75*
G03*
X229284383Y-116680450I788998J1483995D01*
G01*
X230044000Y-113516000D02*
G75*
G03*
X228465911Y-113516047I-789000J-1483995D01*
G01*
X229255000Y-116680000D02*
G75*
G03*
X230043712Y-116483352I0J1680000D01*
G01*
X236015000Y-115000000D02*
G75*
G03*
X236015000Y-115000000I-1680000J0D01*
G01*
%TO.C,D8*%
X172212000Y-76738000D02*
X172212000Y-80588000D01*
X174212000Y-76738000D02*
X174212000Y-80588000D01*
X174212000Y-76738000D02*
X172212000Y-76738000D01*
%TO.C,D14*%
X169418000Y-69454000D02*
X171418000Y-69454000D01*
X169418000Y-69454000D02*
X169418000Y-65604000D01*
X171418000Y-69454000D02*
X171418000Y-65604000D01*
%TO.C,R2*%
X234292936Y-86460000D02*
X235747064Y-86460000D01*
X234292936Y-88280000D02*
X235747064Y-88280000D01*
%TO.C,RV1*%
X246732000Y-91444000D02*
X246732000Y-88794000D01*
X242962000Y-109854000D02*
X242962000Y-108335000D01*
X246732000Y-108334000D02*
X246732000Y-105683000D01*
X244582000Y-109854000D02*
X244582000Y-109095000D01*
X242432000Y-88794000D02*
X246732000Y-88794000D01*
X242432000Y-99064000D02*
X242432000Y-88794000D01*
X242432000Y-108334000D02*
X246732000Y-108334000D01*
X242962000Y-109854000D02*
X246202000Y-109854000D01*
X242962000Y-108335000D02*
X246202000Y-108335000D01*
X246732000Y-104144000D02*
X246732000Y-92983000D01*
X242432000Y-108334000D02*
X242432000Y-100603000D01*
X246202000Y-109854000D02*
X246202000Y-108335000D01*
%TO.C,C15*%
X164525252Y-62534000D02*
X163102748Y-62534000D01*
X164525252Y-64354000D02*
X163102748Y-64354000D01*
%TO.C,R8*%
X139658000Y-79447064D02*
X139658000Y-77992936D01*
X141478000Y-79447064D02*
X141478000Y-77992936D01*
%TO.C,D10*%
X160934000Y-70286000D02*
X157084000Y-70286000D01*
X160934000Y-70286000D02*
X160934000Y-68286000D01*
X160934000Y-68286000D02*
X157084000Y-68286000D01*
%TO.C,D5*%
X164408000Y-84796000D02*
X168258000Y-84796000D01*
X164408000Y-86796000D02*
X168258000Y-86796000D01*
X164408000Y-84796000D02*
X164408000Y-86796000D01*
%TO.C,C2*%
X146359252Y-91314000D02*
X144936748Y-91314000D01*
X146359252Y-89494000D02*
X144936748Y-89494000D01*
%TO.C,C5*%
X137668000Y-70541252D02*
X137668000Y-69118748D01*
X135848000Y-70541252D02*
X135848000Y-69118748D01*
%TO.C,C8*%
X163920000Y-79395252D02*
X163920000Y-77972748D01*
X165740000Y-79395252D02*
X165740000Y-77972748D01*
%TO.C,R1*%
X213192936Y-57890000D02*
X214647064Y-57890000D01*
X213192936Y-56070000D02*
X214647064Y-56070000D01*
%TO.C,J1*%
X149380000Y-119060000D02*
X169820000Y-119060000D01*
X163415000Y-113931000D02*
X163321000Y-114024000D01*
X168290000Y-113725000D02*
X168231000Y-113784000D01*
X149140000Y-117060000D02*
X149140000Y-119300000D01*
X156050000Y-116216000D02*
X155991000Y-116274000D01*
X149380000Y-113000000D02*
X169820000Y-113000000D01*
X166040000Y-115976000D02*
X165946000Y-116069000D01*
X163210000Y-113725000D02*
X163151000Y-113784000D01*
X149140000Y-119300000D02*
X151140000Y-119300000D01*
X161130000Y-116216000D02*
X161071000Y-116274000D01*
X166210000Y-116216000D02*
X166151000Y-116274000D01*
X158335000Y-113931000D02*
X158241000Y-114024000D01*
X149380000Y-110940000D02*
X169820000Y-110940000D01*
X158130000Y-113725000D02*
X158071000Y-113784000D01*
X149380000Y-117000000D02*
X169820000Y-117000000D01*
X168495000Y-113931000D02*
X168401000Y-114024000D01*
X160960000Y-115976000D02*
X160866000Y-116069000D01*
X169820000Y-110940000D02*
X169820000Y-119060000D01*
X149380000Y-110940000D02*
X149380000Y-119060000D01*
X155880000Y-115976000D02*
X155786000Y-116069000D01*
X151191000Y-116484000D02*
G75*
G03*
X152009383Y-116680450I788998J1483995D01*
G01*
X153464001Y-115789000D02*
G75*
G03*
X153463953Y-114210911I-1484001J789000D01*
G01*
X151980000Y-116680000D02*
G75*
G03*
X152768712Y-116483352I0J1680000D01*
G01*
X150496000Y-114211000D02*
G75*
G03*
X150496047Y-115789089I1483995J-789000D01*
G01*
X152769000Y-113516000D02*
G75*
G03*
X151190911Y-113516047I-789000J-1483995D01*
G01*
X158740000Y-115000000D02*
G75*
G03*
X158740000Y-115000000I-1680000J0D01*
G01*
X168900000Y-115000000D02*
G75*
G03*
X168900000Y-115000000I-1680000J0D01*
G01*
X163820000Y-115000000D02*
G75*
G03*
X163820000Y-115000000I-1680000J0D01*
G01*
%TO.C,C13*%
X159445252Y-67148000D02*
X158022748Y-67148000D01*
X159445252Y-65328000D02*
X158022748Y-65328000D01*
%TO.C,C16*%
X177834748Y-66894000D02*
X179257252Y-66894000D01*
X177834748Y-65074000D02*
X179257252Y-65074000D01*
%TO.C,D15*%
X169742000Y-64444000D02*
X173592000Y-64444000D01*
X169742000Y-62444000D02*
X169742000Y-64444000D01*
X169742000Y-62444000D02*
X173592000Y-62444000D01*
%TO.C,TP4*%
X197260000Y-87080000D02*
X197260000Y-89980000D01*
X194360000Y-87080000D02*
X197260000Y-87080000D01*
X194360000Y-89980000D02*
X194360000Y-87080000D01*
X197260000Y-89980000D02*
X194360000Y-89980000D01*
%TO.C,D3*%
X223990000Y-87590000D02*
X220690000Y-87590000D01*
X223990000Y-87590000D02*
X223990000Y-94490000D01*
X220690000Y-87590000D02*
X220690000Y-94490000D01*
%TO.C,J2*%
X185300000Y-109750000D02*
X186300000Y-108750000D01*
X185300000Y-109750000D02*
X184300000Y-108750000D01*
X177800000Y-94950000D02*
X192800000Y-94950000D01*
X192800000Y-94950000D02*
X192800000Y-109950000D01*
X177800000Y-109950000D02*
X177800000Y-94950000D01*
X192800000Y-109950000D02*
X177800000Y-109950000D01*
%TO.C,TP1*%
X165772000Y-61592000D02*
X162872000Y-61592000D01*
X165772000Y-58692000D02*
X165772000Y-61592000D01*
X162872000Y-61592000D02*
X162872000Y-58692000D01*
X162872000Y-58692000D02*
X165772000Y-58692000D01*
%TO.C,C3*%
X227670000Y-90788748D02*
X227670000Y-92211252D01*
X225850000Y-90788748D02*
X225850000Y-92211252D01*
%TO.C,R10*%
X139658000Y-73605064D02*
X139658000Y-72150936D01*
X141478000Y-73605064D02*
X141478000Y-72150936D01*
%TO.C,D12*%
X161614000Y-67238000D02*
X165464000Y-67238000D01*
X161614000Y-65238000D02*
X165464000Y-65238000D01*
X161614000Y-65238000D02*
X161614000Y-67238000D01*
%TO.C,D2*%
X237277500Y-82766000D02*
X237277500Y-80766000D01*
X237277500Y-82766000D02*
X233427500Y-82766000D01*
X237277500Y-80766000D02*
X233427500Y-80766000D01*
%TO.C,R15*%
X174122000Y-67981064D02*
X174122000Y-66526936D01*
X172302000Y-67981064D02*
X172302000Y-66526936D01*
%TO.C,C18*%
X149088748Y-99490000D02*
X150511252Y-99490000D01*
X149088748Y-97670000D02*
X150511252Y-97670000D01*
%TO.C,C10*%
X169508000Y-79649252D02*
X169508000Y-78226748D01*
X171328000Y-79649252D02*
X171328000Y-78226748D01*
%TO.C,C6*%
X165896748Y-82092000D02*
X167319252Y-82092000D01*
X165896748Y-83912000D02*
X167319252Y-83912000D01*
%TO.C,C4*%
X234318748Y-63540000D02*
X235741252Y-63540000D01*
X234318748Y-65360000D02*
X235741252Y-65360000D01*
%TO.C,D9*%
X156464000Y-75550000D02*
X158464000Y-75550000D01*
X156464000Y-75550000D02*
X156464000Y-71700000D01*
X158464000Y-75550000D02*
X158464000Y-71700000D01*
%TO.C,TP2*%
X178750000Y-61650000D02*
X175850000Y-61650000D01*
X175850000Y-61650000D02*
X175850000Y-58750000D01*
X175850000Y-58750000D02*
X178750000Y-58750000D01*
X178750000Y-58750000D02*
X178750000Y-61650000D01*
%TO.C,C11*%
X163920000Y-74061252D02*
X163920000Y-72638748D01*
X165740000Y-74061252D02*
X165740000Y-72638748D01*
%TO.C,L1*%
X156500000Y-89550000D02*
X156500000Y-82550000D01*
X162000000Y-82550000D02*
X163000000Y-82550000D01*
X163000000Y-89550000D02*
X162000000Y-89550000D01*
X163000000Y-82550000D02*
X163000000Y-89550000D01*
X156500000Y-82550000D02*
X157500000Y-82550000D01*
X157500000Y-89550000D02*
X156500000Y-89550000D01*
%TO.C,C9*%
X180980000Y-74315252D02*
X180980000Y-72892748D01*
X179160000Y-74315252D02*
X179160000Y-72892748D01*
%TO.C,R16*%
X177818936Y-62534000D02*
X179273064Y-62534000D01*
X177818936Y-64354000D02*
X179273064Y-64354000D01*
%TO.C,JP1*%
X139552000Y-82978000D02*
X140882000Y-82978000D01*
X138282000Y-85638000D02*
X135682000Y-85638000D01*
X138282000Y-82978000D02*
X135682000Y-82978000D01*
X138282000Y-82978000D02*
X138282000Y-85638000D01*
X140882000Y-82978000D02*
X140882000Y-84308000D01*
X135682000Y-82978000D02*
X135682000Y-85638000D01*
%TO.C,R9*%
X139658000Y-68017064D02*
X139658000Y-66562936D01*
X141478000Y-68017064D02*
X141478000Y-66562936D01*
%TO.C,D7*%
X176346000Y-78446000D02*
X176346000Y-80446000D01*
X176346000Y-80446000D02*
X180196000Y-80446000D01*
X176346000Y-78446000D02*
X180196000Y-78446000D01*
%TO.C,C1*%
X209900000Y-57808748D02*
X209900000Y-59231252D01*
X208080000Y-57808748D02*
X208080000Y-59231252D01*
%TO.C,D11*%
X172212000Y-75804000D02*
X172212000Y-71954000D01*
X174212000Y-75804000D02*
X174212000Y-71954000D01*
X172212000Y-75804000D02*
X174212000Y-75804000D01*
%TO.C,R7*%
X200200000Y-88907064D02*
X200200000Y-87452936D01*
X202020000Y-88907064D02*
X202020000Y-87452936D01*
%TD*%
M02*
