%TF.GenerationSoftware,KiCad,Pcbnew,6.0.4-6f826c9f35~116~ubuntu21.10.1*%
%TF.CreationDate,2022-05-06T18:09:40-07:00*%
%TF.ProjectId,HV_Amplifier,48565f41-6d70-46c6-9966-6965722e6b69,rev?*%
%TF.SameCoordinates,Original*%
%TF.FileFunction,Copper,L1,Top*%
%TF.FilePolarity,Positive*%
%FSLAX46Y46*%
G04 Gerber Fmt 4.6, Leading zero omitted, Abs format (unit mm)*
G04 Created by KiCad (PCBNEW 6.0.4-6f826c9f35~116~ubuntu21.10.1) date 2022-05-06 18:09:40*
%MOMM*%
%LPD*%
G01*
G04 APERTURE LIST*
G04 Aperture macros list*
%AMRoundRect*
0 Rectangle with rounded corners*
0 $1 Rounding radius*
0 $2 $3 $4 $5 $6 $7 $8 $9 X,Y pos of 4 corners*
0 Add a 4 corners polygon primitive as box body*
4,1,4,$2,$3,$4,$5,$6,$7,$8,$9,$2,$3,0*
0 Add four circle primitives for the rounded corners*
1,1,$1+$1,$2,$3*
1,1,$1+$1,$4,$5*
1,1,$1+$1,$6,$7*
1,1,$1+$1,$8,$9*
0 Add four rect primitives between the rounded corners*
20,1,$1+$1,$2,$3,$4,$5,0*
20,1,$1+$1,$4,$5,$6,$7,0*
20,1,$1+$1,$6,$7,$8,$9,0*
20,1,$1+$1,$8,$9,$2,$3,0*%
G04 Aperture macros list end*
%TA.AperFunction,EtchedComponent*%
%ADD10C,0.381000*%
%TD*%
%TA.AperFunction,ComponentPad*%
%ADD11C,2.600000*%
%TD*%
%TA.AperFunction,ComponentPad*%
%ADD12C,6.350000*%
%TD*%
%TA.AperFunction,SMDPad,CuDef*%
%ADD13R,1.100000X4.600000*%
%TD*%
%TA.AperFunction,SMDPad,CuDef*%
%ADD14R,10.800000X9.400000*%
%TD*%
%TA.AperFunction,SMDPad,CuDef*%
%ADD15RoundRect,0.250001X0.799999X-1.999999X0.799999X1.999999X-0.799999X1.999999X-0.799999X-1.999999X0*%
%TD*%
%TA.AperFunction,SMDPad,CuDef*%
%ADD16RoundRect,0.250001X-0.799999X1.999999X-0.799999X-1.999999X0.799999X-1.999999X0.799999X1.999999X0*%
%TD*%
%TA.AperFunction,SMDPad,CuDef*%
%ADD17RoundRect,0.250000X0.412500X0.650000X-0.412500X0.650000X-0.412500X-0.650000X0.412500X-0.650000X0*%
%TD*%
%TA.AperFunction,SMDPad,CuDef*%
%ADD18R,1.800000X3.500000*%
%TD*%
%TA.AperFunction,ComponentPad*%
%ADD19C,5.600000*%
%TD*%
%TA.AperFunction,SMDPad,CuDef*%
%ADD20R,1.100000X1.100000*%
%TD*%
%TA.AperFunction,SMDPad,CuDef*%
%ADD21RoundRect,0.250000X-0.650000X0.412500X-0.650000X-0.412500X0.650000X-0.412500X0.650000X0.412500X0*%
%TD*%
%TA.AperFunction,SMDPad,CuDef*%
%ADD22RoundRect,0.250000X0.625000X-0.400000X0.625000X0.400000X-0.625000X0.400000X-0.625000X-0.400000X0*%
%TD*%
%TA.AperFunction,SMDPad,CuDef*%
%ADD23RoundRect,0.250000X0.650000X-0.412500X0.650000X0.412500X-0.650000X0.412500X-0.650000X-0.412500X0*%
%TD*%
%TA.AperFunction,SMDPad,CuDef*%
%ADD24R,3.500000X1.800000*%
%TD*%
%TA.AperFunction,ComponentPad*%
%ADD25O,1.600000X2.500000*%
%TD*%
%TA.AperFunction,ComponentPad*%
%ADD26O,3.500000X7.000000*%
%TD*%
%TA.AperFunction,SMDPad,CuDef*%
%ADD27RoundRect,0.250000X-0.625000X0.400000X-0.625000X-0.400000X0.625000X-0.400000X0.625000X0.400000X0*%
%TD*%
%TA.AperFunction,SMDPad,CuDef*%
%ADD28RoundRect,0.250000X-0.400000X-0.625000X0.400000X-0.625000X0.400000X0.625000X-0.400000X0.625000X0*%
%TD*%
%TA.AperFunction,ComponentPad*%
%ADD29R,2.500000X2.500000*%
%TD*%
%TA.AperFunction,SMDPad,CuDef*%
%ADD30RoundRect,0.250000X-0.412500X-0.650000X0.412500X-0.650000X0.412500X0.650000X-0.412500X0.650000X0*%
%TD*%
%TA.AperFunction,SMDPad,CuDef*%
%ADD31RoundRect,0.250000X0.400000X0.625000X-0.400000X0.625000X-0.400000X-0.625000X0.400000X-0.625000X0*%
%TD*%
%TA.AperFunction,ComponentPad*%
%ADD32O,4.000000X1.600000*%
%TD*%
%TA.AperFunction,ComponentPad*%
%ADD33O,1.600000X4.000000*%
%TD*%
%TA.AperFunction,ComponentPad*%
%ADD34C,2.500000*%
%TD*%
%TA.AperFunction,ComponentPad*%
%ADD35C,1.800000*%
%TD*%
%TA.AperFunction,SMDPad,CuDef*%
%ADD36RoundRect,0.575000X1.075000X-0.575000X1.075000X0.575000X-1.075000X0.575000X-1.075000X-0.575000X0*%
%TD*%
%TA.AperFunction,ComponentPad*%
%ADD37R,1.700000X1.700000*%
%TD*%
%TA.AperFunction,ComponentPad*%
%ADD38O,1.700000X1.700000*%
%TD*%
%TA.AperFunction,ViaPad*%
%ADD39C,0.800000*%
%TD*%
%TA.AperFunction,Conductor*%
%ADD40C,0.500000*%
%TD*%
%TA.AperFunction,Conductor*%
%ADD41C,1.500000*%
%TD*%
G04 APERTURE END LIST*
D10*
%TO.C,REF\u002A\u002A*%
X176529720Y-85370560D02*
X175732160Y-88169640D01*
X175732160Y-88169640D02*
X176931040Y-85070840D01*
X176931040Y-85070840D02*
X176331600Y-85469620D01*
X175330840Y-86170660D02*
X176631320Y-83369040D01*
X175330840Y-86170660D02*
X176529720Y-85370560D01*
X171531000Y-88764000D02*
X176230000Y-81779000D01*
X176130940Y-83170920D02*
X175330840Y-86170660D01*
X175732160Y-88169640D02*
X176331600Y-87471140D01*
X176230000Y-81779000D02*
X180929000Y-88764000D01*
X180929000Y-88764000D02*
X171531000Y-88764000D01*
X175732160Y-88169640D02*
X175630560Y-87270480D01*
%TD*%
D11*
%TO.P,U1,1,OUT*%
%TO.N,Net-(R5-Pad1)*%
X212778000Y-77342000D03*
%TO.P,U1,2,CL*%
%TO.N,Net-(R6-Pad2)*%
X216538000Y-79512000D03*
%TO.P,U1,3,+VS*%
%TO.N,+VHV*%
X220818000Y-78762000D03*
%TO.P,U1,4,+IN*%
%TO.N,/CTRL*%
X223608000Y-75432000D03*
%TO.P,U1,5,-IN*%
%TO.N,Net-(D1-Pad2)*%
X223608000Y-71092000D03*
%TO.P,U1,6,-VS*%
%TO.N,-VHV*%
X220818000Y-67762000D03*
%TO.P,U1,7,RC*%
%TO.N,Net-(R1-Pad2)*%
X216538000Y-67012000D03*
%TO.P,U1,8,CC*%
%TO.N,Net-(C1-Pad2)*%
X212778000Y-69182000D03*
D12*
%TO.P,U1,C*%
%TO.N,N/C*%
X232738000Y-73262000D03*
X202538000Y-73262000D03*
%TD*%
D13*
%TO.P,U2,1,VC*%
%TO.N,/VC*%
X145570000Y-81735000D03*
%TO.P,U2,2,FB*%
%TO.N,/FB*%
X147270000Y-81735000D03*
D14*
%TO.P,U2,3,GND*%
%TO.N,GND*%
X148970000Y-72585000D03*
D13*
X148970000Y-81735000D03*
%TO.P,U2,4,VSW*%
%TO.N,/SW*%
X150670000Y-81735000D03*
%TO.P,U2,5,VIN*%
%TO.N,/VIN*%
X152370000Y-81735000D03*
%TD*%
D15*
%TO.P,C20,1*%
%TO.N,GND*%
X188000000Y-76600000D03*
%TO.P,C20,2*%
%TO.N,-VHV*%
X188000000Y-69400000D03*
%TD*%
D16*
%TO.P,C19,1*%
%TO.N,+VHV*%
X188000000Y-82740000D03*
%TO.P,C19,2*%
%TO.N,GND*%
X188000000Y-89940000D03*
%TD*%
D17*
%TO.P,C12,1*%
%TO.N,Net-(C12-Pad1)*%
X180108500Y-68778000D03*
%TO.P,C12,2*%
%TO.N,Net-(C12-Pad2)*%
X176983500Y-68778000D03*
%TD*%
D18*
%TO.P,D16,1,A1*%
%TO.N,GND*%
X173440000Y-103400000D03*
%TO.P,D16,2,A2*%
%TO.N,/CTRL*%
X173440000Y-98400000D03*
%TD*%
D19*
%TO.P,H2,1,1*%
%TO.N,GND*%
X160000000Y-101500000D03*
%TD*%
D20*
%TO.P,D1,1,K*%
%TO.N,/CTRL*%
X233677500Y-84560000D03*
%TO.P,D1,2,A*%
%TO.N,Net-(D1-Pad2)*%
X236477500Y-84560000D03*
%TD*%
D21*
%TO.P,C7,1*%
%TO.N,Net-(C13-Pad2)*%
X157464000Y-76867500D03*
%TO.P,C7,2*%
%TO.N,/SW*%
X157464000Y-79992500D03*
%TD*%
D22*
%TO.P,R12,1*%
%TO.N,Net-(D7-Pad2)*%
X177276000Y-75154000D03*
%TO.P,R12,2*%
%TO.N,Net-(C12-Pad1)*%
X177276000Y-72054000D03*
%TD*%
D23*
%TO.P,C14,1*%
%TO.N,Net-(C10-Pad2)*%
X170418000Y-75166500D03*
%TO.P,C14,2*%
%TO.N,Net-(C14-Pad2)*%
X170418000Y-72041500D03*
%TD*%
D24*
%TO.P,D4,1,K*%
%TO.N,GND*%
X235520000Y-61060000D03*
%TO.P,D4,2,A*%
%TO.N,-VHV*%
X230520000Y-61060000D03*
%TD*%
D22*
%TO.P,R11,1*%
%TO.N,Net-(JP1-Pad2)*%
X136758000Y-80270000D03*
%TO.P,R11,2*%
%TO.N,/FB*%
X136758000Y-77170000D03*
%TD*%
D25*
%TO.P,J4,1,In*%
%TO.N,/HVOUT*%
X209600000Y-97350000D03*
D26*
%TO.P,J4,2,Ext*%
%TO.N,GND*%
X214680000Y-102430000D03*
X204520000Y-102430000D03*
D25*
X212140000Y-97350000D03*
%TD*%
D27*
%TO.P,R13,1*%
%TO.N,Net-(D9-Pad2)*%
X160258000Y-71800000D03*
%TO.P,R13,2*%
%TO.N,Net-(C11-Pad1)*%
X160258000Y-74900000D03*
%TD*%
%TO.P,R5,1*%
%TO.N,Net-(R5-Pad1)*%
X203756000Y-86636000D03*
%TO.P,R5,2*%
%TO.N,Net-(R4-Pad1)*%
X203756000Y-89736000D03*
%TD*%
D28*
%TO.P,R3,1*%
%TO.N,Net-(C2-Pad2)*%
X144098000Y-87610000D03*
%TO.P,R3,2*%
%TO.N,/VC*%
X147198000Y-87610000D03*
%TD*%
D20*
%TO.P,D13,1,K*%
%TO.N,+VHV*%
X157334000Y-63444000D03*
%TO.P,D13,2,A*%
%TO.N,Net-(C13-Pad1)*%
X160134000Y-63444000D03*
%TD*%
D29*
%TO.P,TP3,1,1*%
%TO.N,GND*%
X244180000Y-68000000D03*
%TD*%
D30*
%TO.P,C17,1*%
%TO.N,GND*%
X149673500Y-88372000D03*
%TO.P,C17,2*%
%TO.N,/VIN*%
X152798500Y-88372000D03*
%TD*%
D31*
%TO.P,R14,1*%
%TO.N,Net-(D12-Pad2)*%
X165364000Y-69286000D03*
%TO.P,R14,2*%
%TO.N,Net-(C11-Pad2)*%
X162264000Y-69286000D03*
%TD*%
D32*
%TO.P,J3,1*%
%TO.N,/VIN*%
X135450000Y-100250000D03*
%TO.P,J3,2*%
%TO.N,GND*%
X135450000Y-106250000D03*
D33*
%TO.P,J3,3*%
X140150000Y-103250000D03*
%TD*%
D20*
%TO.P,D6,1,K*%
%TO.N,Net-(C11-Pad1)*%
X160512000Y-77284000D03*
%TO.P,D6,2,A*%
%TO.N,/SW*%
X160512000Y-80084000D03*
%TD*%
D27*
%TO.P,R6,1*%
%TO.N,Net-(R5-Pad1)*%
X208910000Y-86670000D03*
%TO.P,R6,2*%
%TO.N,Net-(R6-Pad2)*%
X208910000Y-89770000D03*
%TD*%
D22*
%TO.P,R4,1*%
%TO.N,Net-(R4-Pad1)*%
X206360000Y-89760000D03*
%TO.P,R4,2*%
%TO.N,Net-(D1-Pad2)*%
X206360000Y-86660000D03*
%TD*%
D29*
%TO.P,J5,1,Pin_1*%
%TO.N,/HVOUT*%
X229255000Y-115000000D03*
D34*
%TO.P,J5,2,Pin_2*%
%TO.N,GND*%
X234335000Y-115000000D03*
%TD*%
D20*
%TO.P,D8,1,K*%
%TO.N,Net-(C12-Pad1)*%
X173212000Y-77538000D03*
%TO.P,D8,2,A*%
%TO.N,Net-(C10-Pad2)*%
X173212000Y-80338000D03*
%TD*%
%TO.P,D14,1,K*%
%TO.N,Net-(C12-Pad2)*%
X170418000Y-68654000D03*
%TO.P,D14,2,A*%
%TO.N,Net-(C14-Pad2)*%
X170418000Y-65854000D03*
%TD*%
D28*
%TO.P,R2,1*%
%TO.N,Net-(D1-Pad2)*%
X233470000Y-87370000D03*
%TO.P,R2,2*%
%TO.N,Net-(R2-Pad2)*%
X236570000Y-87370000D03*
%TD*%
D35*
%TO.P,RV1,1,1*%
%TO.N,Net-(R2-Pad2)*%
X245852000Y-92214000D03*
%TO.P,RV1,2,2*%
%TO.N,GND*%
X243312000Y-99834000D03*
%TO.P,RV1,3,3*%
%TO.N,unconnected-(RV1-Pad3)*%
X245852000Y-104914000D03*
%TD*%
D17*
%TO.P,C15,1*%
%TO.N,Net-(C11-Pad2)*%
X165376500Y-63444000D03*
%TO.P,C15,2*%
%TO.N,+VHV*%
X162251500Y-63444000D03*
%TD*%
D22*
%TO.P,R8,1*%
%TO.N,GND*%
X140568000Y-80270000D03*
%TO.P,R8,2*%
%TO.N,/FB*%
X140568000Y-77170000D03*
%TD*%
D20*
%TO.P,D10,1,K*%
%TO.N,Net-(C11-Pad2)*%
X160134000Y-69286000D03*
%TO.P,D10,2,A*%
%TO.N,Net-(C13-Pad2)*%
X157334000Y-69286000D03*
%TD*%
%TO.P,D5,1,K*%
%TO.N,GND*%
X165208000Y-85796000D03*
%TO.P,D5,2,A*%
%TO.N,Net-(C10-Pad1)*%
X168008000Y-85796000D03*
%TD*%
D17*
%TO.P,C2,1*%
%TO.N,GND*%
X147210500Y-90404000D03*
%TO.P,C2,2*%
%TO.N,Net-(C2-Pad2)*%
X144085500Y-90404000D03*
%TD*%
D23*
%TO.P,C5,1*%
%TO.N,/FB*%
X136758000Y-71392500D03*
%TO.P,C5,2*%
%TO.N,+VHV*%
X136758000Y-68267500D03*
%TD*%
%TO.P,C8,1*%
%TO.N,GND*%
X164830000Y-80246500D03*
%TO.P,C8,2*%
%TO.N,Net-(C11-Pad1)*%
X164830000Y-77121500D03*
%TD*%
D28*
%TO.P,R1,1*%
%TO.N,Net-(C1-Pad1)*%
X212370000Y-56980000D03*
%TO.P,R1,2*%
%TO.N,Net-(R1-Pad2)*%
X215470000Y-56980000D03*
%TD*%
D29*
%TO.P,J1,1,Pin_1*%
%TO.N,/VIN*%
X151980000Y-115000000D03*
D34*
%TO.P,J1,2,Pin_2*%
%TO.N,GND*%
X157060000Y-115000000D03*
%TO.P,J1,3,Pin_3*%
%TO.N,/CTRL*%
X162140000Y-115000000D03*
%TO.P,J1,4,Pin_4*%
%TO.N,GND*%
X167220000Y-115000000D03*
%TD*%
D19*
%TO.P,H3,1,1*%
%TO.N,GND*%
X135000000Y-59500000D03*
%TD*%
D17*
%TO.P,C13,1*%
%TO.N,Net-(C13-Pad1)*%
X160296500Y-66238000D03*
%TO.P,C13,2*%
%TO.N,Net-(C13-Pad2)*%
X157171500Y-66238000D03*
%TD*%
D30*
%TO.P,C16,1*%
%TO.N,Net-(C12-Pad2)*%
X176983500Y-65984000D03*
%TO.P,C16,2*%
%TO.N,-VHV*%
X180108500Y-65984000D03*
%TD*%
D20*
%TO.P,D15,1,K*%
%TO.N,Net-(C14-Pad2)*%
X170542000Y-63444000D03*
%TO.P,D15,2,A*%
%TO.N,Net-(D15-Pad2)*%
X173342000Y-63444000D03*
%TD*%
D29*
%TO.P,TP4,1,1*%
%TO.N,GND*%
X195810000Y-88530000D03*
%TD*%
D18*
%TO.P,D3,1,K*%
%TO.N,+VHV*%
X222340000Y-89490000D03*
%TO.P,D3,2,A*%
%TO.N,GND*%
X222340000Y-94490000D03*
%TD*%
D25*
%TO.P,J2,1,In*%
%TO.N,/CTRL*%
X185300000Y-97250000D03*
D26*
%TO.P,J2,2,Ext*%
%TO.N,GND*%
X190380000Y-102330000D03*
X180220000Y-102330000D03*
D25*
X187840000Y-97250000D03*
%TD*%
D19*
%TO.P,H4,1,1*%
%TO.N,GND*%
X244000000Y-59500000D03*
%TD*%
D29*
%TO.P,TP1,1*%
%TO.N,+VHV*%
X164322000Y-60142000D03*
%TD*%
D19*
%TO.P,H1,1,1*%
%TO.N,GND*%
X232000000Y-101500000D03*
%TD*%
D21*
%TO.P,C3,1*%
%TO.N,+VHV*%
X226760000Y-89937500D03*
%TO.P,C3,2*%
%TO.N,GND*%
X226760000Y-93062500D03*
%TD*%
D22*
%TO.P,R10,1*%
%TO.N,/FB*%
X140568000Y-74428000D03*
%TO.P,R10,2*%
%TO.N,Net-(R10-Pad2)*%
X140568000Y-71328000D03*
%TD*%
D20*
%TO.P,D12,1,K*%
%TO.N,Net-(C13-Pad1)*%
X162414000Y-66238000D03*
%TO.P,D12,2,A*%
%TO.N,Net-(D12-Pad2)*%
X165214000Y-66238000D03*
%TD*%
%TO.P,D2,1,K*%
%TO.N,Net-(D1-Pad2)*%
X236477500Y-81766000D03*
%TO.P,D2,2,A*%
%TO.N,/CTRL*%
X233677500Y-81766000D03*
%TD*%
D22*
%TO.P,R15,1*%
%TO.N,Net-(D11-Pad2)*%
X173212000Y-68804000D03*
%TO.P,R15,2*%
%TO.N,Net-(C12-Pad2)*%
X173212000Y-65704000D03*
%TD*%
D30*
%TO.P,C18,1*%
%TO.N,GND*%
X148237500Y-98580000D03*
%TO.P,C18,2*%
%TO.N,/VIN*%
X151362500Y-98580000D03*
%TD*%
D23*
%TO.P,C10,1*%
%TO.N,Net-(C10-Pad1)*%
X170418000Y-80500500D03*
%TO.P,C10,2*%
%TO.N,Net-(C10-Pad2)*%
X170418000Y-77375500D03*
%TD*%
D30*
%TO.P,C6,1*%
%TO.N,/SW*%
X165045500Y-83002000D03*
%TO.P,C6,2*%
%TO.N,Net-(C10-Pad1)*%
X168170500Y-83002000D03*
%TD*%
%TO.P,C4,1*%
%TO.N,-VHV*%
X233467500Y-64450000D03*
%TO.P,C4,2*%
%TO.N,GND*%
X236592500Y-64450000D03*
%TD*%
D20*
%TO.P,D9,1,K*%
%TO.N,Net-(C13-Pad2)*%
X157464000Y-74750000D03*
%TO.P,D9,2,A*%
%TO.N,Net-(D9-Pad2)*%
X157464000Y-71950000D03*
%TD*%
D29*
%TO.P,TP2,1*%
%TO.N,-VHV*%
X177300000Y-60200000D03*
%TD*%
D23*
%TO.P,C11,1*%
%TO.N,Net-(C11-Pad1)*%
X164830000Y-74912500D03*
%TO.P,C11,2*%
%TO.N,Net-(C11-Pad2)*%
X164830000Y-71787500D03*
%TD*%
D36*
%TO.P,L1,1,1*%
%TO.N,/VIN*%
X159750000Y-89000000D03*
%TO.P,L1,2,2*%
%TO.N,/SW*%
X159750000Y-83100000D03*
%TD*%
D23*
%TO.P,C9,1*%
%TO.N,GND*%
X180070000Y-75166500D03*
%TO.P,C9,2*%
%TO.N,Net-(C12-Pad1)*%
X180070000Y-72041500D03*
%TD*%
D28*
%TO.P,R16,1*%
%TO.N,Net-(D15-Pad2)*%
X176996000Y-63444000D03*
%TO.P,R16,2*%
%TO.N,-VHV*%
X180096000Y-63444000D03*
%TD*%
D37*
%TO.P,JP1,1,A*%
%TO.N,GND*%
X139552000Y-84308000D03*
D38*
%TO.P,JP1,2,B*%
%TO.N,Net-(JP1-Pad2)*%
X137012000Y-84308000D03*
%TD*%
D22*
%TO.P,R9,1*%
%TO.N,Net-(R10-Pad2)*%
X140568000Y-68840000D03*
%TO.P,R9,2*%
%TO.N,+VHV*%
X140568000Y-65740000D03*
%TD*%
D20*
%TO.P,D7,1,K*%
%TO.N,Net-(C10-Pad1)*%
X177146000Y-79446000D03*
%TO.P,D7,2,A*%
%TO.N,Net-(D7-Pad2)*%
X179946000Y-79446000D03*
%TD*%
D21*
%TO.P,C1,1*%
%TO.N,Net-(C1-Pad1)*%
X208990000Y-56957500D03*
%TO.P,C1,2*%
%TO.N,Net-(C1-Pad2)*%
X208990000Y-60082500D03*
%TD*%
D20*
%TO.P,D11,1,K*%
%TO.N,Net-(C10-Pad2)*%
X173212000Y-75004000D03*
%TO.P,D11,2,A*%
%TO.N,Net-(D11-Pad2)*%
X173212000Y-72204000D03*
%TD*%
D22*
%TO.P,R7,1*%
%TO.N,/HVOUT*%
X201110000Y-89730000D03*
%TO.P,R7,2*%
%TO.N,Net-(R5-Pad1)*%
X201110000Y-86630000D03*
%TD*%
D39*
%TO.N,GND*%
X149000000Y-73840000D03*
X149000000Y-70270000D03*
X151920000Y-73840000D03*
X146160000Y-73840000D03*
X151920000Y-70270000D03*
X146160000Y-70270000D03*
%TO.N,+VHV*%
X215850000Y-72530000D03*
%TO.N,Net-(D1-Pad2)*%
X222390000Y-83660000D03*
X213920000Y-83700000D03*
%TO.N,GND*%
X185130000Y-89890000D03*
X162970000Y-80260000D03*
X149000000Y-90500000D03*
X236590000Y-62700000D03*
X181860000Y-75150000D03*
X165210000Y-87420000D03*
X224420000Y-93080000D03*
X146500000Y-98500000D03*
X185490000Y-76740000D03*
X170570000Y-103500000D03*
%TD*%
D40*
%TO.N,+VHV*%
X157334000Y-63444000D02*
X157334000Y-63204000D01*
X157334000Y-63204000D02*
X155170000Y-61040000D01*
X155170000Y-61040000D02*
X142990000Y-61040000D01*
X142990000Y-61040000D02*
X140568000Y-63462000D01*
X140568000Y-63462000D02*
X140568000Y-65740000D01*
%TO.N,GND*%
X148970000Y-81735000D02*
X148970000Y-72585000D01*
X149673500Y-88372000D02*
X149673500Y-89826500D01*
X149673500Y-89826500D02*
X149000000Y-90500000D01*
%TO.N,Net-(R2-Pad2)*%
X245852000Y-92214000D02*
X241008000Y-87370000D01*
X241008000Y-87370000D02*
X236570000Y-87370000D01*
%TO.N,Net-(D1-Pad2)*%
X236477500Y-81766000D02*
X236477500Y-80767500D01*
X236477500Y-80767500D02*
X234690000Y-78980000D01*
X234690000Y-78980000D02*
X231496000Y-78980000D01*
X231496000Y-78980000D02*
X223608000Y-71092000D01*
X236477500Y-84560000D02*
X236477500Y-81766000D01*
X233470000Y-87370000D02*
X233667500Y-87370000D01*
X233667500Y-87370000D02*
X236477500Y-84560000D01*
%TO.N,/CTRL*%
X233677500Y-81766000D02*
X229942000Y-81766000D01*
X229942000Y-81766000D02*
X223608000Y-75432000D01*
X233677500Y-84560000D02*
X233677500Y-81766000D01*
%TO.N,Net-(D1-Pad2)*%
X222390000Y-83660000D02*
X230670000Y-83660000D01*
X230670000Y-83660000D02*
X231600000Y-84590000D01*
X231600000Y-84590000D02*
X231600000Y-86310000D01*
X231600000Y-86310000D02*
X232660000Y-87370000D01*
X232660000Y-87370000D02*
X233470000Y-87370000D01*
%TO.N,/CTRL*%
X213050000Y-74150000D02*
X209450000Y-74150000D01*
X190550000Y-93970000D02*
X186600000Y-93970000D01*
X209450000Y-74150000D02*
X199540000Y-84060000D01*
X186600000Y-93970000D02*
X185290000Y-95280000D01*
X199540000Y-84060000D02*
X195270000Y-84060000D01*
X195270000Y-84060000D02*
X192770000Y-86560000D01*
X192770000Y-91750000D02*
X190550000Y-93970000D01*
X192770000Y-86560000D02*
X192770000Y-91750000D01*
X185290000Y-95280000D02*
X185290000Y-97240000D01*
X185290000Y-97240000D02*
X185300000Y-97250000D01*
X215140000Y-74150000D02*
X213050000Y-74150000D01*
%TO.N,Net-(R5-Pad1)*%
X201110000Y-86630000D02*
X201110000Y-85760000D01*
X201110000Y-85760000D02*
X209528000Y-77342000D01*
X209528000Y-77342000D02*
X212778000Y-77342000D01*
%TO.N,/CTRL*%
X223608000Y-75432000D02*
X216422000Y-75432000D01*
X216422000Y-75432000D02*
X215140000Y-74150000D01*
%TO.N,+VHV*%
X204310000Y-64060000D02*
X211940000Y-71690000D01*
X212780000Y-72530000D02*
X211940000Y-71690000D01*
X215850000Y-72530000D02*
X212780000Y-72530000D01*
%TO.N,Net-(R5-Pad1)*%
X203756000Y-86636000D02*
X203756000Y-87566000D01*
X203756000Y-87566000D02*
X204350000Y-88160000D01*
X204350000Y-88160000D02*
X208690000Y-88160000D01*
X208690000Y-88160000D02*
X208910000Y-87940000D01*
X208910000Y-87940000D02*
X208910000Y-86670000D01*
%TO.N,Net-(D1-Pad2)*%
X206360000Y-84840000D02*
X206620000Y-84580000D01*
X206360000Y-86660000D02*
X206360000Y-84840000D01*
X207500000Y-83700000D02*
X213920000Y-83700000D01*
X206620000Y-84580000D02*
X207500000Y-83700000D01*
%TO.N,Net-(R6-Pad2)*%
X208910000Y-89770000D02*
X211390000Y-89770000D01*
X211390000Y-89770000D02*
X216538000Y-84622000D01*
X216538000Y-84622000D02*
X216538000Y-79512000D01*
%TO.N,Net-(C1-Pad1)*%
X212370000Y-56980000D02*
X209012500Y-56980000D01*
X209012500Y-56980000D02*
X208990000Y-56957500D01*
%TO.N,Net-(C1-Pad2)*%
X212778000Y-69182000D02*
X212778000Y-63870500D01*
X212778000Y-63870500D02*
X208990000Y-60082500D01*
%TO.N,Net-(R1-Pad2)*%
X215470000Y-56980000D02*
X215470000Y-65944000D01*
X215470000Y-65944000D02*
X216538000Y-67012000D01*
%TO.N,+VHV*%
X192580000Y-64060000D02*
X192580000Y-81520000D01*
X192580000Y-57360000D02*
X192580000Y-64060000D01*
X192580000Y-64060000D02*
X204310000Y-64060000D01*
X164322000Y-60142000D02*
X167674000Y-56790000D01*
X167674000Y-56790000D02*
X192010000Y-56790000D01*
X192010000Y-56790000D02*
X192580000Y-57360000D01*
X192580000Y-81520000D02*
X191360000Y-82740000D01*
X191360000Y-82740000D02*
X188000000Y-82740000D01*
D41*
%TO.N,/VIN*%
X151970000Y-95990000D02*
X137780000Y-95990000D01*
X137780000Y-95990000D02*
X135450000Y-98320000D01*
X135450000Y-98320000D02*
X135450000Y-100250000D01*
D40*
%TO.N,/FB*%
X147270000Y-81735000D02*
X147270000Y-79050000D01*
X147270000Y-79050000D02*
X146610000Y-78390000D01*
X146610000Y-78390000D02*
X143060000Y-78390000D01*
X143060000Y-78390000D02*
X141840000Y-77170000D01*
X141840000Y-77170000D02*
X140568000Y-77170000D01*
%TO.N,/VC*%
X147198000Y-87610000D02*
X147198000Y-86218000D01*
X147198000Y-86218000D02*
X145570000Y-84590000D01*
X145570000Y-84590000D02*
X145570000Y-81735000D01*
%TO.N,GND*%
X149673500Y-88372000D02*
X149673500Y-86853500D01*
X149673500Y-86853500D02*
X148970000Y-86150000D01*
X148970000Y-86150000D02*
X148970000Y-81735000D01*
%TO.N,/SW*%
X154080000Y-78560000D02*
X155430000Y-79910000D01*
X151820000Y-78560000D02*
X154080000Y-78560000D01*
X150670000Y-78930000D02*
X150880000Y-78720000D01*
X150670000Y-81735000D02*
X150670000Y-78930000D01*
X150880000Y-78720000D02*
X151040000Y-78560000D01*
X151040000Y-78560000D02*
X151820000Y-78560000D01*
%TO.N,/VIN*%
X152370000Y-85200000D02*
X152990000Y-85820000D01*
X152990000Y-85820000D02*
X152990000Y-88180500D01*
X152370000Y-81735000D02*
X152370000Y-85200000D01*
X152990000Y-88180500D02*
X152798500Y-88372000D01*
%TO.N,GND*%
X140568000Y-80270000D02*
X140568000Y-83292000D01*
X140568000Y-83292000D02*
X139552000Y-84308000D01*
X236572500Y-64460000D02*
X236572500Y-62717500D01*
X148237500Y-98580000D02*
X146580000Y-98580000D01*
X181843500Y-75166500D02*
X181860000Y-75150000D01*
X187690000Y-89940000D02*
X185180000Y-89940000D01*
X235510000Y-61050000D02*
X236590000Y-62130000D01*
X165208000Y-85796000D02*
X165208000Y-87418000D01*
X226000000Y-93082500D02*
X224422500Y-93082500D01*
X173460000Y-103570000D02*
X170640000Y-103570000D01*
X147210500Y-90404000D02*
X148904000Y-90404000D01*
X148904000Y-90404000D02*
X149000000Y-90500000D01*
X185180000Y-89940000D02*
X185130000Y-89890000D01*
X185530000Y-76780000D02*
X185490000Y-76740000D01*
X224190000Y-93080000D02*
X224420000Y-93080000D01*
X164830000Y-80246500D02*
X162983500Y-80246500D01*
X162983500Y-80246500D02*
X162970000Y-80260000D01*
X187830000Y-76780000D02*
X185530000Y-76780000D01*
X236572500Y-62717500D02*
X236590000Y-62700000D01*
X165208000Y-87418000D02*
X165210000Y-87420000D01*
X222330000Y-94940000D02*
X224190000Y-93080000D01*
X146580000Y-98580000D02*
X146500000Y-98500000D01*
X224422500Y-93082500D02*
X224420000Y-93080000D01*
X180070000Y-75166500D02*
X181843500Y-75166500D01*
X236590000Y-62130000D02*
X236590000Y-62700000D01*
%TO.N,Net-(C2-Pad2)*%
X144085500Y-87622500D02*
X144098000Y-87610000D01*
X144085500Y-90404000D02*
X144085500Y-87622500D01*
%TO.N,Net-(C10-Pad1)*%
X170418000Y-81078000D02*
X171210000Y-81870000D01*
X168170500Y-81689500D02*
X169359500Y-80500500D01*
X168170000Y-84820000D02*
X168170000Y-83930000D01*
X171210000Y-81870000D02*
X174722000Y-81870000D01*
X169359500Y-80500500D02*
X170418000Y-80500500D01*
X174722000Y-81870000D02*
X177146000Y-79446000D01*
X170418000Y-80500500D02*
X170418000Y-81078000D01*
X168008000Y-84982000D02*
X168170000Y-84820000D01*
X168170500Y-83002000D02*
X168170500Y-81689500D01*
X168170000Y-83930000D02*
X168170500Y-83929500D01*
X168008000Y-85796000D02*
X168008000Y-84982000D01*
X168170500Y-83929500D02*
X168170500Y-83002000D01*
%TO.N,Net-(C13-Pad2)*%
X157334000Y-69286000D02*
X157334000Y-67914000D01*
X157171500Y-67751500D02*
X157171500Y-66238000D01*
X156000000Y-73400000D02*
X156000000Y-70620000D01*
X156000000Y-70620000D02*
X157334000Y-69286000D01*
X157350000Y-74750000D02*
X156000000Y-73400000D01*
X157464000Y-76867500D02*
X157464000Y-74750000D01*
X157334000Y-67914000D02*
X157171500Y-67751500D01*
X157464000Y-74750000D02*
X157350000Y-74750000D01*
%TO.N,Net-(C11-Pad1)*%
X160512000Y-77284000D02*
X160512000Y-75154000D01*
X160512000Y-77284000D02*
X164667500Y-77284000D01*
X160512000Y-75154000D02*
X160258000Y-74900000D01*
X164667500Y-77284000D02*
X164830000Y-77121500D01*
X164830000Y-77121500D02*
X164830000Y-74912500D01*
%TO.N,Net-(C12-Pad1)*%
X173982000Y-77538000D02*
X175220000Y-76300000D01*
X180057500Y-72054000D02*
X180070000Y-72041500D01*
X177276000Y-72054000D02*
X180057500Y-72054000D01*
X180070000Y-72041500D02*
X180108500Y-72003000D01*
X175220000Y-76300000D02*
X175220000Y-74110000D01*
X180108500Y-72003000D02*
X180108500Y-68778000D01*
X175220000Y-74110000D02*
X177276000Y-72054000D01*
X173212000Y-77538000D02*
X173982000Y-77538000D01*
%TO.N,Net-(C10-Pad2)*%
X171863500Y-75166500D02*
X172030000Y-75000000D01*
X173212000Y-80292000D02*
X170418000Y-77498000D01*
X173212000Y-80338000D02*
X173212000Y-80292000D01*
X173208000Y-75000000D02*
X173212000Y-75004000D01*
X170418000Y-77498000D02*
X170418000Y-77375500D01*
X170418000Y-75166500D02*
X171863500Y-75166500D01*
X172030000Y-75000000D02*
X173208000Y-75000000D01*
X170418000Y-77375500D02*
X170418000Y-75166500D01*
%TO.N,Net-(C11-Pad2)*%
X165376500Y-63563500D02*
X165376500Y-63444000D01*
X163820000Y-67730000D02*
X163820000Y-65120000D01*
X160134000Y-69286000D02*
X162264000Y-69286000D01*
X164830000Y-71787500D02*
X164765500Y-71787500D01*
X163820000Y-65120000D02*
X165376500Y-63563500D01*
X164765500Y-71787500D02*
X162264000Y-69286000D01*
X162264000Y-69286000D02*
X163820000Y-67730000D01*
%TO.N,Net-(C12-Pad2)*%
X175264000Y-65984000D02*
X176983500Y-65984000D01*
X176983500Y-68778000D02*
X176983500Y-65984000D01*
X174984000Y-65704000D02*
X175264000Y-65984000D01*
X170418000Y-68654000D02*
X170418000Y-68498000D01*
X173212000Y-65704000D02*
X174984000Y-65704000D01*
X170418000Y-68498000D02*
X173212000Y-65704000D01*
%TO.N,Net-(C14-Pad2)*%
X170418000Y-71608000D02*
X168600000Y-69790000D01*
X170418000Y-65854000D02*
X170418000Y-63568000D01*
X170418000Y-72041500D02*
X170418000Y-71608000D01*
X169446000Y-65854000D02*
X170418000Y-65854000D01*
X170418000Y-63568000D02*
X170542000Y-63444000D01*
X168600000Y-66700000D02*
X169446000Y-65854000D01*
X168600000Y-69790000D02*
X168600000Y-66700000D01*
%TO.N,/CTRL*%
X162140000Y-109270000D02*
X174160000Y-97250000D01*
X174160000Y-97250000D02*
X185300000Y-97250000D01*
X162140000Y-115000000D02*
X162140000Y-109270000D01*
%TO.N,Net-(D7-Pad2)*%
X177276000Y-75876000D02*
X177276000Y-75154000D01*
X179946000Y-79446000D02*
X179946000Y-78546000D01*
X179946000Y-78546000D02*
X177276000Y-75876000D01*
%TO.N,Net-(D9-Pad2)*%
X158680000Y-71750000D02*
X160208000Y-71750000D01*
X157464000Y-71950000D02*
X158480000Y-71950000D01*
X160208000Y-71750000D02*
X160258000Y-71800000D01*
X158480000Y-71950000D02*
X158680000Y-71750000D01*
%TO.N,Net-(D11-Pad2)*%
X173212000Y-72204000D02*
X173212000Y-68804000D01*
%TO.N,Net-(D12-Pad2)*%
X165364000Y-69286000D02*
X165364000Y-67754000D01*
X165210000Y-66242000D02*
X165214000Y-66238000D01*
X165210000Y-67600000D02*
X165210000Y-66242000D01*
X165364000Y-67754000D02*
X165210000Y-67600000D01*
%TO.N,Net-(D15-Pad2)*%
X176996000Y-63444000D02*
X173342000Y-63444000D01*
D41*
%TO.N,/VIN*%
X151970000Y-95990000D02*
X152798500Y-95161500D01*
X151980000Y-115000000D02*
X151980000Y-101930000D01*
X151980000Y-101930000D02*
X151362500Y-101312500D01*
X151362500Y-98580000D02*
X151362500Y-96597500D01*
X151362500Y-101312500D02*
X151362500Y-98580000D01*
X152798500Y-95161500D02*
X152798500Y-88372000D01*
X151362500Y-96597500D02*
X151970000Y-95990000D01*
D40*
%TO.N,/HVOUT*%
X209320000Y-94760000D02*
X203460000Y-94760000D01*
X203460000Y-94760000D02*
X201110000Y-92410000D01*
X229250000Y-107800000D02*
X216210000Y-94760000D01*
X216210000Y-94760000D02*
X209320000Y-94760000D01*
X201110000Y-92410000D02*
X201110000Y-89730000D01*
X209600000Y-95040000D02*
X209320000Y-94760000D01*
X229250000Y-114995000D02*
X229250000Y-107800000D01*
X229255000Y-115000000D02*
X229250000Y-114995000D01*
X209600000Y-97350000D02*
X209600000Y-95040000D01*
%TO.N,Net-(JP1-Pad2)*%
X137012000Y-84308000D02*
X137012000Y-81752000D01*
X136758000Y-81498000D02*
X136758000Y-80270000D01*
X137012000Y-81752000D02*
X136758000Y-81498000D01*
%TO.N,Net-(R4-Pad1)*%
X203756000Y-89736000D02*
X206336000Y-89736000D01*
X206336000Y-89736000D02*
X206360000Y-89760000D01*
%TO.N,Net-(R5-Pad1)*%
X201110000Y-86630000D02*
X203750000Y-86630000D01*
X203750000Y-86630000D02*
X203756000Y-86636000D01*
%TO.N,Net-(R10-Pad2)*%
X140568000Y-68840000D02*
X140568000Y-71328000D01*
%TO.N,/FB*%
X138268000Y-74428000D02*
X140568000Y-74428000D01*
X136758000Y-77170000D02*
X140568000Y-77170000D01*
X136758000Y-72918000D02*
X138268000Y-74428000D01*
X140568000Y-74428000D02*
X140568000Y-77170000D01*
X136758000Y-71392500D02*
X136758000Y-72918000D01*
D41*
%TO.N,/SW*%
X165045500Y-83002000D02*
X159848000Y-83002000D01*
X159848000Y-83002000D02*
X159750000Y-83100000D01*
D40*
%TO.N,Net-(C13-Pad1)*%
X160134000Y-64664000D02*
X160134000Y-63444000D01*
X162414000Y-66238000D02*
X160296500Y-66238000D01*
X160296500Y-64826500D02*
X160134000Y-64664000D01*
X160296500Y-66238000D02*
X160296500Y-64826500D01*
%TO.N,+VHV*%
X157334000Y-63196000D02*
X158740000Y-61790000D01*
X157334000Y-63444000D02*
X157334000Y-63196000D01*
X162251500Y-62141500D02*
X162251500Y-63444000D01*
X138600000Y-65740000D02*
X140568000Y-65740000D01*
X136758000Y-68267500D02*
X136758000Y-67582000D01*
%TO.N,-VHV*%
X230510000Y-61050000D02*
X227530000Y-61050000D01*
%TO.N,+VHV*%
X158740000Y-61790000D02*
X161900000Y-61790000D01*
%TO.N,-VHV*%
X230510000Y-62640000D02*
X230510000Y-61050000D01*
%TO.N,+VHV*%
X162251500Y-62141500D02*
X162251500Y-62018500D01*
X164128000Y-60142000D02*
X164322000Y-60142000D01*
X136758000Y-67582000D02*
X138600000Y-65740000D01*
X161900000Y-61790000D02*
X162251500Y-62141500D01*
%TO.N,-VHV*%
X227530000Y-61050000D02*
X220818000Y-67762000D01*
X233447500Y-64460000D02*
X232330000Y-64460000D01*
%TO.N,+VHV*%
X162251500Y-62018500D02*
X164128000Y-60142000D01*
%TO.N,-VHV*%
X232330000Y-64460000D02*
X230510000Y-62640000D01*
X180096000Y-60206000D02*
X180096000Y-63444000D01*
%TO.N,+VHV*%
X220818000Y-78762000D02*
X220818000Y-88428000D01*
%TO.N,-VHV*%
X180108500Y-63456500D02*
X180096000Y-63444000D01*
X187830000Y-69580000D02*
X185860000Y-69580000D01*
%TO.N,+VHV*%
X222347500Y-89957500D02*
X222330000Y-89940000D01*
X220818000Y-88428000D02*
X222330000Y-89940000D01*
%TO.N,-VHV*%
X185860000Y-69580000D02*
X182264000Y-65984000D01*
X182264000Y-65984000D02*
X180108500Y-65984000D01*
X177300000Y-60200000D02*
X180090000Y-60200000D01*
%TO.N,+VHV*%
X226000000Y-89957500D02*
X222347500Y-89957500D01*
%TO.N,-VHV*%
X180108500Y-65984000D02*
X180108500Y-63456500D01*
X180090000Y-60200000D02*
X180096000Y-60206000D01*
%TD*%
%TA.AperFunction,Conductor*%
%TO.N,/SW*%
G36*
X161412121Y-79140002D02*
G01*
X161458614Y-79193658D01*
X161470000Y-79246000D01*
X161470000Y-84174000D01*
X161449998Y-84242121D01*
X161396342Y-84288614D01*
X161344000Y-84300000D01*
X157902190Y-84300000D01*
X157834069Y-84279998D01*
X157813095Y-84263095D01*
X154616576Y-81066576D01*
X154582550Y-81004264D01*
X154582551Y-80950697D01*
X154587053Y-80930000D01*
X154590000Y-80930000D01*
X154590000Y-79246000D01*
X154610002Y-79177879D01*
X154663658Y-79131386D01*
X154716000Y-79120000D01*
X161344000Y-79120000D01*
X161412121Y-79140002D01*
G37*
%TD.AperFunction*%
%TD*%
%TA.AperFunction,Conductor*%
%TO.N,/VIN*%
G36*
X154995931Y-82670002D02*
G01*
X155016905Y-82686905D01*
X159850000Y-87520000D01*
X161244000Y-87520000D01*
X161312121Y-87540002D01*
X161358614Y-87593658D01*
X161370000Y-87646000D01*
X161370000Y-90054000D01*
X161349998Y-90122121D01*
X161296342Y-90168614D01*
X161244000Y-90180000D01*
X151986000Y-90180000D01*
X151917879Y-90159998D01*
X151871386Y-90106342D01*
X151860000Y-90054000D01*
X151860000Y-82776000D01*
X151880002Y-82707879D01*
X151933658Y-82661386D01*
X151986000Y-82650000D01*
X154927810Y-82650000D01*
X154995931Y-82670002D01*
G37*
%TD.AperFunction*%
%TD*%
%TA.AperFunction,Conductor*%
%TO.N,GND*%
G36*
X154342121Y-62020002D02*
G01*
X154388614Y-62073658D01*
X154400000Y-62126000D01*
X154400000Y-69874000D01*
X154379998Y-69942121D01*
X154326342Y-69988614D01*
X154274000Y-70000000D01*
X143724980Y-70000000D01*
X143656859Y-69979998D01*
X143610366Y-69926342D01*
X143598984Y-69875024D01*
X143580006Y-67540710D01*
X143580003Y-67539231D01*
X143599547Y-62125545D01*
X143619795Y-62057497D01*
X143673618Y-62011198D01*
X143725546Y-62000000D01*
X154274000Y-62000000D01*
X154342121Y-62020002D01*
G37*
%TD.AperFunction*%
%TD*%
M02*
